<svg width="25" height="24" viewBox="0 0 25 24" fill="none" xmlns="http://www.w3.org/2000/svg">
<g id="Icons / Bold / View_Gallery">
<path id="&#240;&#159;&#140;&#136; Secondary" fill-rule="evenodd" clip-rule="evenodd" d="M13.9163 6C13.9163 4.89543 14.8117 4 15.9163 4H18.9163C20.0208 4 20.9163 4.89543 20.9163 6V9C20.9163 10.1046 20.0208 11 18.9163 11H15.9163C14.8117 11 13.9163 10.1046 13.9163 9V6ZM4.91626 15C4.91626 13.8954 5.81169 13 6.91626 13H9.91626C11.0208 13 11.9163 13.8954 11.9163 15V18C11.9163 19.1046 11.0208 20 9.91626 20H6.91626C5.81169 20 4.91626 19.1046 4.91626 18V15ZM15.9163 13C14.8117 13 13.9163 13.8954 13.9163 15V18C13.9163 19.1046 14.8117 20 15.9163 20H18.9163C20.0208 20 20.9163 19.1046 20.9163 18V15C20.9163 13.8954 20.0208 13 18.9163 13H15.9163Z" fill="black"/>
<rect id="&#240;&#159;&#140;&#136; Primary" x="4.91626" y="4" width="7" height="7" rx="2" fill="black"/>
</g>
</svg>
