<svg width="25" height="25" viewBox="0 0 25 25" fill="none" xmlns="http://www.w3.org/2000/svg">
<g id="gift">
<path id="Vector" d="M20.9163 11.5V17.7C20.9163 19.3802 20.9163 20.2202 20.5893 20.862C20.3017 21.4265 19.8427 21.8854 19.2782 22.173C18.6365 22.5 17.7964 22.5 16.1163 22.5H9.71626C8.0361 22.5 7.19602 22.5 6.55429 22.173C5.9898 21.8854 5.53086 21.4265 5.24324 20.862C4.91626 20.2202 4.91626 19.3802 4.91626 17.7V11.5M12.9163 7.5V22.5M12.9163 7.5H16.4163C17.797 7.5 18.9163 6.38071 18.9163 5C18.9163 3.61929 17.797 2.5 16.4163 2.5H16.336C15.1966 2.5 14.192 3.24741 13.8646 4.33881L12.9163 7.5ZM12.9163 7.5H9.41626C8.03555 7.5 6.91626 6.38071 6.91626 5C6.91626 3.61929 8.03555 2.5 9.41626 2.5H9.49649C10.6359 2.5 11.6405 3.24741 11.9679 4.33881L12.9163 7.5ZM4.91626 11.5H20.9163C22.0208 11.5 22.9163 10.6046 22.9163 9.5V9.5C22.9163 8.39543 22.0208 7.5 20.9163 7.5H4.91626C3.81169 7.5 2.91626 8.39543 2.91626 9.5V9.5C2.91626 10.6046 3.81169 11.5 4.91626 11.5Z" stroke="#1A1A1A" stroke-width="1.5" stroke-linecap="round" stroke-linejoin="round"/>
</g>
</svg>
