<svg width="23" height="22" viewBox="0 0 23 22" fill="none" xmlns="http://www.w3.org/2000/svg">
<g id="icon-park-solid:check-one" clip-path="url(#clip0_2424_127380)">
<path id="Vector" d="M11.083 22C12.5278 22.0019 13.9588 21.7182 15.2936 21.1653C16.6284 20.6123 17.8408 19.8011 18.8611 18.7781C19.8841 17.7578 20.6954 16.5454 21.2483 15.2106C21.8012 13.8758 22.0849 12.4448 22.083 11C22.0848 9.55519 21.8012 8.12426 21.2482 6.78944C20.6953 5.45462 19.8841 4.24221 18.8611 3.22191C17.8408 2.19892 16.6284 1.38766 15.2936 0.834736C13.9588 0.281814 12.5278 -0.00186281 11.083 9.2051e-06C9.6382 -0.00183268 8.20727 0.281858 6.87245 0.834778C5.53762 1.3877 4.32522 2.19895 3.30491 3.22191C2.28195 4.24221 1.47071 5.45462 0.917786 6.78944C0.364865 8.12426 0.0811751 9.55519 0.083017 11C0.081145 12.4448 0.364822 13.8758 0.917743 15.2106C1.47067 16.5454 2.28193 17.7578 3.30491 18.7781C4.32522 19.8011 5.53762 20.6123 6.87245 21.1652C8.20727 21.7181 9.6382 22.0018 11.083 22Z" fill="#4F84FF"/>
<path id="Vector_2" d="M6.49951 10.9999L9.55507 14.0554L15.6662 7.94434" stroke="white" stroke-width="1.79995" stroke-linecap="round" stroke-linejoin="round"/>
</g>
<defs>
<clipPath id="clip0_2424_127380">
<rect width="22" height="22" fill="white" transform="translate(0.0830078)"/>
</clipPath>
</defs>
</svg>
