<svg width="26" height="26" viewBox="0 0 26 26" fill="none" xmlns="http://www.w3.org/2000/svg">
<path d="M9.32433 11.3141C9.42138 10.8393 10.0998 10.8393 10.1968 11.3141C10.7922 14.2271 13.0687 16.5036 15.9817 17.099C16.4565 17.196 16.4565 17.8745 15.9817 17.9715C13.0687 18.5669 10.7922 20.8434 10.1968 23.7564C10.0998 24.2312 9.42138 24.2312 9.32433 23.7564C8.72894 20.8434 6.45246 18.5669 3.53946 17.9715C3.06465 17.8745 3.06465 17.196 3.53946 17.099C6.45246 16.5036 8.72894 14.2271 9.32433 11.3141Z" fill="white"/>
<path d="M20.6964 7.76453C20.7033 7.73083 20.7514 7.73083 20.7583 7.76453C21.1158 9.51344 22.4825 10.8802 24.2314 11.2377C24.2651 11.2445 24.2651 11.2927 24.2314 11.2996C22.4825 11.657 21.1158 13.0238 20.7583 14.7727C20.7514 14.8064 20.7033 14.8064 20.6964 14.7727C20.3389 13.0238 18.9722 11.657 17.2233 11.2996C17.1896 11.2927 17.1896 11.2445 17.2233 11.2377C18.9722 10.8802 20.3389 9.51344 20.6964 7.76453Z" fill="#9AA0A6"/>
<path d="M12.9266 2.17505C13.0355 1.64217 13.7968 1.64217 13.9058 2.17505C14.1463 3.35195 15.0661 4.27169 16.243 4.51225C16.7758 4.62116 16.7758 5.38254 16.243 5.49145C15.0661 5.73201 14.1463 6.65175 13.9058 7.82865C13.7968 8.36153 13.0355 8.36153 12.9266 7.82865C12.686 6.65175 11.7663 5.73201 10.5894 5.49145C10.0565 5.38254 10.0565 4.62116 10.5894 4.51225C11.7663 4.27169 12.686 3.35195 12.9266 2.17505Z" fill="#9AA0A6"/>
</svg>
