<svg width="25" height="24" viewBox="0 0 25 24" fill="none" xmlns="http://www.w3.org/2000/svg">
<g id="Icons / Bold / Image">
<path id="Subtract" fill-rule="evenodd" clip-rule="evenodd" d="M8.58244 22H17.2491C20.6394 22 22.9163 19.6229 22.9163 16.0843V7.91672C22.9163 4.37811 20.6394 2 17.2501 2H8.58244C5.19316 2 2.91626 4.37811 2.91626 7.91672V16.0843C2.91626 19.6229 5.19316 22 8.58244 22ZM9.67793 11.1605C11.0479 11.1605 12.1629 10.0455 12.1629 8.67545C12.1629 7.30545 11.0479 6.18945 9.67793 6.18945C8.30693 6.18945 7.19293 7.30545 7.19293 8.67545C7.19293 10.0455 8.30693 11.1605 9.67793 11.1605ZM20.8283 14.8472C20.7183 14.5722 20.5513 14.3142 20.3183 14.0882C19.7073 13.4972 19.1363 12.9452 18.4573 12.5372C17.3923 11.8892 16.5683 12.7992 16.3463 13.0902C16.1673 13.3252 16.0093 13.5805 15.8489 13.8397L15.8489 13.8397L15.8485 13.8404C15.8172 13.8908 15.7859 13.9415 15.7543 13.9922L15.7448 14.0075C15.273 14.7679 14.731 15.6416 13.7973 16.1522C12.4313 16.8882 11.3943 16.2102 10.6483 15.7162C10.3683 15.5322 10.0963 15.3572 9.8253 15.2412C9.1573 14.9602 8.5563 15.2802 7.6643 16.3842C7.1963 16.9612 6.7323 17.5332 6.2623 18.1032C5.9813 18.4452 6.0483 18.9702 6.4273 19.1982C7.0323 19.5622 7.7703 19.7562 8.6043 19.7562H16.9853C17.4583 19.7562 17.9323 19.6942 18.3843 19.5492C19.4023 19.2252 20.2103 18.4842 20.6323 17.5032C20.9883 16.6792 21.1613 15.6792 20.8283 14.8472Z" fill="#9AA0A6"/>
</g>
</svg>
