<svg width="25" height="24" viewBox="0 0 25 24" fill="none" xmlns="http://www.w3.org/2000/svg">
<g id="Icons / Bold / Video">
<g id="Union">
<path d="M10.3108 1.75H15.7708V6.11H10.3108V1.75Z" fill="#9AA0A6"/>
<path d="M17.2717 6.11V1.75C20.3717 1.76 22.4017 3.36 22.9117 6.11H17.2717Z" fill="#9AA0A6"/>
<path fill-rule="evenodd" clip-rule="evenodd" d="M3.04126 15.9404V7.61035H23.0413V15.9404C23.0413 19.5804 20.8713 21.7504 17.2313 21.7504H8.85126C5.21126 21.7504 3.04126 19.5804 3.04126 15.9404ZM15.8276 14.8226C16.467 14.4329 16.467 13.5044 15.8276 13.1147L11.7648 10.6388C11.0984 10.2326 10.2444 10.7123 10.2444 11.4927L10.2444 16.4446C10.2444 17.225 11.0984 17.7046 11.7648 17.2985L15.8276 14.8226Z" fill="#9AA0A6"/>
<path d="M3.17114 6.11C3.68114 3.36 5.71114 1.76 8.81114 1.75V6.11H3.17114Z" fill="#9AA0A6"/>
</g>
</g>
</svg>
