<svg width="16" height="16" viewBox="0 0 16 16" fill="none" xmlns="http://www.w3.org/2000/svg">
<path id="Vector 4188" fill-rule="evenodd" clip-rule="evenodd" d="M12.5577 2.19355L9.84356 2.23839L8.25417 0.649C8.05551 0.450333 7.7334 0.450333 7.53474 0.649L5.94535 2.23839L3.15656 2.20681C2.87585 2.20213 2.64443 2.42573 2.63945 2.70643L2.59529 5.19553L0.547165 6.44855C0.305632 6.5906 0.224452 6.90123 0.365596 7.14329L1.62026 9.29507L1.12774 11.813C1.07412 12.0871 1.25158 12.3532 1.52529 12.4091L3.93698 12.9012L4.92113 15.192C5.03138 15.4486 5.3279 15.5683 5.58543 15.4602L7.89448 14.491L10.1003 15.4514C10.3588 15.5639 10.6595 15.4448 10.7708 15.1858L11.7523 12.9012L14.3355 12.4056C14.6144 12.352 14.7955 12.0804 14.7376 11.8023L14.2159 9.29507L15.4697 7.14494C15.6112 6.90223 15.5291 6.59075 15.2864 6.44923L13.179 5.19553L13.0745 2.68109C13.0631 2.40527 12.8337 2.18892 12.5577 2.19355ZM11.0076 6.07854C11.3222 6.3931 11.3222 6.9031 11.0076 7.21765L7.40421 10.8211C7.08966 11.1356 6.57966 11.1356 6.2651 10.8211L4.56937 9.12535C4.25482 8.81079 4.25482 8.3008 4.56937 7.98624C4.88393 7.67168 5.39393 7.67168 5.70848 7.98624L6.83466 9.11242L9.86853 6.07854C10.1831 5.76399 10.6931 5.76399 11.0076 6.07854Z" fill="#FD55D3"/>
</svg>
