<svg width="216" height="144" viewBox="0 0 216 144" fill="none" xmlns="http://www.w3.org/2000/svg">
<path d="M1.36719 142C7.10152 142 28.1576 140.251 40.9825 139.953M139.409 142C136.101 141.303 127.917 139.91 121.648 139.91C113.812 139.91 115.379 142 110.155 142C104.931 142 90.3045 142 77.7672 142C65.2298 142 59.4835 139.91 44.3342 139.91C43.3011 139.91 42.1775 139.926 40.9825 139.953M74.1104 119.538C72.0209 120.06 61.5731 125.806 60.0059 125.806C58.4387 125.806 55.8268 125.284 54.782 125.806C54.0721 126.161 45.4767 135.208 40.9825 139.953M74.1104 119.538C75.7821 119.12 83.8617 118.667 87.6926 118.493M74.1104 119.538C66.588 123.299 60.18 131.553 57.9164 135.209M87.6926 118.493V132.597M87.6926 118.493V97.9952M214.633 138.344C206.509 138.103 195.465 137.779 184.335 137.458M97.0956 121.627C98.4886 120.582 103.051 118.702 110.155 119.538C114.92 120.098 121.047 123.979 125.827 127.683M97.0956 121.627V132.597M97.0956 121.627V101.776M97.0956 101.776C102.592 101.776 107.062 97.3475 107.112 91.8514L107.265 75.1346M97.0956 101.776C93.4462 101.776 90.1329 100.337 87.6926 97.9952M125.827 127.683C128.174 129.502 130.197 131.278 131.573 132.597C132.618 133.816 135.648 136.254 139.409 136.254C141.871 136.254 163.258 136.85 184.335 137.458M125.827 127.683C130.703 121.834 140.558 110.239 140.976 110.657C141.499 111.179 160.305 135.209 161.35 135.209C162.394 135.209 168.663 127.683 169.185 127.683C169.603 127.683 173.19 127.683 174.932 127.683L184.335 137.458M83.5134 121.627L81.4239 125.806M105.976 124.239C104.235 125.632 100.752 128.941 100.752 131.03M139.409 128.941L144.111 122.672M100.752 75.1346V91.3141C100.752 93.6302 98.8748 95.5078 96.5587 95.5078C94.254 95.5078 92.3812 93.6479 92.3652 91.3433L92.2054 68.3435M100.752 75.1346C102.308 74.0898 105.789 72.6271 107.265 75.1346M100.752 75.1346V64.1644M107.265 75.1346L107.452 64.1644M100.752 64.1644V57.6189C100.752 55.7522 102.266 54.239 104.132 54.239C106.011 54.239 107.529 55.7712 107.512 57.6499L107.452 64.1644M100.752 64.1644C102.433 63.4679 106.126 62.4927 107.452 64.1644M83.5134 68.3435V78.2689C78.5487 79.0964 74.0007 75.338 73.878 70.3062L73.2823 55.2838M83.5134 68.3435C85.129 69.2141 89.1291 70.4331 92.2054 68.3435M83.5134 68.3435V59.4629M92.2054 68.3435L92.1438 59.4629M83.5134 59.4629V33.8803C83.5134 31.5642 85.391 29.6867 87.7071 29.6867C90.0118 29.6867 91.8846 31.5465 91.9006 33.8512L92.1438 59.4629M83.5134 59.4629C85.0879 58.0698 89.0181 56.1196 92.1438 59.4629M64.9575 54.239L64.8445 50.6977C64.7695 48.3483 66.6536 46.4031 69.0041 46.4031C71.2631 46.4031 73.1096 48.2051 73.1647 50.4634L73.2823 55.2838M64.9575 54.239L65.8764 73.6272C66.0839 80.1307 72.1216 84.8645 78.4868 83.5143L83.5134 82.448V88.1943C83.5134 92.0461 85.1168 95.5234 87.6926 97.9952M64.9575 54.239C67.7324 54.5872 73.2823 55.2838 73.2823 55.2838M170.23 18.7165C172.494 17.6717 177.962 15.2687 181.723 14.015M172.842 30.209C175.802 29.8608 181.932 29.1643 182.767 29.1643M172.842 37.0001L180.678 41.7016M159.782 44.836L161.35 53.1942M136.797 32.2986L132.096 34.3882M151.424 11.403L148.812 2M162.917 13.4926C164.658 10.7065 168.245 5.02986 168.663 4.61195M167.096 30.209C167.096 37.1332 162.917 40.1344 156.126 41.1792C149.201 41.1792 143.588 35.5661 143.588 28.6419C143.588 23.418 148.157 18.7165 155.081 18.7165C162.005 18.7165 167.096 23.2849 167.096 30.209Z" stroke="#DADCE0" stroke-width="2.05882" stroke-linecap="round" stroke-linejoin="round"/>
</svg>
