<svg width="24" height="24" viewBox="0 0 24 24" fill="none" xmlns="http://www.w3.org/2000/svg">
<path d="M8.08279 10.0436C8.1757 9.58898 8.82526 9.58898 8.91818 10.0436C9.48824 12.8326 11.6678 15.0122 14.4569 15.5823C14.9115 15.6752 14.9115 16.3248 14.4569 16.4177C11.6678 16.9877 9.48824 19.1674 8.91818 21.9564C8.82526 22.411 8.1757 22.411 8.08279 21.9564C7.51273 19.1674 5.33312 16.9877 2.54408 16.4177C2.08947 16.3248 2.08947 15.6752 2.54408 15.5823C5.33312 15.0122 7.51273 12.8326 8.08279 10.0436Z" fill="white"/>
<path d="M18.9706 6.64505C18.9772 6.61278 19.0233 6.61278 19.0299 6.64505C19.3722 8.31953 20.6807 9.62812 22.3552 9.97038C22.3875 9.97697 22.3875 10.0231 22.3552 10.0297C20.6807 10.3719 19.3722 11.6805 19.0299 13.355C19.0233 13.3873 18.9772 13.3873 18.9706 13.355C18.6284 11.6805 17.3198 10.3719 15.6453 10.0297C15.613 10.0231 15.613 9.97697 15.6453 9.97038C17.3198 9.62812 18.6284 8.31953 18.9706 6.64505Z" fill="#FD55D3"/>
<path d="M11.5305 1.29354C11.6348 0.783339 12.3638 0.783339 12.4681 1.29354C12.6984 2.42036 13.579 3.30097 14.7058 3.53128C15.216 3.63556 15.216 4.36454 14.7058 4.46882C13.579 4.69914 12.6984 5.57974 12.4681 6.70657C12.3638 7.21676 11.6348 7.21676 11.5305 6.70657C11.3002 5.57974 10.4196 4.69914 9.29281 4.46882C8.78261 4.36454 8.78261 3.63556 9.2928 3.53128C10.4196 3.30097 11.3002 2.42036 11.5305 1.29354Z" fill="#FD55D3"/>
</svg>
