<svg width="24" height="24" viewBox="0 0 24 24" fill="none" xmlns="http://www.w3.org/2000/svg">
<path d="M12.0004 1.25C8.27245 1.25 5.25037 4.27207 5.25037 8V10.0692C5.25037 10.7747 4.98616 11.4546 4.50979 11.9749L3.10908 13.5049C1.88405 14.843 2.37953 16.9935 4.06658 17.6606C9.16373 19.6763 14.837 19.6763 19.9342 17.6606C21.6212 16.9935 22.1167 14.843 20.8917 13.5049L19.4909 11.9749C19.0146 11.4546 18.7504 10.7747 18.7504 10.0692V8C18.7504 4.27208 15.7283 1.25 12.0004 1.25Z" fill="white"/>
<path d="M8.15015 20.0879C8.62395 21.7684 10.1684 23.0002 12.0005 23.0002C13.8326 23.0002 15.377 21.7684 15.8508 20.0879C13.3032 20.5299 10.6978 20.5299 8.15015 20.0879Z" fill="white"/>
</svg>
