<svg width="24" height="24" viewBox="0 0 24 24" fill="none" xmlns="http://www.w3.org/2000/svg">
<path fill-rule="evenodd" clip-rule="evenodd" d="M6.5 3.00293H9.5C10.05 3.00293 10.5 3.45293 10.5 4.00293V20.003C10.5 20.553 10.05 21.003 9.5 21.003H6.5C5.95 21.003 5.5 20.553 5.5 20.003V4.00293C5.5 3.45293 5.95 3.00293 6.5 3.00293ZM14.5 3.00293H17.5C18.05 3.00293 18.5 3.45293 18.5 4.00293V20.003C18.5 20.553 18.05 21.003 17.5 21.003H14.5C13.95 21.003 13.5 20.553 13.5 20.003V4.00293C13.5 3.45293 13.95 3.00293 14.5 3.00293Z" fill="white"/>
</svg>
