<svg width="25" height="24" viewBox="0 0 25 24" fill="none" xmlns="http://www.w3.org/2000/svg">
<g id="Bold/Audio">
<path id="Vector" d="M15 1.25C17.8 1.25 19.2 1.25014 20.2695 1.79493C21.2103 2.27429 21.9757 3.03966 22.4551 3.98047C22.9999 5.04999 23 6.45005 23 9.25L23 14.75C23 17.55 22.9999 18.95 22.4551 20.0195C21.9757 20.9603 21.2103 21.7257 20.2695 22.2051C19.2 22.7499 17.7999 22.75 15 22.75L9.5 22.75C6.70004 22.75 5.29998 22.7499 4.23047 22.2051C3.28965 21.7257 2.52429 20.9603 2.04492 20.0195C1.50013 18.95 1.5 17.55 1.5 14.75L1.5 9.25C1.5 6.45005 1.50013 5.04998 2.04492 3.98047C2.52429 3.03966 3.28966 2.27429 4.23047 1.79492C5.29998 1.25013 6.70005 1.25 9.5 1.25L15 1.25ZM12.25 6.25C11.8359 6.25 11.5001 6.5859 11.5 7L11.5 17C11.5 17.4142 11.8358 17.75 12.25 17.75C12.6642 17.75 13 17.4142 13 17L13 7L12.9961 6.92285C12.9574 6.545 12.6381 6.25002 12.25 6.25ZM9.25 8.25C8.83586 8.25 8.50013 8.5859 8.5 9L8.5 15C8.5 15.4142 8.83578 15.75 9.25 15.75C9.6642 15.75 10 15.4142 10 15L10 9C9.99987 8.58591 9.66412 8.25002 9.25 8.25ZM15.25 8.25C14.8359 8.25 14.5001 8.5859 14.5 9L14.5 15C14.5 15.4142 14.8358 15.75 15.25 15.75C15.6642 15.75 16 15.4142 16 15L16 9C15.9999 8.58591 15.6641 8.25002 15.25 8.25ZM6.25 10.25C5.83586 10.25 5.50013 10.5859 5.5 11L5.5 13C5.5 13.4142 5.83578 13.75 6.25 13.75C6.6642 13.75 7 13.4142 7 13L7 11C6.99987 10.5859 6.66412 10.25 6.25 10.25ZM18.25 10.25C17.8359 10.25 17.5001 10.5859 17.5 11L17.5 13C17.5 13.4142 17.8358 13.75 18.25 13.75C18.6642 13.75 19 13.4142 19 13L19 11C18.9999 10.5859 18.6641 10.25 18.25 10.25Z" fill="#9AA0A6"/>
</g>
</svg>
