<svg width="24" height="24" viewBox="0 0 24 24" fill="none" xmlns="http://www.w3.org/2000/svg">
<path fill-rule="evenodd" clip-rule="evenodd" d="M10.85 22.75C7.48969 22.75 5.80953 22.75 4.52606 22.096C3.39708 21.5208 2.4792 20.6029 1.90396 19.4739C1.25 18.1905 1.25 16.5103 1.25 13.15V10.85C1.25 7.48969 1.25 5.80953 1.90396 4.52606C2.4792 3.39708 3.39708 2.4792 4.52606 1.90396C5.80953 1.25 7.48969 1.25 10.85 1.25H13.15C16.5103 1.25 18.1905 1.25 19.4739 1.90396C20.6029 2.4792 21.5208 3.39708 22.096 4.52606C22.75 5.80953 22.75 7.48969 22.75 10.85V13.15C22.75 16.5103 22.75 18.1905 22.096 19.4739C21.5208 20.6029 20.6029 21.5208 19.4739 22.096C18.1905 22.75 16.5103 22.75 13.15 22.75H10.85ZM15 8C15 9.65685 13.6569 11 12 11C10.3431 11 9 9.65685 9 8C9 6.34315 10.3431 5 12 5C13.6569 5 15 6.34315 15 8ZM13.6667 13C15.5076 13 17 14.4924 17 16.3333C17 17.2538 16.2538 18 15.3333 18H8.66667C7.74619 18 7 17.2538 7 16.3333C7 14.4924 8.49238 13 10.3333 13H13.6667Z" fill="white"/>
</svg>
