<svg width="24" height="24" viewBox="0 0 24 24" fill="none" xmlns="http://www.w3.org/2000/svg">
<g id="icon-park-solid:check-one">
<g id="Mask group">
<mask id="mask0_47072_35682" style="mask-type:luminance" maskUnits="userSpaceOnUse" x="2" y="2" width="20" height="20">
<g id="Group">
<g id="Group_2">
<path id="Vector" d="M11.9997 20.9995C13.1818 21.001 14.3526 20.7689 15.4447 20.3165C16.5368 19.8642 17.5287 19.2004 18.3635 18.3635C19.2004 17.5287 19.8642 16.5368 20.3165 15.4447C20.7689 14.3526 21.001 13.1818 20.9995 11.9997C21.001 10.8177 20.7689 9.64694 20.3165 8.55484C19.8641 7.46274 19.2004 6.4708 18.3635 5.63603C17.5287 4.79907 16.5368 4.13532 15.4447 3.68295C14.3526 3.23057 13.1818 2.99848 11.9997 3.00001C10.8177 2.9985 9.64694 3.2306 8.55484 3.68298C7.46274 4.13536 6.4708 4.79909 5.63603 5.63603C4.79909 6.4708 4.13536 7.46274 3.68298 8.55484C3.2306 9.64694 2.9985 10.8177 3.00001 11.9997C2.99848 13.1818 3.23057 14.3526 3.68295 15.4447C4.13532 16.5368 4.79907 17.5287 5.63603 18.3635C6.4708 19.2004 7.46274 19.8641 8.55484 20.3165C9.64694 20.7689 10.8177 21.001 11.9997 20.9995Z" fill="white" stroke="white" stroke-width="1.79995" stroke-linejoin="round"/>
<path id="Vector_2" d="M8.39844 12L11.0984 14.6999L16.4982 9.30005" stroke="black" stroke-width="1.79995" stroke-linecap="round" stroke-linejoin="round"/>
</g>
</g>
</mask>
<g mask="url(#mask0_47072_35682)">
<path id="Vector_3" d="M1.19922 1.19995H22.7986V22.7993H1.19922V1.19995Z" fill="#EAECF0"/>
</g>
</g>
</g>
</svg>
