<svg width="24" height="24" viewBox="0 0 24 24" fill="none" xmlns="http://www.w3.org/2000/svg">
<circle cx="12" cy="12" r="8" fill="#D9D9D9"/>
<path fill-rule="evenodd" clip-rule="evenodd" d="M12.0218 12.7731L9.60956 15.1854C9.39193 15.403 9.03755 15.4015 8.81802 15.1819C8.59849 14.9624 8.59695 14.608 8.81457 14.3904L11.2269 11.9781L8.80275 9.554C8.619 9.32821 8.63445 9.00154 8.83853 8.79745C9.04261 8.59337 9.36929 8.57792 9.59508 8.76167L12.0149 11.1815L14.423 8.77346C14.6472 8.59167 14.974 8.60996 15.1798 8.81583C15.3857 9.0217 15.404 9.34852 15.2222 9.57272L12.8142 11.9808L15.2383 14.4049C15.422 14.6307 15.4066 14.9573 15.2025 15.1614C14.9984 15.3655 14.6717 15.3809 14.4459 15.1972L12.0218 12.7731Z" fill="#80868B"/>
</svg>
