<svg width="24" height="24" viewBox="0 0 24 24" fill="none" xmlns="http://www.w3.org/2000/svg">
<path d="M2 12C2 6.47715 6.47715 2 12 2C17.5228 2 22 6.47715 22 12C22 17.5228 17.5228 22 12 22C6.47715 22 2 17.5228 2 12Z" fill="white" stroke="black" stroke-width="1.5" stroke-linecap="round" stroke-linejoin="round"/>
<path d="M15 9.59961C14.7788 9.29674 14.5167 9.02722 14.2222 8.79971C13.5723 8.29756 12.7644 8 11.8889 8C9.74112 8 8 9.79086 8 12C8 14.2091 9.74112 16 11.8889 16C12.7644 16 13.5723 15.7024 14.2222 15.2003C14.5167 14.9728 14.7788 14.7033 15 14.4004" stroke="black" stroke-width="1.5" stroke-linecap="round" stroke-linejoin="round"/>
</svg>
