<svg width="10" height="11" viewBox="0 0 10 11" fill="none" xmlns="http://www.w3.org/2000/svg">
<g id="Group 1597878844">
<path id="Vector (Stroke)" fill-rule="evenodd" clip-rule="evenodd" d="M2.44922 1C2.44922 0.792893 2.61711 0.625 2.82422 0.625H6.82422C7.03133 0.625 7.19922 0.792893 7.19922 1C7.19922 1.20711 7.03133 1.375 6.82422 1.375H2.82422C2.61711 1.375 2.44922 1.20711 2.44922 1ZM1.44922 2.5C1.44922 2.29289 1.61711 2.125 1.82422 2.125H7.82422C8.03133 2.125 8.19922 2.29289 8.19922 2.5C8.19922 2.70711 8.03133 2.875 7.82422 2.875H1.82422C1.61711 2.875 1.44922 2.70711 1.44922 2.5Z" fill="white"/>
<rect id="Rectangle 394099" x="1.07422" y="4.75" width="7.5" height="5.5" rx="1.25" fill="white" stroke="white" stroke-width="1.5"/>
</g>
</svg>
