<svg width="25" height="24" viewBox="0 0 25 24" fill="none" xmlns="http://www.w3.org/2000/svg">
<g id="Bold/Delete">
<g id="Vector">
<path d="M14.7562 21.3994H10.6624C9.07562 21.3994 8.2822 21.3994 7.66133 21.0977C7.11473 20.8321 6.66169 20.4067 6.36217 19.878C6.02195 19.2773 5.97196 18.4855 5.87198 16.9018L5.66501 13.6235L5.41956 9.1021H19.104L18.8586 13.6235L18.6131 17.7963V17.7963C18.5617 18.5515 18.5359 18.9291 18.4442 19.2425C18.1364 20.2936 17.2802 21.0934 16.2106 21.3291C15.8917 21.3994 15.5132 21.3994 14.7562 21.3994Z" fill="#121414"/>
<path d="M13.9633 2.60156H10.5381C10.0968 2.60156 9.87623 2.60156 9.69197 2.67814C9.52938 2.74572 9.38751 2.85503 9.28071 2.99503C9.15969 3.15367 9.10344 3.367 8.99095 3.79364L8.32344 6.32534H16.178L15.5105 3.79364C15.398 3.36699 15.3417 3.15367 15.2207 2.99503C15.1139 2.85503 14.972 2.74572 14.8094 2.67814C14.6252 2.60156 14.4046 2.60156 13.9633 2.60156Z" fill="#121414"/>
<path d="M3.52344 6.32534H20.978M16.178 6.32534L15.5105 3.79364C15.398 3.36699 15.3417 3.15367 15.2207 2.99503C15.1139 2.85503 14.972 2.74572 14.8094 2.67814C14.6252 2.60156 14.4046 2.60156 13.9633 2.60156H10.5381C10.0968 2.60156 9.87623 2.60156 9.69197 2.67814C9.52938 2.74572 9.38751 2.85503 9.28071 2.99503C9.15969 3.15367 9.10344 3.367 8.99095 3.79364L8.32344 6.32534M18.8586 13.6235L19.104 9.1021H5.41956L5.66501 13.6235L5.87198 16.9018C5.97196 18.4855 6.02195 19.2773 6.36217 19.878C6.66169 20.4067 7.11473 20.8321 7.66133 21.0977C8.2822 21.3994 9.07562 21.3994 10.6624 21.3994H14.7562C15.5132 21.3994 15.8917 21.3994 16.2106 21.3291C17.2802 21.0934 18.1364 20.2936 18.4442 19.2425C18.5359 18.9291 18.5617 18.5515 18.6131 17.7963V17.7963L18.8586 13.6235Z" stroke="#121414" stroke-width="1.5" stroke-linecap="round" stroke-linejoin="round"/>
</g>
</g>
</svg>
