<svg width="24" height="24" viewBox="0 0 24 24" fill="none" xmlns="http://www.w3.org/2000/svg">
<path d="M16.6962 13.9518L16.0119 15.1182L13.3214 13.563C13.1348 13.4489 12.9689 13.3349 12.8237 13.2208C12.6786 13.1068 12.549 12.9616 12.4349 12.7854C12.6008 13.1275 12.6838 13.506 12.6838 13.9207V17H11.3152V13.9362C11.3152 13.7289 11.3255 13.5371 11.3463 13.3608C11.3774 13.1846 11.4344 13.0135 11.5174 12.8476C11.4033 12.9927 11.2789 13.1223 11.1441 13.2364C11.0093 13.3504 10.8538 13.4593 10.6775 13.563L8.00258 15.1026L7.31829 13.9362L9.99325 12.381C10.3872 12.1426 10.7812 12.0181 11.1752 12.0078C10.9678 11.987 10.7657 11.9508 10.5687 11.8989C10.3821 11.8367 10.1902 11.7434 9.99325 11.619L7.30273 10.0482L7.98703 8.8818L10.6775 10.437C10.8642 10.5511 11.0301 10.6703 11.1752 10.7947C11.3204 10.9191 11.45 11.0695 11.564 11.2457C11.3981 10.8828 11.3152 10.494 11.3152 10.0793V7H12.6838V10.0638C12.6838 10.2711 12.6682 10.4681 12.6371 10.6547C12.6164 10.831 12.5645 11.0021 12.4816 11.168C12.5956 11.0228 12.72 10.8932 12.8548 10.7792C12.9896 10.6651 13.1451 10.5511 13.3214 10.437L15.9964 8.89736L16.6807 10.0638L14.0057 11.619C13.8294 11.733 13.6532 11.8212 13.4769 11.8834C13.3007 11.9456 13.114 11.987 12.917 12.0078C13.114 12.0285 13.3007 12.07 13.4769 12.1322C13.6532 12.184 13.8294 12.267 14.0057 12.381L16.6962 13.9518Z" fill="white"/>
</svg>
