<svg width="24" height="24" viewBox="0 0 24 24" fill="none" xmlns="http://www.w3.org/2000/svg">
<path fill-rule="evenodd" clip-rule="evenodd" d="M4.5 3.5C4.5 2.94772 4.94772 2.5 5.5 2.5H16C16.5523 2.5 17 2.94772 17 3.5V14.3855C17 14.7859 16.8798 15.1771 16.655 15.5085L12.5896 21.4995C12.4134 21.7592 12.0442 21.7942 11.8223 21.5723L11.0171 20.7671C10.2367 19.9867 9.94776 18.8408 10.2649 17.7837L11.1 15H9H7H4.5C3.11929 15 2 13.8807 2 12.5C2 11.5615 2.51716 10.7437 3.28205 10.3162C2.80045 9.86053 2.5 9.21535 2.5 8.5C2.5 7.29052 3.35888 6.28164 4.5 6.05001V3.5ZM20.5 2.5H18.5V14.5H20.5C21.3284 14.5 22 13.8284 22 13V4C22 3.17157 21.3284 2.5 20.5 2.5Z" fill="white"/>
</svg>
