<svg width="25" height="24" viewBox="0 0 25 24" fill="none" xmlns="http://www.w3.org/2000/svg">
<g id="Bold/Download">
<g id="Vector">
<path fill-rule="evenodd" clip-rule="evenodd" d="M12.25 1.25C11.8358 1.25 11.5 1.58579 11.5 2V12.9726L9.81944 11.0119C9.54988 10.6974 9.0764 10.661 8.76191 10.9306C8.44741 11.2001 8.41099 11.6736 8.68056 11.9881L11.6806 15.4881C11.823 15.6543 12.0311 15.75 12.25 15.75C12.4689 15.75 12.677 15.6543 12.8194 15.4881L15.8194 11.9881C16.089 11.6736 16.0526 11.2001 15.7381 10.9306C15.4236 10.661 14.9501 10.6974 14.6806 11.0119L13 12.9726L13 2C13 1.58579 12.6642 1.25 12.25 1.25Z" fill="black"/>
<path d="M14.5 9V9.37828C15.2336 9.11973 16.0812 9.2491 16.7142 9.79167C17.6577 10.6004 17.767 12.0208 16.9583 12.9643L13.9583 16.4643C13.5308 16.963 12.9068 17.25 12.25 17.25C11.5931 17.25 10.9691 16.963 10.5416 16.4643L7.54163 12.9643C6.73293 12.0208 6.8422 10.6004 7.78568 9.79167C8.41868 9.2491 9.26637 9.11973 9.99996 9.37828V9H8.25C5.42157 9 4.00736 9 3.12868 9.87868C2.25 10.7574 2.25 12.1716 2.25 15V16C2.25 18.8284 2.25 20.2426 3.12868 21.1213C4.00736 22 5.42157 22 8.24999 22H16.25C19.0784 22 20.4926 22 21.3713 21.1213C22.25 20.2426 22.25 18.8284 22.25 16V15C22.25 12.1716 22.25 10.7574 21.3713 9.87868C20.4926 9 19.0784 9 16.25 9H14.5Z" fill="black"/>
</g>
</g>
</svg>
