<svg width="24" height="24" viewBox="0 0 24 24" fill="none" xmlns="http://www.w3.org/2000/svg">
<path fill-rule="evenodd" clip-rule="evenodd" d="M15.8098 10.473L16.59 9.49908C16.9471 9.03953 17.0741 8.50822 16.9551 7.96724C16.8519 7.47544 16.5503 7.00783 16.0979 6.65309L14.9947 5.7743C14.0344 5.00838 12.8439 5.089 12.1613 5.96779L11.4089 6.90221C11.3296 7.00219 11.3431 7.14569 11.4415 7.22632C11.6866 7.42488 12.164 7.81188 12.7178 8.26089C13.6864 9.04612 14.8889 10.021 15.4923 10.5093C15.59 10.5883 15.7312 10.5722 15.8098 10.473ZM13.7233 17.2149H17.994C18.4106 17.2149 18.7495 17.5592 18.7495 17.9825C18.7495 18.4065 18.4106 18.75 17.994 18.75H13.7233C13.3066 18.75 12.9677 18.4065 12.9677 17.9825C12.9677 17.5592 13.3066 17.2149 13.7233 17.2149Z" fill="#DADCE0"/>
<path fill-rule="evenodd" clip-rule="evenodd" d="M10.7318 8.17795L14.7787 11.448C14.8763 11.5262 14.893 11.6697 14.8168 11.7697L10.0191 18.0212C9.71746 18.4074 9.27301 18.6259 8.79681 18.6339L6.17772 18.6662C6.03804 18.6678 5.91581 18.5711 5.88406 18.4324L5.28882 15.8444C5.18564 15.3687 5.28882 14.8769 5.59041 14.498L10.4119 8.21665C10.4897 8.11587 10.6334 8.09813 10.7318 8.17795Z" fill="#BDC1C6"/>
</svg>
