<svg width="21" height="21" viewBox="0 0 21 21" fill="none" xmlns="http://www.w3.org/2000/svg">
<g id="Others">
<g id="Vector 4192">
<path d="M8.14148 16.0798L5.42561 16.3993C5.32266 16.4114 5.21984 16.3757 5.14654 16.3024L4.86715 16.023C4.79583 15.9517 4.76001 15.8523 4.76942 15.7519L5.00858 13.2009L10.4813 7.72821C10.8741 7.33536 11.5097 7.33088 11.908 7.71817L13.4991 9.26501C13.9054 9.66008 13.91 10.3112 13.5093 10.712L8.14148 16.0798Z" fill="#0C0C0C"/>
<path d="M15.2039 5.39484L15.8672 6.07658C16.5132 6.74043 16.5059 7.80003 15.851 8.45497L15.4294 8.87657C15.0987 9.20724 14.5626 9.20724 14.2319 8.87658L12.3699 7.01462C12.0437 6.68835 12.0387 6.16093 12.3588 5.82856L12.7704 5.40113C13.4341 4.71187 14.5366 4.70902 15.2039 5.39484Z" fill="#0C0C0C"/>
</g>
</g>
</svg>
