<svg width="38" height="38" viewBox="0 0 38 38" fill="none" xmlns="http://www.w3.org/2000/svg">
<circle cx="19" cy="19" r="18.5" fill="white" stroke="#EAECF0"/>
<path fill-rule="evenodd" clip-rule="evenodd" d="M12.4727 22.5215C12.4727 22.1638 12.7627 21.8738 13.1204 21.8738H17.655C18.0127 21.8738 18.3027 22.1638 18.3027 22.5215C18.3027 22.8792 18.0127 23.1692 17.655 23.1692H13.1204C12.7627 23.1692 12.4727 22.8792 12.4727 22.5215Z" fill="black"/>
<path fill-rule="evenodd" clip-rule="evenodd" d="M19.0293 15.5459C19.0293 15.1882 19.3193 14.8982 19.677 14.8982H24.2116C24.5694 14.8982 24.8594 15.1882 24.8594 15.5459C24.8594 15.9037 24.5694 16.1936 24.2116 16.1936H19.677C19.3193 16.1936 19.0293 15.9037 19.0293 15.5459Z" fill="black"/>
<path fill-rule="evenodd" clip-rule="evenodd" d="M12.4512 15.507C12.4512 14.2124 13.5071 13.1707 14.7996 13.1707C16.0922 13.1707 17.1481 14.2124 17.1481 15.507C17.1481 16.8016 16.0922 17.8433 14.7996 17.8433C13.5071 17.8433 12.4512 16.8016 12.4512 15.507ZM14.7996 14.4661C14.2138 14.4661 13.7466 14.9366 13.7466 15.507C13.7466 16.0774 14.2138 16.5478 14.7996 16.5478C15.3855 16.5478 15.8527 16.0774 15.8527 15.507C15.8527 14.9366 15.3855 14.4661 14.7996 14.4661Z" fill="black"/>
<path fill-rule="evenodd" clip-rule="evenodd" d="M20.5645 22.4935C20.5645 21.1988 21.6205 20.1572 22.9135 20.1572C24.2063 20.1572 25.2614 21.1993 25.2614 22.4935C25.2614 23.7878 24.2063 24.8299 22.9135 24.8299C21.6205 24.8299 20.5645 23.7883 20.5645 22.4935ZM22.9135 21.4527C22.3269 21.4527 21.8599 21.9233 21.8599 22.4935C21.8599 23.0638 22.3269 23.5344 22.9135 23.5344C23.4991 23.5344 23.9659 23.0642 23.9659 22.4935C23.9659 21.9229 23.4991 21.4527 22.9135 21.4527Z" fill="black"/>
</svg>
