<svg width="38" height="38" viewBox="0 0 38 38" fill="none" xmlns="http://www.w3.org/2000/svg">
<rect x="29.5" y="2.5" width="7" height="7" rx="3.5" fill="#FD55D3"/>
<rect x="29.5" y="2.5" width="7" height="7" rx="3.5" stroke="white"/>
<mask id="path-2-inside-1_401_50427" fill="white">
<path fill-rule="evenodd" clip-rule="evenodd" d="M19 38C29.4934 38 38 29.4934 38 19C38 16.6699 37.5806 14.4378 36.8131 12.375H32.4785C29.1648 12.375 26.4785 9.68871 26.4785 6.375V1.52838C24.1833 0.544673 21.6553 0 19 0C8.50659 0 0 8.50659 0 19C0 29.4934 8.50659 38 19 38Z"/>
</mask>
<path fill-rule="evenodd" clip-rule="evenodd" d="M19 38C29.4934 38 38 29.4934 38 19C38 16.6699 37.5806 14.4378 36.8131 12.375H32.4785C29.1648 12.375 26.4785 9.68871 26.4785 6.375V1.52838C24.1833 0.544673 21.6553 0 19 0C8.50659 0 0 8.50659 0 19C0 29.4934 8.50659 38 19 38Z" fill="white"/>
<path d="M36.8131 12.375L37.7503 12.0263L37.508 11.375H36.8131V12.375ZM26.4785 1.52838H27.4785V0.869003L26.8724 0.609248L26.4785 1.52838ZM37 19C37 28.9411 28.9411 37 19 37V39C30.0457 39 39 30.0457 39 19H37ZM35.8758 12.7237C36.6024 14.6766 37 16.7907 37 19H39C39 16.5491 38.5587 14.199 37.7503 12.0263L35.8758 12.7237ZM36.8131 11.375H32.4785V13.375H36.8131V11.375ZM32.4785 11.375C29.7171 11.375 27.4785 9.13642 27.4785 6.375H25.4785C25.4785 10.241 28.6125 13.375 32.4785 13.375V11.375ZM27.4785 6.375V1.52838H25.4785V6.375H27.4785ZM19 1C21.5174 1 23.9116 1.51618 26.0846 2.44752L26.8724 0.609248C24.455 -0.426834 21.7932 -1 19 -1V1ZM1 19C1 9.05888 9.05888 1 19 1V-1C7.95431 -1 -1 7.95431 -1 19H1ZM19 37C9.05888 37 1 28.9411 1 19H-1C-1 30.0457 7.95431 39 19 39V37Z" fill="#EAECF0" mask="url(#path-2-inside-1_401_50427)"/>
<path fill-rule="evenodd" clip-rule="evenodd" d="M12.6172 22.5218C12.6172 22.164 12.9072 21.874 13.2649 21.874H17.7995C18.1573 21.874 18.4472 22.164 18.4472 22.5218C18.4472 22.8795 18.1573 23.1695 17.7995 23.1695H13.2649C12.9072 23.1695 12.6172 22.8795 12.6172 22.5218Z" fill="black"/>
<path fill-rule="evenodd" clip-rule="evenodd" d="M19.1738 15.5462C19.1738 15.1884 19.4638 14.8984 19.8216 14.8984H24.3562C24.7139 14.8984 25.0039 15.1884 25.0039 15.5462C25.0039 15.9039 24.7139 16.1939 24.3562 16.1939H19.8216C19.4638 16.1939 19.1738 15.9039 19.1738 15.5462Z" fill="black"/>
<path fill-rule="evenodd" clip-rule="evenodd" d="M12.5957 15.5072C12.5957 14.2126 13.6516 13.1709 14.9442 13.1709C16.2367 13.1709 17.2927 14.2126 17.2927 15.5072C17.2927 16.8018 16.2367 17.8435 14.9442 17.8435C13.6516 17.8435 12.5957 16.8018 12.5957 15.5072ZM14.9442 14.4664C14.3583 14.4664 13.8912 14.9368 13.8912 15.5072C13.8912 16.0776 14.3583 16.5481 14.9442 16.5481C15.53 16.5481 15.9972 16.0776 15.9972 15.5072C15.9972 14.9368 15.53 14.4664 14.9442 14.4664Z" fill="black"/>
<path fill-rule="evenodd" clip-rule="evenodd" d="M20.709 22.4938C20.709 21.1991 21.7651 20.1575 23.058 20.1575C24.3509 20.1575 25.4059 21.1995 25.4059 22.4938C25.4059 23.7881 24.3509 24.8301 23.058 24.8301C21.7651 24.8301 20.709 23.7885 20.709 22.4938ZM23.058 21.4529C22.4715 21.4529 22.0044 21.9236 22.0044 22.4938C22.0044 23.064 22.4715 23.5347 23.058 23.5347C23.6436 23.5347 24.1105 23.0645 24.1105 22.4938C24.1105 21.9231 23.6436 21.4529 23.058 21.4529Z" fill="black"/>
</svg>
