<svg width="25" height="24" viewBox="0 0 25 24" fill="none" xmlns="http://www.w3.org/2000/svg">
<g id="Bold/Folder">
<path id="Vector" d="M9.25488 2C9.87511 2 10.1856 1.99975 10.4688 2.05469C11.187 2.19416 11.8295 2.59175 12.2754 3.17188C12.4511 3.4005 12.5899 3.67779 12.8672 4.23242C13.052 4.6021 13.1446 4.78706 13.2617 4.93945C13.559 5.32627 13.9879 5.59163 14.4668 5.68457C14.6554 5.72112 14.8622 5.7207 15.2754 5.7207H15.8496C18.0898 5.7207 19.2108 5.72125 20.0664 6.15723C20.8188 6.54074 21.431 7.1528 21.8145 7.90527C22.2502 8.76087 22.25 9.88126 22.25 12.1211V15.5996C22.25 17.8398 22.2504 18.9608 21.8145 19.8164C21.431 20.5689 20.8189 21.181 20.0664 21.5645C19.2108 22.0004 18.0898 22 15.8496 22H8.65039C6.41018 22 5.28924 22.0004 4.43359 21.5645C3.68109 21.181 3.06902 20.5689 2.68555 19.8164C2.24957 18.9608 2.25 17.8398 2.25 15.5996V6.7998C2.25 5.11978 2.25018 4.27941 2.57715 3.6377C2.86472 3.07347 3.32347 2.61472 3.8877 2.32715C4.52941 2.00018 5.36978 2 7.0498 2H9.25488Z" fill="#9AA0A6"/>
</g>
</svg>
