<svg width="13" height="13" viewBox="0 0 13 13" fill="none" xmlns="http://www.w3.org/2000/svg">
<path fill-rule="evenodd" clip-rule="evenodd" d="M1.74561 3.12919C1.71094 3.31298 1.71094 3.53361 1.71094 3.97487V5.125H11.6875C11.6514 4.60059 11.5596 4.25638 11.3262 3.99692C11.2908 3.95757 11.2534 3.92012 11.214 3.88473C10.7863 3.5 10.1282 3.5 8.81199 3.5H8.62515C8.04831 3.5 7.75989 3.5 7.49111 3.42339C7.34347 3.3813 7.20116 3.32236 7.067 3.24771C6.82277 3.11183 6.61883 2.90789 6.21094 2.5L5.93581 2.22487C5.7991 2.08816 5.73074 2.01981 5.65891 1.96026C5.3492 1.70352 4.96926 1.54614 4.56872 1.50869C4.47582 1.5 4.37915 1.5 4.18581 1.5C3.74455 1.5 3.52391 1.5 3.34013 1.53468C2.53109 1.68732 1.89826 2.32015 1.74561 3.12919ZM11.7098 5.875H1.71094V7.5C1.71094 9.38562 1.71094 10.3284 2.29672 10.9142C2.88251 11.5 3.82532 11.5 5.71094 11.5H7.71094C9.59656 11.5 10.5394 11.5 11.1252 10.9142C11.7109 10.3284 11.7109 9.38562 11.7109 7.5V6.39895C11.7109 6.21134 11.7098 5.875 11.7098 5.875Z" fill="white"/>
</svg>
