<svg width="24" height="24" viewBox="0 0 24 24" fill="none" xmlns="http://www.w3.org/2000/svg">
<path fill-rule="evenodd" clip-rule="evenodd" d="M3.63803 2.32698C4.27976 2 5.11984 2 6.8 2H9.00487C9.62511 2 9.93523 2 10.2183 2.05494C10.9367 2.19435 11.5794 2.59154 12.0254 3.17176C12.2011 3.40042 12.3398 3.67779 12.6172 4.23255L12.6172 4.23257C12.8021 4.6024 12.8946 4.78732 13.0118 4.93975C13.3091 5.32656 13.7375 5.59136 14.2165 5.6843C14.4052 5.72092 14.612 5.72092 15.0254 5.72092H15.6C17.8402 5.72092 18.9603 5.72092 19.8159 6.1569C20.5686 6.54039 21.1805 7.15231 21.564 7.90496C22 8.76061 22 9.88071 22 12.1209V15.6C22 17.8402 22 18.9603 21.564 19.8159C21.1805 20.5686 20.5686 21.1805 19.8159 21.564C18.9603 22 17.8402 22 15.6 22H8.4C6.15979 22 5.03969 22 4.18404 21.564C3.43139 21.1805 2.81947 20.5686 2.43597 19.8159C2 18.9603 2 17.8402 2 15.6V6.8C2 5.11984 2 4.27976 2.32698 3.63803C2.6146 3.07354 3.07354 2.6146 3.63803 2.32698ZM12.75 11.0698C12.75 10.6555 12.4142 10.3198 12 10.3198C11.5858 10.3198 11.25 10.6555 11.25 11.0698V13.1104H9.20929C8.79508 13.1104 8.45929 13.4462 8.45929 13.8604C8.45929 14.2747 8.79508 14.6104 9.20929 14.6104H11.25V16.6511C11.25 17.0654 11.5858 17.4011 12 17.4011C12.4142 17.4011 12.75 17.0654 12.75 16.6511V14.6104H14.7907C15.2049 14.6104 15.5407 14.2747 15.5407 13.8604C15.5407 13.4462 15.2049 13.1104 14.7907 13.1104H12.75V11.0698Z" fill="white"/>
</svg>
