<svg width="24" height="24" viewBox="0 0 24 24" fill="none" xmlns="http://www.w3.org/2000/svg">
<path fill-rule="evenodd" clip-rule="evenodd" d="M14.2124 7.76241C14.2124 10.4062 12.049 12.5248 9.34935 12.5248C6.65072 12.5248 4.48633 10.4062 4.48633 7.76241C4.48633 5.11865 6.65072 3 9.34935 3C12.049 3 14.2124 5.11865 14.2124 7.76241ZM15.0365 11.4948C15.7605 10.4513 16.1734 9.19506 16.1734 7.84875C16.1734 6.44206 15.7233 5.13216 14.9396 4.05607C14.9141 4.02253 14.8956 3.97174 14.921 3.93246C14.9406 3.90179 14.9797 3.88454 15.0159 3.87688C15.2801 3.82418 15.5511 3.79543 15.8339 3.79543C18.4415 3.79543 20.4885 6.19676 19.7909 8.87118C19.3202 10.6736 17.6167 11.8704 15.7184 11.8216C15.5276 11.8177 15.3408 11.7995 15.1588 11.7698C15.0276 11.7468 14.9611 11.6021 15.0365 11.4948Z" fill="white"/>
<path fill-rule="evenodd" clip-rule="evenodd" d="M19.3173 13.7022C20.5932 13.9465 21.4317 14.4439 21.7791 15.1693C22.0736 15.7634 22.0736 16.4533 21.7791 17.0474C21.2478 18.1704 19.5335 18.5317 18.8672 18.6246C18.7292 18.6438 18.6186 18.5288 18.6333 18.3927C18.9738 15.2804 16.2664 13.8047 15.5658 13.4655C15.5364 13.4492 15.5296 13.4262 15.5325 13.4109C15.5345 13.4013 15.5472 13.386 15.5697 13.3831C17.0854 13.3544 18.7155 13.5585 19.3173 13.7022ZM2 17.9173C2 15.4699 5.38553 14.8576 9.34933 14.8576C13.3347 14.8576 16.6987 15.491 16.6987 17.9403C16.6987 20.3876 13.3131 20.9999 9.34933 20.9999C5.364 20.9999 2 20.3665 2 17.9173Z" fill="white"/>
</svg>
