<svg width="24" height="24" viewBox="0 0 24 24" fill="none" xmlns="http://www.w3.org/2000/svg">
<path fill-rule="evenodd" clip-rule="evenodd" d="M9 0.25C6.37665 0.25 4.25 2.37665 4.25 5C4.25 7.62335 6.37665 9.75 9 9.75C11.6234 9.75 13.75 7.62335 13.75 5C13.75 2.37665 11.6234 0.25 9 0.25ZM1.25 17.95C1.25 14.802 3.80198 12.25 6.95 12.25H11.05C14.198 12.25 16.75 14.802 16.75 17.95C16.75 20.0487 15.0487 21.75 12.95 21.75H5.05C2.95132 21.75 1.25 20.0487 1.25 17.95ZM23.5303 7.53033C23.8232 7.23744 23.8232 6.76256 23.5303 6.46967C23.2374 6.17678 22.7626 6.17678 22.4697 6.46967L19 9.93934L17.5303 8.46967C17.2374 8.17678 16.7626 8.17678 16.4697 8.46967C16.1768 8.76256 16.1768 9.23744 16.4697 9.53033L18.4697 11.5303C18.7626 11.8232 19.2374 11.8232 19.5303 11.5303L23.5303 7.53033Z" fill="white"/>
</svg>
