<svg width="24" height="24" viewBox="0 0 24 24" fill="none" xmlns="http://www.w3.org/2000/svg">
<path fill-rule="evenodd" clip-rule="evenodd" d="M7.52907 2H3.6C3.03995 2 2.75992 2 2.54601 2.10899C2.35785 2.20487 2.20487 2.35785 2.10899 2.54601C2 2.75992 2 3.03995 2 3.6V7.52907H7.52907L7.52907 2ZM2 9.02907V14.9709H7.52907V9.02907H2ZM2 16.4709V20.4C2 20.9601 2 21.2401 2.10899 21.454C2.20487 21.6422 2.35785 21.7951 2.54601 21.891C2.75992 22 3.03995 22 3.6 22H7.52907L7.52907 16.4709H2ZM9.02907 22H14.9709V16.4709H9.02907V22ZM16.4709 22H20.4C20.9601 22 21.2401 22 21.454 21.891C21.6422 21.7951 21.7951 21.6422 21.891 21.454C22 21.2401 22 20.9601 22 20.4V16.4709H16.4709V22ZM22 14.9709V9.02907H16.4709V14.9709H22ZM22 7.52907V3.6C22 3.03995 22 2.75992 21.891 2.54601C21.7951 2.35785 21.6422 2.20487 21.454 2.10899C21.2401 2 20.9601 2 20.4 2H16.4709V7.52907H22ZM14.9709 2H9.02907V7.52907H14.9709V2ZM9.02907 14.9709L9.02907 9.02907H14.9709V14.9709H9.02907Z" fill="white"/>
</svg>
