<svg width="24" height="24" viewBox="0 0 24 24" fill="none" xmlns="http://www.w3.org/2000/svg">
<path fill-rule="evenodd" clip-rule="evenodd" d="M7.66618 22.0002H16.3328C19.7231 22.0002 22 19.6231 22 16.0845V7.91697C22 4.37836 19.7231 2.00024 16.3338 2.00024H7.66618C4.2769 2.00024 2 4.37836 2 7.91697V16.0845C2 19.6231 4.2769 22.0002 7.66618 22.0002ZM8.76167 11.1607C10.1317 11.1607 11.2467 10.0457 11.2467 8.6757C11.2467 7.3057 10.1317 6.1897 8.76167 6.1897C7.39067 6.1897 6.27667 7.3057 6.27667 8.6757C6.27667 10.0457 7.39067 11.1607 8.76167 11.1607ZM19.912 14.8474C19.802 14.5724 19.635 14.3144 19.402 14.0884C18.791 13.4974 18.22 12.9454 17.541 12.5374C16.476 11.8894 15.652 12.7994 15.43 13.0904C15.2511 13.3254 15.0931 13.5807 14.9327 13.8399L14.9327 13.8399L14.9322 13.8406C14.901 13.8911 14.8696 13.9417 14.838 13.9924L14.8285 14.0077C14.3568 14.7682 13.8148 15.6418 12.881 16.1524C11.515 16.8884 10.478 16.2104 9.73204 15.7164C9.45204 15.5324 9.18004 15.3574 8.90904 15.2414C8.24104 14.9604 7.64004 15.2804 6.74804 16.3844C6.28004 16.9614 5.81604 17.5334 5.34604 18.1034C5.06504 18.4454 5.13204 18.9704 5.51104 19.1984C6.11604 19.5624 6.85404 19.7564 7.68804 19.7564H16.069C16.542 19.7564 17.016 19.6944 17.468 19.5494C18.486 19.2254 19.294 18.4844 19.716 17.5034C20.072 16.6794 20.245 15.6794 19.912 14.8474Z" fill="white"/>
</svg>
