<svg width="24" height="24" viewBox="0 0 24 24" fill="none" xmlns="http://www.w3.org/2000/svg">
<path fill-rule="evenodd" clip-rule="evenodd" d="M7.34508 8.49155C7.12023 8.8229 7.00003 9.21411 7.00003 9.61455L7 20.5C7 21.0523 7.44771 21.5 8 21.5H18.5C19.0523 21.5 19.5 21.0523 19.5 20.5V17.95C20.6411 17.7184 21.5 16.7095 21.5 15.5C21.5 14.7846 21.1995 14.1395 20.7179 13.6838C21.4828 13.2563 22 12.4385 22 11.5C22 10.1193 20.8807 9 19.5 9H16C15.9953 9 15.9905 9.00001 15.9858 9.00004H12.9L13.7351 6.21635C14.0523 5.15925 13.7634 4.01339 12.983 3.23299L12.1777 2.42772C11.9558 2.20579 11.5866 2.24082 11.4104 2.50052L7.34508 8.49155ZM3.5 9.5H5.5V21.5H3.5C2.67157 21.5 2 20.8284 2 20V11C2 10.1716 2.67157 9.5 3.5 9.5Z" fill="white"/>
</svg>
