<svg width="24" height="24" viewBox="0 0 24 24" fill="none" xmlns="http://www.w3.org/2000/svg">
<g clip-path="url(#clip0_181_33235)">
<g filter="url(#filter0_d_181_33235)">
<path fill-rule="evenodd" clip-rule="evenodd" d="M11.9922 1.25C11.9231 1.25 11.879 1.25 11.8404 1.25063C9.27739 1.29222 7.2097 3.35991 7.16811 5.92293C7.16748 5.96155 7.16748 6.00555 7.16748 6.07477V7.27921C6.29359 7.32191 5.69218 7.42706 5.18404 7.68597C4.43139 8.06947 3.81947 8.68139 3.43597 9.43404C3 10.2897 3 11.4098 3 13.65V16.35C3 18.5902 3 19.7103 3.43597 20.566C3.81947 21.3186 4.43139 21.9305 5.18404 22.314C6.03969 22.75 7.15979 22.75 9.4 22.75H14.6C16.8402 22.75 17.9603 22.75 18.816 22.314C19.5686 21.9305 20.1805 21.3186 20.564 20.566C21 19.7103 21 18.5902 21 16.35V13.65C21 11.4098 21 10.2897 20.564 9.43404C20.1805 8.68139 19.5686 8.06947 18.816 7.68597C18.3079 7.42709 17.7065 7.32193 16.8328 7.27922V6.0748C16.8328 6.00563 16.8328 5.96153 16.8321 5.92293C16.7905 3.35991 14.7229 1.29222 12.1598 1.25063C12.1212 1.25 12.0772 1.25 12.008 1.25L11.9922 1.25ZM15.3328 7.25067V6.08264C15.3328 6.00297 15.3327 5.9721 15.3323 5.94727C15.3039 4.19362 13.8891 2.77889 12.1355 2.75043C12.1107 2.75003 12.0798 2.75 12.0001 2.75C11.9204 2.75 11.8896 2.75003 11.8647 2.75043C10.1111 2.77889 8.69637 4.19362 8.66791 5.94727C8.66751 5.9721 8.66748 6.00297 8.66748 6.08264V7.25067C8.8976 7.25 9.14133 7.25 9.4 7.25H14.6C14.8588 7.25 15.1026 7.25 15.3328 7.25067ZM12 13.25C12.3824 13.25 12.6923 13.56 12.6923 13.9423V16.0577C12.6923 16.44 12.3824 16.75 12 16.75C11.6176 16.75 11.3077 16.44 11.3077 16.0577V13.9423C11.3077 13.56 11.6176 13.25 12 13.25Z" fill="white"/>
</g>
</g>
<defs>
<filter id="filter0_d_181_33235" x="1" y="-0.75" width="22" height="25.5" filterUnits="userSpaceOnUse" color-interpolation-filters="sRGB">
<feFlood flood-opacity="0" result="BackgroundImageFix"/>
<feColorMatrix in="SourceAlpha" type="matrix" values="0 0 0 0 0 0 0 0 0 0 0 0 0 0 0 0 0 0 127 0" result="hardAlpha"/>
<feOffset/>
<feGaussianBlur stdDeviation="1"/>
<feComposite in2="hardAlpha" operator="out"/>
<feColorMatrix type="matrix" values="0 0 0 0 0.172549 0 0 0 0 0.192157 0 0 0 0 0.192157 0 0 0 0.3 0"/>
<feBlend mode="normal" in2="BackgroundImageFix" result="effect1_dropShadow_181_33235"/>
<feBlend mode="normal" in="SourceGraphic" in2="effect1_dropShadow_181_33235" result="shape"/>
</filter>
<clipPath id="clip0_181_33235">
<rect width="24" height="24" fill="white"/>
</clipPath>
</defs>
</svg>
