<svg width="24" height="24" viewBox="0 0 24 24" fill="none" xmlns="http://www.w3.org/2000/svg">
<g id="Name=Messenger">
<path id="Subtract" fill-rule="evenodd" clip-rule="evenodd" d="M12 1.25C6.15193 1.25 1.25 5.5837 1.25 11.1256C1.25 14.2565 2.83237 17.006 5.24861 18.7989C5.24846 19.2632 5.24883 19.7873 5.24923 20.3465V20.3468V20.347V20.3472C5.2496 20.8739 5.25 21.4318 5.25 22C5.25 22.2596 5.38422 22.5007 5.60484 22.6375C5.82547 22.7742 6.10112 22.7872 6.3336 22.6717L10.0341 20.8339C10.6713 20.9426 11.3275 21.0012 12 21.0012C17.8481 21.0012 22.75 16.6675 22.75 11.1256C22.75 5.5837 17.8481 1.25 12 1.25ZM17.1949 10.128C17.5263 9.87953 17.5935 9.40944 17.345 9.07805C17.0965 8.74666 16.6264 8.67946 16.295 8.92796L12.9651 11.425L11.7616 9.63286C11.6469 9.4621 11.4671 9.34594 11.2643 9.31155C11.0615 9.27717 10.8535 9.32758 10.6889 9.451L6.80493 12.364C6.47356 12.6125 6.4064 13.0826 6.65493 13.414C6.90346 13.7454 7.37356 13.8125 7.70493 13.564L10.9568 11.1251L12.1603 12.9171C12.275 13.0879 12.4547 13.204 12.6575 13.2384C12.8603 13.2728 13.0683 13.2224 13.2329 13.099L17.1949 10.128Z" fill="white"/>
</g>
</svg>
