<svg width="25" height="24" viewBox="0 0 25 24" fill="none" xmlns="http://www.w3.org/2000/svg">
<path d="M4.25 5L4.25 19" stroke="white" stroke-width="3" stroke-linecap="round" stroke-linejoin="round"/>
<path d="M17.3204 18.8304C18.9264 19.8628 19.7293 20.379 20.3934 20.3316C20.972 20.2903 21.5042 19.9997 21.8519 19.5353C22.2509 19.0024 22.2509 18.0478 22.2509 16.1387V7.86133C22.2509 5.95219 22.2509 4.99762 21.8519 4.46471C21.5042 4.0003 20.972 3.70974 20.3934 3.66841C19.7293 3.62099 18.9264 4.13718 17.3204 5.16956L10.8825 9.30823C9.48897 10.2041 8.7922 10.652 8.55154 11.2216C8.34126 11.7192 8.34126 12.2808 8.55154 12.7784C8.7922 13.348 9.48897 13.7959 10.8825 14.6918L17.3204 18.8304Z" fill="white"/>
</svg>
