<svg width="25" height="24" viewBox="0 0 25 24" fill="none" xmlns="http://www.w3.org/2000/svg">
<path d="M21.25 5V19" stroke="white" stroke-width="3" stroke-linecap="round" stroke-linejoin="round"/>
<path d="M7.18042 18.8304C5.5745 19.8628 4.77153 20.379 4.10752 20.3316C3.52885 20.2903 2.99665 19.9997 2.64897 19.5353C2.25 19.0024 2.25 18.0478 2.25 16.1387V7.86133C2.25 5.95219 2.25 4.99762 2.64897 4.46471C2.99665 4.0003 3.52885 3.70974 4.10752 3.66841C4.77153 3.62099 5.5745 4.13718 7.18043 5.16956L13.6184 9.30823C15.0119 10.2041 15.7087 10.652 15.9493 11.2216C16.1596 11.7192 16.1596 12.2808 15.9493 12.7784C15.7087 13.348 15.0119 13.7959 13.6184 14.6918L7.18042 18.8304Z" fill="white"/>
</svg>
