<svg width="21" height="21" viewBox="0 0 21 21" fill="none" xmlns="http://www.w3.org/2000/svg">
<g id="Icons/ Bold / ?">
<path id="Vector" d="M10.0374 2.35156C5.44244 2.35156 1.7041 6.0899 1.7041 10.6849C1.7041 15.2799 5.44244 19.0182 10.0374 19.0182C14.6324 19.0182 18.3708 15.2799 18.3708 10.6849C18.3708 6.0899 14.6324 2.35156 10.0374 2.35156Z" fill="#BDC1C6"/>
<path id="?" d="M8.82734 12.6408V12.4791C8.83064 11.924 8.88178 11.4816 8.98077 11.1518C9.08305 10.8219 9.23153 10.5555 9.4262 10.3525C9.62087 10.1495 9.85514 9.9656 10.129 9.80068C10.3336 9.67381 10.5167 9.54219 10.6784 9.40581C10.84 9.26943 10.9687 9.11879 11.0644 8.95386C11.1601 8.78577 11.2079 8.59865 11.2079 8.39249C11.2079 8.17365 11.1535 7.98177 11.0446 7.81685C10.9357 7.65193 10.7889 7.52506 10.6041 7.43626C10.4227 7.34746 10.2214 7.30305 10.0003 7.30305C9.78585 7.30305 9.58293 7.34904 9.39155 7.44102C9.20018 7.52982 9.04346 7.66303 8.92137 7.84064C8.79929 8.01507 8.7333 8.23233 8.7234 8.4924H6.7041C6.7206 7.85808 6.87898 7.33477 7.17923 6.92246C7.47949 6.50699 7.87708 6.19776 8.37201 5.99478C8.86693 5.78862 9.413 5.68555 10.0102 5.68555C10.6668 5.68555 11.2475 5.79021 11.7524 5.99953C12.2572 6.20569 12.6531 6.5054 12.9402 6.89868C13.2272 7.29195 13.3708 7.7661 13.3708 8.32113C13.3708 8.69221 13.3064 9.02205 13.1777 9.31067C13.0524 9.59611 12.8758 9.84983 12.6482 10.0718C12.4205 10.2907 12.1516 10.4889 11.8414 10.6665C11.5808 10.8156 11.3663 10.971 11.198 11.1327C11.0331 11.2945 10.9093 11.4816 10.8268 11.6941C10.7477 11.9066 10.7064 12.1683 10.7031 12.4791V12.6408H8.82734ZM9.80729 15.6855C9.47734 15.6855 9.19523 15.5745 8.96097 15.3525C8.73 15.1273 8.61617 14.8578 8.61947 14.5438C8.61617 14.233 8.73 13.9665 8.96097 13.7445C9.19523 13.5225 9.47734 13.4115 9.80729 13.4115C10.1207 13.4115 10.3963 13.5225 10.6338 13.7445C10.8714 13.9665 10.9918 14.233 10.9951 14.5438C10.9918 14.7531 10.9341 14.945 10.8219 15.1194C10.713 15.2907 10.5695 15.4286 10.3913 15.5333C10.2131 15.6348 10.0185 15.6855 9.80729 15.6855Z" fill="white"/>
</g>
</svg>
