<svg width="21" height="20" viewBox="0 0 21 20" fill="none" xmlns="http://www.w3.org/2000/svg">
<path d="M10.1582 20C11.4717 20.0017 12.7725 19.7438 13.986 19.2411C15.1995 18.7385 16.3017 18.001 17.2292 17.071C18.1592 16.1435 18.8967 15.0413 19.3994 13.8278C19.902 12.6143 20.1599 11.3135 20.1582 10C20.1599 8.68654 19.902 7.38569 19.3993 6.17222C18.8967 4.95874 18.1592 3.85656 17.2292 2.92901C16.3017 1.99902 15.1995 1.26151 13.986 0.75885C12.7725 0.256194 11.4717 -0.00169347 10.1582 8.36827e-06C8.84474 -0.00166607 7.5439 0.256234 6.33042 0.758889C5.11694 1.26154 4.01476 1.99904 3.08721 2.92901C2.15725 3.85656 1.41975 4.95874 0.917092 6.17222C0.414437 7.38569 0.156537 8.68654 0.158211 10C0.15651 11.3135 0.414397 12.6143 0.917054 13.8278C1.41971 15.0413 2.15722 16.1435 3.08721 17.071C4.01476 18.001 5.11694 18.7385 6.33042 19.2411C7.5439 19.7438 8.84474 20.0017 10.1582 20Z" fill="black"/>
<path d="M5.6582 10L8.6582 13L14.6582 7" fill="black"/>
<path d="M5.6582 10L8.6582 13L14.6582 7" stroke="white" stroke-width="2" stroke-linecap="round" stroke-linejoin="round"/>
</svg>
