<svg width="24" height="24" viewBox="0 0 24 24" fill="none" xmlns="http://www.w3.org/2000/svg">
<path fill-rule="evenodd" clip-rule="evenodd" d="M6.25 7C6.25 3.82436 8.82436 1.25 12 1.25C15.1756 1.25 17.75 3.82436 17.75 7V11C17.75 14.1756 15.1756 16.75 12 16.75C8.82436 16.75 6.25 14.1756 6.25 11V7ZM4.75 11C4.75 10.5858 4.41421 10.25 4 10.25C3.58579 10.25 3.25 10.5858 3.25 11C3.25 13.7476 4.51136 15.944 6.22041 17.4394C7.69694 18.7314 9.53571 19.5261 11.25 19.7092V22C11.25 22.4142 11.5858 22.75 12 22.75C12.4142 22.75 12.75 22.4142 12.75 22V19.7092C14.4643 19.5261 16.3031 18.7314 17.7796 17.4394C19.4886 15.944 20.75 13.7476 20.75 11C20.75 10.5858 20.4142 10.25 20 10.25C19.5858 10.25 19.25 10.5858 19.25 11C19.25 13.2524 18.2256 15.056 16.7918 16.3106C15.3436 17.5778 13.5154 18.25 12 18.25C10.4846 18.25 8.65637 17.5778 7.20816 16.3106C5.77436 15.056 4.75 13.2524 4.75 11Z" fill="white"/>
</svg>
