<svg width="25" height="24" viewBox="0 0 25 24" fill="none" xmlns="http://www.w3.org/2000/svg">
<g id="Icons / Bold / Reward">
<path id="Vector" fill-rule="evenodd" clip-rule="evenodd" d="M6.9502 4.5C6.9502 3.5335 7.7337 2.75 8.7002 2.75H8.78043C9.58867 2.75 10.3012 3.28016 10.5335 4.05432L11.1922 6.25H8.7002C7.7337 6.25 6.9502 5.4665 6.9502 4.5ZM5.9611 6.25C5.63769 5.74485 5.4502 5.14432 5.4502 4.5C5.4502 2.70507 6.90527 1.25 8.7002 1.25H8.78043C10.2511 1.25 11.5476 2.21466 11.9702 3.6233L12.2002 4.38992L12.4302 3.6233C12.8528 2.21466 14.1493 1.25 15.62 1.25H15.7002C17.4951 1.25 18.9502 2.70507 18.9502 4.5C18.9502 5.14432 18.7627 5.74485 18.4393 6.25H20.7002C21.9428 6.25 22.9502 7.25736 22.9502 8.5C22.9502 9.74264 21.9428 10.75 20.7002 10.75H3.7002C2.45755 10.75 1.4502 9.74264 1.4502 8.5C1.4502 7.25736 2.45755 6.25 3.7002 6.25H5.9611ZM15.7002 6.25C16.6667 6.25 17.4502 5.4665 17.4502 4.5C17.4502 3.5335 16.6667 2.75 15.7002 2.75H15.62C14.8117 2.75 14.0992 3.28016 13.8669 4.05432L13.2082 6.25H15.7002ZM11.4497 12.7282C11.4502 12.7391 11.4502 12.752 11.4502 12.7778V16.25C11.4502 16.6642 11.786 17 12.2002 17C12.6144 17 12.9502 16.6642 12.9502 16.25V12.7778C12.9502 12.752 12.9502 12.7391 12.9507 12.7282C12.962 12.4692 13.1694 12.2618 13.4284 12.2505C13.4393 12.25 13.4522 12.25 13.478 12.25H20.1502C20.4302 12.25 20.5702 12.25 20.6772 12.3045C20.7713 12.3524 20.8478 12.4289 20.8957 12.523C20.9502 12.63 20.9502 12.77 20.9502 13.05V16.35C20.9502 18.5902 20.9502 19.7103 20.5142 20.566C20.1307 21.3186 19.5188 21.9305 18.7662 22.314C17.9105 22.75 16.7904 22.75 14.5502 22.75H9.85019C7.60999 22.75 6.48988 22.75 5.63423 22.314C4.88158 21.9305 4.26966 21.3186 3.88617 20.566C3.4502 19.7103 3.4502 18.5902 3.4502 16.35V13.05C3.4502 12.77 3.4502 12.63 3.50469 12.523C3.55263 12.4289 3.62912 12.3524 3.7232 12.3045C3.83016 12.25 3.97017 12.25 4.2502 12.25H10.9224C10.9482 12.25 10.9611 12.25 10.972 12.2505C11.231 12.2618 11.4384 12.4692 11.4497 12.7282Z" fill="white"/>
</g>
</svg>
