<svg width="24" height="24" viewBox="0 0 24 24" fill="none" xmlns="http://www.w3.org/2000/svg">
<path d="M7.32833 12.1912C4.19286 10.9852 2.62513 10.3822 2.23082 9.57257C1.88978 8.8723 1.92869 8.04659 2.33406 7.38149C2.80275 6.61249 4.42023 6.1596 7.6552 5.25381L16.7965 2.69423C18.8447 2.12076 19.8687 1.83402 20.5714 2.10016C21.1841 2.3322 21.6678 2.81592 21.8999 3.42861C22.166 4.13133 21.8793 5.15539 21.3058 7.20351L18.7461 16.3448C17.8403 19.5798 17.3874 21.1973 16.6184 21.666C15.9533 22.0713 15.1276 22.1102 14.4273 21.7692C13.6177 21.3748 13.0147 19.8071 11.8088 16.6716L11.1752 15.0241C11.0516 14.7028 10.9898 14.5422 10.9864 14.3825C10.9834 14.2414 11.0131 14.1015 11.0732 13.9737C11.1411 13.8292 11.2628 13.7075 11.5062 13.4641L13.8387 11.1316C14.1066 10.8637 14.1066 10.4294 13.8387 10.1616C13.5708 9.89368 13.1365 9.89368 12.8687 10.1616L10.5363 12.4939C10.2929 12.7373 10.1712 12.859 10.0267 12.927C9.89892 12.9871 9.759 13.0168 9.61785 13.0137C9.45818 13.0103 9.29754 12.9485 8.97626 12.825L7.32833 12.1912Z" fill="white"/>
</svg>
