<svg width="24" height="24" viewBox="0 0 24 24" fill="none" xmlns="http://www.w3.org/2000/svg">
<path fill-rule="evenodd" clip-rule="evenodd" d="M3.62891 1.94751C3.21469 1.94751 2.87891 2.2833 2.87891 2.69751C2.87891 3.11172 3.21469 3.44751 3.62891 3.44751H20.3731C20.7873 3.44751 21.1231 3.11172 21.1231 2.69751C21.1231 2.2833 20.7873 1.94751 20.3731 1.94751H3.62891ZM3.62891 20.5522C3.21469 20.5522 2.87891 20.8879 2.87891 21.3022C2.87891 21.7164 3.21469 22.0522 3.62891 22.0522H20.3731C20.7873 22.0522 21.1231 21.7164 21.1231 21.3022C21.1231 20.8879 20.7873 20.5522 20.3731 20.5522H3.62891ZM4.56926 6.04775C5.211 5.72077 6.05107 5.72077 7.73123 5.72077H16.2708C17.9509 5.72077 18.791 5.72077 19.4327 6.04775C19.9972 6.33537 20.4562 6.79431 20.7438 7.35879C21.0708 8.00053 21.0708 8.84061 21.0708 10.5208V13.4789C21.0708 15.1591 21.0708 15.9991 20.7438 16.6409C20.4562 17.2054 19.9972 17.6643 19.4327 17.9519C18.791 18.2789 17.9509 18.2789 16.2708 18.2789H7.73123C6.05107 18.2789 5.211 18.2789 4.56926 17.9519C4.00477 17.6643 3.54583 17.2054 3.25821 16.6409C2.93123 15.9991 2.93123 15.1591 2.93123 13.4789V10.5208C2.93123 8.84061 2.93123 8.00053 3.25821 7.35879C3.54583 6.79431 4.00477 6.33537 4.56926 6.04775Z" fill="white"/>
</svg>
