<svg width="24" height="24" viewBox="0 0 24 24" fill="none" xmlns="http://www.w3.org/2000/svg">
<path d="M9 13.23C8.685 13.065 8.4 12.9 8.145 12.705C7.83 12.975 7.485 13.215 7.08 13.425C6.90072 13.5109 6.69487 13.5228 6.50686 13.4583C6.31885 13.3937 6.16375 13.2579 6.075 13.08C5.98954 12.9007 5.9778 12.695 6.0423 12.5071C6.10681 12.3192 6.24241 12.164 6.42 12.075C6.66 11.955 6.885 11.805 7.08 11.64C6.18 10.44 6.015 9.18 6 9.09C5.955 8.685 6.255 8.31 6.66 8.25C7.065 8.19 7.44 8.49 7.5 8.91C7.5 8.97 7.62 9.675 8.07 10.425C8.64 9.405 8.865 8.235 8.94 7.5H6.75C6.33 7.5 6 7.17 6 6.75C6 6.33 6.33 6 6.75 6H7.5C7.5 5.58 7.83 5.25 8.25 5.25C8.67 5.25 9 5.58 9 6H13.5V4.5C13.5 3.675 12.825 3 12 3H4.5C3.675 3 3 3.675 3 4.5V15C3 15.825 3.675 16.5 4.5 16.5H9V13.23ZM19.5 7.5H12C11.175 7.5 10.5 8.175 10.5 9V19.5C10.5 20.325 11.175 21 12 21H19.5C20.325 21 21 20.325 21 19.5V9C21 8.175 20.325 7.5 19.5 7.5ZM18.3 17.94C18.2094 17.9797 18.1119 18.0011 18.013 18.003C17.9141 18.0049 17.8159 17.9872 17.7239 17.951C17.6318 17.9147 17.5479 17.8606 17.4769 17.7918C17.4059 17.723 17.3491 17.6408 17.31 17.55L16.86 16.5H14.64L14.19 17.55C14.025 17.925 13.59 18.105 13.2 17.94C13.0174 17.86 12.8738 17.711 12.8008 17.5255C12.7277 17.34 12.731 17.1331 12.81 16.95L15.06 11.7C15.3 11.145 16.2 11.145 16.44 11.7L18.69 16.95C18.855 17.34 18.675 17.775 18.3 17.94ZM15.285 15H16.215L15.75 13.905L15.285 15Z" fill="white"/>
</svg>
