<svg width="26" height="26" viewBox="0 0 26 26" fill="none" xmlns="http://www.w3.org/2000/svg">
<g id="Icons / Bold / Unlock">
<path id="Vector" fill-rule="evenodd" clip-rule="evenodd" d="M9.53672 24.4135C7.29651 24.4135 6.1764 24.4135 5.32076 23.9775C4.56811 23.594 3.95619 22.9821 3.57269 22.2295C3.13672 21.3738 3.13672 20.2537 3.13672 18.0135V14.6246C3.13672 12.3844 3.13672 11.2643 3.57269 10.4086C3.95619 9.656 4.56811 9.04408 5.32076 8.66058C6.1764 8.22461 7.29651 8.22461 9.53672 8.22461H15.5367C17.7769 8.22461 18.897 8.22461 19.7527 8.66058C20.5053 9.04408 21.1173 9.656 21.5007 10.4086C21.9367 11.2643 21.9367 12.3844 21.9367 14.6246V18.0135C21.9367 20.2537 21.9367 21.3738 21.5007 22.2295C21.1173 22.9821 20.5053 23.594 19.7527 23.9775C18.897 24.4135 17.7769 24.4135 15.5367 24.4135H9.53672ZM13.2598 15.2144C13.2598 14.815 12.9361 14.4913 12.5367 14.4913C12.1374 14.4913 11.8136 14.815 11.8136 15.2144V17.4238C11.8136 17.8231 12.1374 18.1468 12.5367 18.1468C12.9361 18.1468 13.2598 17.8231 13.2598 17.4238V15.2144Z" fill="white"/>
<path id="Vector_2" d="M8.27344 11.0977V7.00628C8.27344 6.92614 8.27344 6.88607 8.27399 6.85218C8.31057 4.59792 10.1292 2.77932 12.3834 2.74274C12.4173 2.74219 12.4574 2.74219 12.5375 2.74219H12.6238C14.0792 2.74219 15.3607 3.48631 16.1087 4.61483" stroke="white" stroke-width="1.5" stroke-linecap="round" stroke-linejoin="round"/>
</g>
</svg>
