<svg width="24" height="24" viewBox="0 0 24 24" fill="none" xmlns="http://www.w3.org/2000/svg">
<path fill-rule="evenodd" clip-rule="evenodd" d="M15.0233 3.6C15.0233 3.03995 15.0233 2.75992 14.9143 2.54601C14.8184 2.35785 14.6654 2.20487 14.4772 2.10899C14.2633 2 13.9833 2 13.4233 2H10.5767C10.0167 2 9.73667 2 9.52275 2.10899C9.33459 2.20487 9.18161 2.35785 9.08574 2.54601C8.97674 2.75992 8.97674 3.03995 8.97674 3.6V9.70233C8.97674 10.2624 8.97674 10.5424 9.08574 10.7563C9.18161 10.9445 9.33459 11.0975 9.52275 11.1933C9.73667 11.3023 10.0167 11.3023 10.5767 11.3023H13.4233C13.9833 11.3023 14.2633 11.3023 14.4772 11.1933C14.6654 11.0975 14.8184 10.9445 14.9143 10.7563C15.0233 10.5424 15.0233 10.2624 15.0233 9.70233V3.6ZM15.0233 14.2977C15.0233 13.7376 15.0233 13.4576 14.9143 13.2437C14.8184 13.0555 14.6654 12.9025 14.4772 12.8067C14.2633 12.6977 13.9833 12.6977 13.4233 12.6977H10.5767C10.0167 12.6977 9.73667 12.6977 9.52275 12.8067C9.33459 12.9025 9.18161 13.0555 9.08574 13.2437C8.97674 13.4576 8.97674 13.7376 8.97674 14.2977V20.4C8.97674 20.9601 8.97674 21.2401 9.08574 21.454C9.18161 21.6422 9.33459 21.7951 9.52275 21.891C9.73667 22 10.0167 22 10.5767 22H13.4233C13.9833 22 14.2633 22 14.4772 21.891C14.6654 21.7951 14.8184 21.6422 14.9143 21.454C15.0233 21.2401 15.0233 20.9601 15.0233 20.4V14.2977ZM18.0186 22C17.4586 22 17.1785 22 16.9646 21.891C16.7765 21.7951 16.6235 21.6422 16.5276 21.454C16.4186 21.2401 16.4186 20.9601 16.4186 20.4V14.2977C16.4186 13.7376 16.4186 13.4576 16.5276 13.2437C16.6235 13.0555 16.7765 12.9025 16.9646 12.8067C17.1785 12.6977 17.4586 12.6977 18.0186 12.6977H20.4C20.9601 12.6977 21.2401 12.6977 21.454 12.8067C21.6422 12.9025 21.7951 13.0555 21.891 13.2437C22 13.4576 22 13.7376 22 14.2977V20.4C22 20.9601 22 21.2401 21.891 21.454C21.7951 21.6422 21.6422 21.7951 21.454 21.891C21.2401 22 20.9601 22 20.4 22H18.0186ZM18.0186 11.3023C17.4586 11.3023 17.1785 11.3023 16.9646 11.1933C16.7765 11.0975 16.6235 10.9445 16.5276 10.7563C16.4186 10.5424 16.4186 10.2624 16.4186 9.70233V3.6C16.4186 3.03995 16.4186 2.75992 16.5276 2.54601C16.6235 2.35785 16.7765 2.20487 16.9646 2.10899C17.1785 2 17.4586 2 18.0186 2H20.4C20.9601 2 21.2401 2 21.454 2.10899C21.6422 2.20487 21.7951 2.35785 21.891 2.54601C22 2.75992 22 3.03995 22 3.6V9.70233C22 10.2624 22 10.5424 21.891 10.7563C21.7951 10.9445 21.6422 11.0975 21.454 11.1933C21.2401 11.3023 20.9601 11.3023 20.4 11.3023H18.0186ZM7.5814 3.6C7.5814 3.03995 7.5814 2.75992 7.4724 2.54601C7.37653 2.35785 7.22355 2.20487 7.03539 2.10899C6.82147 2 6.54145 2 5.98139 2H3.6C3.03995 2 2.75992 2 2.54601 2.10899C2.35785 2.20487 2.20487 2.35785 2.10899 2.54601C2 2.75992 2 3.03995 2 3.6V9.70233C2 10.2624 2 10.5424 2.10899 10.7563C2.20487 10.9445 2.35785 11.0975 2.54601 11.1933C2.75992 11.3023 3.03995 11.3023 3.6 11.3023H5.9814C6.54145 11.3023 6.82147 11.3023 7.03539 11.1933C7.22355 11.0975 7.37653 10.9445 7.4724 10.7563C7.5814 10.5424 7.5814 10.2624 7.5814 9.70233V3.6ZM3.6 22C3.03995 22 2.75992 22 2.54601 21.891C2.35785 21.7951 2.20487 21.6422 2.10899 21.454C2 21.2401 2 20.9601 2 20.4V14.2977C2 13.7376 2 13.4576 2.10899 13.2437C2.20487 13.0555 2.35785 12.9025 2.54601 12.8067C2.75992 12.6977 3.03995 12.6977 3.6 12.6977H5.9814C6.54145 12.6977 6.82147 12.6977 7.03539 12.8067C7.22355 12.9025 7.37653 13.0555 7.4724 13.2437C7.5814 13.4576 7.5814 13.7376 7.5814 14.2977V20.4C7.5814 20.9601 7.5814 21.2401 7.4724 21.454C7.37653 21.6422 7.22355 21.7951 7.03539 21.891C6.82147 22 6.54145 22 5.98139 22H3.6Z" fill="white"/>
</svg>
