<svg width="24" height="24" viewBox="0 0 24 24" fill="none" xmlns="http://www.w3.org/2000/svg">
<path d="M9.39453 1.75H14.8545V6.11H9.39453V1.75Z" fill="white"/>
<path d="M16.3555 6.11V1.75C19.4555 1.76 21.4855 3.36 21.9955 6.11H16.3555Z" fill="white"/>
<path fill-rule="evenodd" clip-rule="evenodd" d="M2.125 15.9404V7.61035H22.125V15.9404C22.125 19.5804 19.955 21.7504 16.315 21.7504H7.935C4.295 21.7504 2.125 19.5804 2.125 15.9404ZM14.9113 14.8226C15.5508 14.4329 15.5508 13.5044 14.9113 13.1147L10.8485 10.6388C10.1821 10.2326 9.32812 10.7123 9.32812 11.4927L9.32812 16.4446C9.32812 17.225 10.1821 17.7046 10.8485 17.2985L14.9113 14.8226Z" fill="white"/>
<path d="M2.25488 6.11C2.76488 3.36 4.79488 1.76 7.89488 1.75V6.11H2.25488Z" fill="white"/>
</svg>
