<svg width="21" height="20" viewBox="0 0 21 20" fill="none" xmlns="http://www.w3.org/2000/svg">
<g id="Icons / Bold / Video">
<g id="Union">
<path d="M8.45833 1.4585H13.0083V5.09183H8.45833V1.4585Z" fill="white"/>
<path d="M14.2591 5.09183V1.4585C16.8424 1.46683 18.5341 2.80016 18.9591 5.09183H14.2591Z" fill="white"/>
<path fill-rule="evenodd" clip-rule="evenodd" d="M2.40039 13.2838V6.34212H19.0671V13.2838C19.0671 16.3171 17.2587 18.1255 14.2254 18.1255H7.24206C4.20872 18.1255 2.40039 16.3171 2.40039 13.2838ZM13.0556 12.3523C13.5885 12.0275 13.5885 11.2538 13.0556 10.9291L9.67 8.86579C9.11468 8.52737 8.40299 8.92708 8.40299 9.57739L8.40299 13.704C8.40299 14.3543 9.11468 14.754 9.67 14.4156L13.0556 12.3523Z" fill="white"/>
<path d="M2.50863 5.09183C2.93363 2.80016 4.62529 1.46683 7.20863 1.4585V5.09183H2.50863Z" fill="white"/>
</g>
</g>
</svg>
