<svg width="24" height="24" viewBox="0 0 24 24" fill="none" xmlns="http://www.w3.org/2000/svg">
<path fill-rule="evenodd" clip-rule="evenodd" d="M13 6C13 4.89543 13.8954 4 15 4H18C19.1046 4 20 4.89543 20 6V9C20 10.1046 19.1046 11 18 11H15C13.8954 11 13 10.1046 13 9V6ZM4 15C4 13.8954 4.89543 13 6 13H9C10.1046 13 11 13.8954 11 15V18C11 19.1046 10.1046 20 9 20H6C4.89543 20 4 19.1046 4 18V15ZM15 13C13.8954 13 13 13.8954 13 15V18C13 19.1046 13.8954 20 15 20H18C19.1046 20 20 19.1046 20 18V15C20 13.8954 19.1046 13 18 13H15Z" fill="white"/>
<rect x="4" y="4" width="7" height="7" rx="2" fill="white"/>
</svg>
