<svg width="24" height="24" viewBox="0 0 24 24" fill="none" xmlns="http://www.w3.org/2000/svg">
<path d="M16.9994 9.99951C17.5972 10.3987 17.9994 11.1449 17.9994 11.9995C17.9994 12.3578 17.9287 12.6969 17.8026 12.9995M17.9994 5.99951C19.7928 7.19716 20.9994 9.43566 20.9994 11.9995C20.9994 13.0742 20.7873 14.0918 20.409 14.9995C20.2627 15.3503 20.0917 15.6846 19.8984 15.9995M13.9994 13.9995L13.9994 15.6912C13.9994 17.8495 13.9994 18.9286 13.7326 19.3919C13.2055 20.3074 12.0572 20.6551 11.1108 20.1857C10.6318 19.9482 10.0332 19.0503 8.83604 17.2545C8.59947 16.8997 8.48119 16.7222 8.33802 16.5801C8.06134 16.3055 7.71042 16.1177 7.32842 16.0398C7.13074 15.9995 6.91751 15.9995 6.49104 15.9995L5.19937 15.9995C4.07926 15.9995 3.51921 15.9995 3.09139 15.7815C2.71506 15.5898 2.4091 15.2838 2.21735 14.9075C2.09634 14.67 2.0425 14.3917 2.01856 13.9995M13.9994 13.9995L7.79983 7.79997M13.9994 13.9995L20.9994 20.9995M2.99937 2.99951L7.79983 7.79997M7.79983 7.79997C7.6507 7.8721 7.49242 7.92579 7.32842 7.95922C7.13074 7.99951 6.91751 7.99951 6.49104 7.99951L5.99937 7.99951C5.7183 7.99951 5.45126 7.99951 5.19848 7.99951C4.07897 7.99951 3.51921 7.99951 3.09139 8.2175C2.71506 8.40925 2.4091 8.71521 2.21735 9.09153C2.09634 9.32904 2.0425 9.6073 2.01856 9.99951M9.67203 5.49951C10.3427 4.51845 10.759 3.98775 11.1108 3.81329C12.0572 3.34394 13.2055 3.6916 13.7326 4.6071C13.9994 5.07042 13.9994 6.14956 13.9994 8.30783L13.9994 9.99951" stroke="#1A1A1A" stroke-width="1.5" stroke-linecap="round" stroke-linejoin="round"/>
</svg>
