<svg width="31" height="30" viewBox="0 0 31 30" fill="none" xmlns="http://www.w3.org/2000/svg">
<path d="M0.520752 15C0.520752 6.71573 7.23648 0 15.5208 0C23.805 0 30.5208 6.71573 30.5208 15C30.5208 23.2843 23.805 30 15.5208 30C7.23648 30 0.520752 23.2843 0.520752 15Z" fill="#040415"/>
<path d="M12.9089 13.6956C12.9709 13.3925 13.4039 13.3925 13.4658 13.6956C13.8459 15.5549 15.2989 17.008 17.1583 17.388C17.4614 17.45 17.4614 17.883 17.1583 17.945C15.2989 18.325 13.8459 19.7781 13.4658 21.6374C13.4039 21.9405 12.9709 21.9405 12.9089 21.6374C12.5289 19.7781 11.0758 18.325 9.21644 17.945C8.91337 17.883 8.91337 17.45 9.21644 17.388C11.0758 17.008 12.5289 15.5549 12.9089 13.6956Z" fill="white"/>
<path d="M20.1677 11.4302C20.1721 11.4087 20.2028 11.4087 20.2072 11.4302C20.4354 12.5465 21.3078 13.4189 22.4241 13.6471C22.4456 13.6515 22.4456 13.6822 22.4241 13.6866C21.3078 13.9148 20.4354 14.7872 20.2072 15.9035C20.2028 15.925 20.1721 15.925 20.1677 15.9035C19.9395 14.7872 19.0671 13.9148 17.9508 13.6866C17.9293 13.6822 17.9293 13.6515 17.9508 13.6471C19.0671 13.4189 19.9395 12.5465 20.1677 11.4302Z" fill="#9AA0A6"/>
<path d="M15.2082 7.86252C15.2778 7.52239 15.7637 7.52239 15.8333 7.86252C15.9868 8.61374 16.5739 9.20081 17.3251 9.35435C17.6652 9.42387 17.6652 9.90986 17.3251 9.97938C16.5739 10.1329 15.9868 10.72 15.8333 11.4712C15.7637 11.8113 15.2778 11.8113 15.2082 11.4712C15.0547 10.72 14.4676 10.1329 13.7164 9.97938C13.3763 9.90986 13.3763 9.42387 13.7164 9.35435C14.4676 9.20081 15.0547 8.61374 15.2082 7.86252Z" fill="#9AA0A6"/>
</svg>
