<svg width="25" height="24" viewBox="0 0 25 24" fill="none" xmlns="http://www.w3.org/2000/svg">
<path fill-rule="evenodd" clip-rule="evenodd" d="M12.2737 2C6.46366 2 2.25366 6.74 2.25366 12C2.25366 13.68 2.74366 15.41 3.60366 16.99C3.76366 17.25 3.78366 17.58 3.67366 17.89L3.00366 20.13C2.85366 20.67 3.31366 21.07 3.82366 20.91L5.84366 20.31C6.39366 20.13 6.82366 20.36 7.33466 20.67C8.79466 21.53 10.6137 21.97 12.2537 21.97C17.2137 21.97 22.2537 18.14 22.2537 11.97C22.2537 6.65 17.9537 2 12.2737 2Z" fill="#DADCE0"/>
<path fill-rule="evenodd" clip-rule="evenodd" d="M12.7533 12.4722V15.5047C12.7533 15.7782 12.5296 16 12.2537 16C11.9777 16 11.754 15.7782 11.754 15.5047V12.4722H8.70669C8.44928 12.4458 8.25366 12.2308 8.25366 11.9742C8.25366 11.7177 8.44928 11.5026 8.70669 11.4762H11.7486V8.4491C11.7753 8.19392 11.9922 8 12.251 8C12.5098 8 12.7267 8.19392 12.7533 8.4491V11.4762H15.8006C16.058 11.5026 16.2537 11.7177 16.2537 11.9742C16.2537 12.2308 16.058 12.4458 15.8006 12.4722H12.7533Z" fill="white"/>
</svg>
