<svg width="19" height="19" viewBox="0 0 19 19" fill="none" xmlns="http://www.w3.org/2000/svg">
<rect x="1.29541" y="1.35889" width="16" height="16" rx="8" fill="#BDC1C6"/>
<path fill-rule="evenodd" clip-rule="evenodd" d="M9.31725 10.1322L6.90497 12.5445C6.68734 12.7621 6.33296 12.7606 6.11343 12.5411C5.8939 12.3215 5.89236 11.9671 6.10998 11.7495L8.52226 9.33724L6.09816 6.91313C5.91441 6.68734 5.92986 6.36067 6.13394 6.15659C6.33802 5.9525 6.6647 5.93705 6.89049 6.1208L9.31032 8.54063L11.7184 6.13259C11.9426 5.9508 12.2694 5.96909 12.4753 6.17496C12.6811 6.38083 12.6994 6.70765 12.5176 6.93185L10.1096 9.33989L12.5337 11.764C12.7174 11.9898 12.702 12.3165 12.4979 12.5205C12.2938 12.7246 11.9671 12.7401 11.7414 12.5563L9.31725 10.1322Z" fill="#80868B"/>
</svg>
