<svg width="31" height="30" viewBox="0 0 31 30" fill="none" xmlns="http://www.w3.org/2000/svg">
<rect x="0.520752" width="30" height="30" rx="15" fill="url(#paint0_linear_148_33636)"/>
<path d="M20.2589 16.9518L19.5747 18.1182L16.8841 16.563C16.6975 16.4489 16.5316 16.3349 16.3865 16.2208C16.2413 16.1068 16.1117 15.9616 15.9977 15.7854C16.1636 16.1275 16.2465 16.506 16.2465 16.9207V20H14.8779V16.9362C14.8779 16.7289 14.8883 16.5371 14.909 16.3608C14.9401 16.1846 14.9972 16.0135 15.0801 15.8476C14.966 15.9927 14.8416 16.1223 14.7068 16.2364C14.5721 16.3504 14.4165 16.4593 14.2403 16.563L11.5653 18.1026L10.881 16.9362L13.556 15.381C13.95 15.1426 14.344 15.0181 14.738 15.0078C14.5306 14.987 14.3284 14.9508 14.1314 14.8989C13.9448 14.8367 13.753 14.7434 13.556 14.619L10.8655 13.0482L11.5498 11.8818L14.2403 13.437C14.4269 13.5511 14.5928 13.6703 14.738 13.7947C14.8831 13.9191 15.0127 14.0695 15.1268 14.2457C14.9609 13.8828 14.8779 13.494 14.8779 13.0793V10H16.2465V13.0638C16.2465 13.2711 16.231 13.4681 16.1998 13.6547C16.1791 13.831 16.1273 14.0021 16.0443 14.168C16.1584 14.0228 16.2828 13.8932 16.4176 13.7792C16.5524 13.6651 16.7079 13.5511 16.8841 13.437L19.5591 11.8974L20.2434 13.0638L17.5684 14.619C17.3922 14.733 17.2159 14.8212 17.0397 14.8834C16.8634 14.9456 16.6768 14.987 16.4798 15.0078C16.6768 15.0285 16.8634 15.07 17.0397 15.1322C17.2159 15.184 17.3922 15.267 17.5684 15.381L20.2589 16.9518Z" fill="white"/>
<defs>
<linearGradient id="paint0_linear_148_33636" x1="15.5208" y1="-7.09034e-07" x2="36.975" y2="49.0365" gradientUnits="userSpaceOnUse">
<stop stop-color="#FD55D3"/>
<stop offset="1" stop-color="#FDAFA3"/>
</linearGradient>
</defs>
</svg>
