<svg width="27" height="26" viewBox="0 0 27 26" fill="none" xmlns="http://www.w3.org/2000/svg">
<rect x="0.520752" width="26" height="26" rx="13" fill="#E8EAED"/>
<path fill-rule="evenodd" clip-rule="evenodd" d="M14.2078 13.6493V17.8189C14.2078 18.1951 13.9002 18.5 13.5208 18.5C13.1413 18.5 12.8337 18.1951 12.8337 17.8189V13.6493H8.64367C8.28972 13.613 8.02075 13.3173 8.02075 12.9645C8.02075 12.6118 8.28972 12.3161 8.64367 12.2798H12.8263V8.11752C12.863 7.76664 13.1612 7.5 13.5171 7.5C13.8729 7.5 14.1712 7.76664 14.2078 8.11752V12.2798H18.3978C18.7518 12.3161 19.0208 12.6118 19.0208 12.9645C19.0208 13.3173 18.7518 13.613 18.3978 13.6493H14.2078Z" fill="#040415"/>
</svg>
