<svg width="25" height="24" viewBox="0 0 25 24" fill="none" xmlns="http://www.w3.org/2000/svg">
<path fill-rule="evenodd" clip-rule="evenodd" d="M12.5208 2C10.7322 2 9.28234 3.4499 9.28234 5.23843V12C9.28234 13.7885 10.7322 15.2384 12.5208 15.2384C14.3093 15.2384 15.7592 13.7885 15.7592 12V5.23843C15.7592 3.4499 14.3093 2 12.5208 2ZM10.4211 5.23843C10.4211 4.07883 11.3612 3.13879 12.5208 3.13879C13.6804 3.13879 14.6204 4.07883 14.6204 5.23843V12C14.6204 13.1596 13.6804 14.0996 12.5208 14.0996C11.3612 14.0996 10.4211 13.1596 10.4211 12V5.23843Z" fill="#5F6368"/>
<path d="M8.25031 20.8612C7.93585 20.8612 7.68092 21.1161 7.68092 21.4306C7.68092 21.7451 7.93585 22 8.25031 22H16.7912C17.1057 22 17.3606 21.7451 17.3606 21.4306C17.3606 21.1161 17.1057 20.8612 16.7912 20.8612H13.0902V18.5535C16.4172 18.4047 19.0688 15.6603 19.0688 12.2966V10.1851C19.0688 9.87059 18.8139 9.61567 18.4994 9.61567C18.1849 9.61567 17.93 9.87059 17.93 10.1851V12.2966C17.93 15.1268 15.6357 17.4211 12.8055 17.4211H12.2361C9.40585 17.4211 7.11151 15.1268 7.11151 12.2966V10.1851C7.11151 9.87059 6.85658 9.61567 6.54211 9.61567C6.22764 9.61567 5.97272 9.87059 5.97272 10.1851V12.2966C5.97272 15.6603 8.62436 18.4047 11.9514 18.5535V20.8612H8.25031Z" fill="#5F6368"/>
</svg>
