<svg width="24" height="24" viewBox="0 0 24 24" fill="none" xmlns="http://www.w3.org/2000/svg">
<path fill-rule="evenodd" clip-rule="evenodd" d="M6.49988 3.00293H9.49988C10.0499 3.00293 10.4999 3.45293 10.4999 4.00293V20.003C10.4999 20.553 10.0499 21.003 9.49988 21.003H6.49988C5.94988 21.003 5.49988 20.553 5.49988 20.003V4.00293C5.49988 3.45293 5.94988 3.00293 6.49988 3.00293ZM14.4999 3.00293H17.4999C18.0499 3.00293 18.4999 3.45293 18.4999 4.00293V20.003C18.4999 20.553 18.0499 21.003 17.4999 21.003H14.4999C13.9499 21.003 13.4999 20.553 13.4999 20.003V4.00293C13.4999 3.45293 13.9499 3.00293 14.4999 3.00293Z" fill="black"/>
</svg>
