<svg width="21" height="21" viewBox="0 0 21 21" fill="none" xmlns="http://www.w3.org/2000/svg">
<g id="Others">
<g id="Vector 4192">
<path d="M8.22509 16.0798L5.50922 16.3993C5.40628 16.4114 5.30346 16.3757 5.23016 16.3024L4.95076 16.023C4.87945 15.9517 4.84363 15.8523 4.85304 15.7519L5.0922 13.2009L10.5649 7.72821C10.9577 7.33536 11.5933 7.33088 11.9916 7.71817L13.5827 9.26501C13.989 9.66008 13.9936 10.3112 13.5929 10.712L8.22509 16.0798Z" fill="#0C0C0C"/>
<path d="M15.2876 5.39484L15.9509 6.07658C16.5968 6.74043 16.5895 7.80003 15.9346 8.45497L15.513 8.87657C15.1823 9.20724 14.6462 9.20724 14.3155 8.87658L12.4536 7.01462C12.1273 6.68835 12.1223 6.16093 12.4424 5.82856L12.854 5.40113C13.5177 4.71187 14.6203 4.70902 15.2876 5.39484Z" fill="#0C0C0C"/>
</g>
</g>
</svg>
