<svg width="216" height="143" viewBox="0 0 216 143" fill="none" xmlns="http://www.w3.org/2000/svg">
<path id="Vector 4206" d="M1.58789 141.191C7.32222 141.191 28.3783 139.443 41.2032 139.145M139.63 141.191C136.321 140.495 128.137 139.102 121.869 139.102C114.033 139.102 115.6 141.191 110.376 141.191C105.152 141.191 90.5252 141.191 77.9879 141.191C65.4505 141.191 59.7042 139.102 44.5549 139.102C43.5218 139.102 42.3982 139.117 41.2032 139.145M74.3311 118.729C72.2416 119.251 61.7938 124.997 60.2266 124.997C58.6594 124.997 56.0475 124.475 55.0027 124.997C54.2928 125.352 45.6974 134.4 41.2032 139.145M74.3311 118.729C76.0028 118.311 84.0824 117.858 87.9133 117.684M74.3311 118.729C66.8087 122.49 60.4007 130.744 58.1371 134.401M87.9133 117.684V131.789M87.9133 117.684V97.1866M214.854 137.535C206.73 137.294 195.686 136.97 184.555 136.649M97.3163 120.819C98.7093 119.774 103.272 117.893 110.376 118.729C115.141 119.29 121.268 123.171 126.048 126.875M97.3163 120.819V131.789M97.3163 120.819V100.968M97.3163 100.968C102.813 100.968 107.282 96.5389 107.333 91.0429L107.486 74.326M97.3163 100.968C93.6669 100.968 90.3537 99.5285 87.9133 97.1866M126.048 126.875C128.395 128.694 130.418 130.47 131.794 131.789C132.839 133.008 135.869 135.445 139.63 135.445C142.091 135.445 163.479 136.042 184.555 136.649M126.048 126.875C130.923 121.025 140.779 109.431 141.197 109.848C141.719 110.371 160.525 134.401 161.57 134.401C162.615 134.401 168.884 126.875 169.406 126.875C169.824 126.875 173.411 126.875 175.152 126.875L184.555 136.649M83.7342 120.819L81.6446 124.997M106.197 123.431C104.456 124.824 100.973 128.132 100.973 130.222M139.63 128.132L144.331 121.863M100.973 74.326V90.5055C100.973 92.8216 99.0955 94.6992 96.7794 94.6992C94.4747 94.6992 92.6019 92.8393 92.5859 90.5347L92.4261 67.5349M100.973 74.326C102.529 73.2812 106.01 71.8185 107.486 74.326M100.973 74.326V63.3558M107.486 74.326L107.673 63.3558M100.973 63.3558V56.8103C100.973 54.9436 102.486 53.4304 104.353 53.4304C106.232 53.4304 107.75 54.9626 107.733 56.8413L107.673 63.3558M100.973 63.3558C102.654 62.6593 106.346 61.6841 107.673 63.3558M83.7342 67.5349V77.4603C78.7694 78.2878 74.2214 74.5294 74.0987 69.4976L73.503 54.4752M83.7342 67.5349C85.3497 68.4055 89.3498 69.6245 92.4261 67.5349M83.7342 67.5349V58.6543M92.4261 67.5349L92.3645 58.6543M83.7342 58.6543V33.0717C83.7342 30.7556 85.6117 28.8781 87.9278 28.8781C90.2325 28.8781 92.1053 30.7379 92.1213 33.0426L92.3645 58.6543M83.7342 58.6543C85.3086 57.2612 89.2388 55.311 92.3645 58.6543M65.1782 53.4304L65.0652 49.8891C64.9902 47.5397 66.8743 45.5945 69.2248 45.5945C71.4838 45.5945 73.3303 47.3966 73.3854 49.6548L73.503 54.4752M65.1782 53.4304L66.0971 72.8186C66.3046 79.3221 72.3423 84.0559 78.7075 82.7057L83.7342 81.6394V87.3857C83.7342 91.2375 85.3375 94.7148 87.9133 97.1866M65.1782 53.4304C67.9531 53.7786 73.503 54.4752 73.503 54.4752M170.451 17.9079C172.715 16.8631 178.182 14.4601 181.943 13.2064M173.063 29.4005C176.023 29.0522 182.152 28.3557 182.988 28.3557M173.063 36.1915L180.899 40.893M160.003 44.0274L161.57 52.3856M137.018 31.49L132.316 33.5796M151.645 10.5944L149.033 1.19141M163.137 12.684C164.879 9.8979 168.466 4.22127 168.884 3.80335M167.317 29.4005C167.317 36.3246 163.137 39.3259 156.346 40.3706C149.422 40.3706 143.809 34.7575 143.809 27.8333C143.809 22.6094 148.377 17.9079 155.302 17.9079C162.226 17.9079 167.317 22.4763 167.317 29.4005Z" stroke="#DADCE0" stroke-width="2.05882" stroke-linecap="round" stroke-linejoin="round"/>
</svg>
