<svg width="22" height="22" viewBox="0 0 22 22" fill="none" xmlns="http://www.w3.org/2000/svg">
<path d="M18.2616 7.46848L13.0624 2.26934C12.9303 2.13706 12.7511 2.06266 12.5641 2.0625H10.2419C9.5562 2.0625 8.89857 2.3349 8.4137 2.81977C7.92883 3.30464 7.65644 3.96226 7.65644 4.64797V5.82318H6.48122C5.79551 5.82318 5.13789 6.09558 4.65302 6.58045C4.16815 7.06532 3.89575 7.72294 3.89575 8.40865V17.8104C3.89575 18.4961 4.16815 19.1537 4.65302 19.6386C5.13789 20.1234 5.79551 20.3958 6.48122 20.3958H13.0624C13.7481 20.3958 14.4058 20.1234 14.8906 19.6386C15.3755 19.1537 15.6479 18.4961 15.6479 17.8104V16.6352H15.8829C16.5686 16.6352 17.2263 16.3628 17.7111 15.8779C18.196 15.393 18.4684 14.7354 18.4684 14.0497V7.93857C18.461 7.76144 18.3872 7.59361 18.2616 7.46848ZM13.2975 4.46934L16.0616 7.23344H13.2975V4.46934ZM14.2376 17.8104C14.2376 18.122 14.1138 18.421 13.8934 18.6414C13.673 18.8618 13.3741 18.9856 13.0624 18.9856H6.48122C6.16954 18.9856 5.87062 18.8618 5.65022 18.6414C5.42983 18.421 5.30601 18.122 5.30601 17.8104V8.40865C5.30601 8.09697 5.42983 7.79805 5.65022 7.57765C5.87062 7.35726 6.16954 7.23344 6.48122 7.23344H7.65644V14.0497C7.65644 14.7354 7.92883 15.393 8.4137 15.8779C8.89857 16.3628 9.5562 16.6352 10.2419 16.6352H14.2376V17.8104ZM15.8829 15.2249H10.2419C9.93022 15.2249 9.6313 15.1011 9.4109 14.8807C9.19051 14.6603 9.06669 14.3614 9.06669 14.0497V4.64797C9.06669 4.33628 9.19051 4.03736 9.4109 3.81697C9.6313 3.59657 9.93022 3.47276 10.2419 3.47276H11.8872V7.93857C11.8896 8.12482 11.9647 8.30276 12.0964 8.43448C12.2281 8.56619 12.4061 8.64126 12.5923 8.6437H17.0581V14.0497C17.0581 14.3614 16.9343 14.6603 16.7139 14.8807C16.4935 15.1011 16.1946 15.2249 15.8829 15.2249Z" fill="black"/>
</svg>
