<svg width="22" height="22" viewBox="0 0 22 22" fill="none" xmlns="http://www.w3.org/2000/svg">
<path fill-rule="evenodd" clip-rule="evenodd" d="M11.2261 20.1664C9.98407 20.1664 8.77315 20.1526 7.57507 20.1279C6.0424 20.0976 4.98182 19.104 4.80857 17.5346C4.51982 14.9313 4.02573 8.79515 4.02115 8.73373C3.98998 8.35515 4.27232 8.02331 4.6509 7.99306C5.02398 7.98298 5.36132 8.24515 5.39157 8.62281C5.39615 8.68515 5.88932 14.8002 6.17532 17.3834C6.2734 18.2753 6.75465 18.7355 7.60348 18.7529C9.89515 18.8015 12.2336 18.8042 14.7544 18.7584C15.6564 18.741 16.1441 18.29 16.2449 17.377C16.5291 14.8158 17.0241 8.68515 17.0296 8.62281C17.0598 8.24515 17.3944 7.98115 17.7693 7.99306C18.1479 8.02423 18.4302 8.35515 18.4 8.73373C18.3945 8.79606 17.8976 14.9478 17.6116 17.5282C17.4338 19.1296 16.376 20.1041 14.7792 20.1334C13.5572 20.1545 12.3784 20.1664 11.2261 20.1664" fill="#F75555"/>
<path fill-rule="evenodd" clip-rule="evenodd" d="M18.9823 6.40674H3.4375C3.058 6.40674 2.75 6.09874 2.75 5.71924C2.75 5.33974 3.058 5.03174 3.4375 5.03174H18.9823C19.3618 5.03174 19.6698 5.33974 19.6698 5.71924C19.6698 6.09874 19.3618 6.40674 18.9823 6.40674" fill="#F75555"/>
<path fill-rule="evenodd" clip-rule="evenodd" d="M15.987 6.40675C14.9439 6.40675 14.0382 5.66333 13.8329 4.64033L13.6101 3.52566C13.5634 3.35608 13.37 3.2085 13.15 3.2085H9.2697C9.0497 3.2085 8.85628 3.35608 8.80037 3.56783L8.58678 4.64033C8.38237 5.66333 7.47578 6.40675 6.43262 6.40675C6.05312 6.40675 5.74512 6.09875 5.74512 5.71925C5.74512 5.33975 6.05312 5.03175 6.43262 5.03175C6.82312 5.03175 7.16228 4.75308 7.23928 4.36991L7.46203 3.25525C7.68845 2.40091 8.4282 1.8335 9.2697 1.8335H13.15C13.9915 1.8335 14.7312 2.40091 14.9485 3.214L15.1813 4.36991C15.2574 4.75308 15.5965 5.03175 15.987 5.03175C16.3665 5.03175 16.6745 5.33975 16.6745 5.71925C16.6745 6.09875 16.3665 6.40675 15.987 6.40675" fill="#F75555"/>
</svg>
