<svg width="33" height="32" viewBox="0 0 33 32" fill="none" xmlns="http://www.w3.org/2000/svg">
<rect x="0.5625" width="32" height="32" rx="16" fill="white"/>
<path fill-rule="evenodd" clip-rule="evenodd" d="M12.2954 11.7841C12.0893 12.0878 11.9791 12.4464 11.9791 12.8135L11.9791 22.7919C11.9791 23.2981 12.3895 23.7085 12.8958 23.7085H22.5208C23.027 23.7085 23.4374 23.2981 23.4374 22.7919V20.4543C24.4834 20.242 25.2708 19.3172 25.2708 18.2085C25.2708 17.5528 24.9953 16.9613 24.5539 16.5436C25.255 16.1517 25.7291 15.4021 25.7291 14.5418C25.7291 13.2762 24.7031 12.2502 23.4374 12.2502H20.2291C20.2248 12.2502 20.2205 12.2502 20.2161 12.2502H17.3874L18.153 9.69848C18.4437 8.72947 18.1788 7.6791 17.4635 6.96374L16.7253 6.22557C16.5219 6.02214 16.1835 6.05424 16.022 6.29231L12.2954 11.7841ZM8.77075 12.7085H10.6041V23.7085H8.77075C8.01136 23.7085 7.39575 23.0929 7.39575 22.3335V14.0835C7.39575 13.3241 8.01136 12.7085 8.77075 12.7085Z" fill="#BDC1C6"/>
</svg>
