<svg width="33" height="32" viewBox="0 0 33 32" fill="none" xmlns="http://www.w3.org/2000/svg">
<rect x="0.5625" width="32" height="32" rx="16" fill="#FD55D3"/>
<path fill-rule="evenodd" clip-rule="evenodd" d="M12.2956 11.7841C12.0895 12.0878 11.9794 12.4464 11.9794 12.8135L11.9793 22.7919C11.9793 23.2981 12.3897 23.7085 12.896 23.7085H22.521C23.0273 23.7085 23.4377 23.2981 23.4377 22.7919V20.4543C24.4837 20.242 25.271 19.3172 25.271 18.2085C25.271 17.5528 24.9956 16.9613 24.5541 16.5436C25.2553 16.1517 25.7293 15.4021 25.7293 14.5418C25.7293 13.2762 24.7033 12.2502 23.4377 12.2502H20.2293C20.225 12.2502 20.2207 12.2502 20.2164 12.2502H17.3877L18.1532 9.69848C18.4439 8.72947 18.1791 7.6791 17.4637 6.96374L16.7256 6.22557C16.5221 6.02214 16.1838 6.05424 16.0222 6.29231L12.2956 11.7841ZM8.771 12.7085H10.6043V23.7085H8.771C8.0116 23.7085 7.396 23.0929 7.396 22.3335V14.0835C7.396 13.3241 8.0116 12.7085 8.771 12.7085Z" fill="white"/>
</svg>
