<svg width="22" height="22" viewBox="0 0 22 22" fill="none" xmlns="http://www.w3.org/2000/svg">
<path fill-rule="evenodd" clip-rule="evenodd" d="M11.2291 3.2085C6.80617 3.2085 3.20825 6.80641 3.20825 11.2293C3.20825 15.6522 6.80617 19.2502 11.2291 19.2502C15.652 19.2502 19.2499 15.6522 19.2499 11.2293C19.2499 6.80641 15.652 3.2085 11.2291 3.2085M11.2291 20.6252C6.04809 20.6252 1.83325 16.4103 1.83325 11.2293C1.83325 6.04833 6.04809 1.8335 11.2291 1.8335C16.4101 1.8335 20.6249 6.04833 20.6249 11.2293C20.6249 16.4103 16.4101 20.6252 11.2291 20.6252" fill="black"/>
<path fill-rule="evenodd" clip-rule="evenodd" d="M10.2058 9.24589C10.0436 10.1635 10.0408 12.3552 10.2031 13.2261C11.0079 12.9419 12.7514 11.7961 13.2208 11.2286C12.7533 10.6777 11.0318 9.55572 10.2058 9.24589V9.24589ZM9.92534 14.668C9.67784 14.668 9.44318 14.5974 9.25159 14.4067C9.10401 14.261 8.70984 13.8714 8.70801 11.3056C8.70709 8.58131 9.11684 8.17614 9.25159 8.04139C9.73101 7.56656 10.512 7.89197 10.8448 8.03131C11.3214 8.23022 14.6663 9.94347 14.6663 11.225C14.6663 12.4258 11.656 14.1051 10.8869 14.426C10.5872 14.5506 10.2453 14.668 9.92534 14.668V14.668Z" fill="black"/>
</svg>
