<svg width="24" height="24" viewBox="0 0 24 24" fill="none" xmlns="http://www.w3.org/2000/svg">
<path d="M12 3H9.4C7.15979 3 6.03969 3 5.18404 3.43597C4.43139 3.81947 3.81947 4.43139 3.43597 5.18404C3 6.03969 3 7.15979 3 9.4V14.6C3 16.8402 3 17.9603 3.43597 18.816C3.81947 19.5686 4.43139 20.1805 5.18404 20.564C6.03969 21 7.15979 21 9.4 21H15.3337C16.8847 21 17.6602 21 18.2855 20.7878C19.4633 20.3881 20.3881 19.4633 20.7878 18.2855C21 17.6602 21 16.8847 21 15.3337C21 14.3567 21 13.8682 20.8549 13.5627C20.5794 12.9828 19.9655 12.6426 19.3278 12.7163C18.9918 12.7551 18.5775 13.014 17.749 13.5319L14.8889 15.3194C13.7591 16.0256 12.3053 15.9355 11.2712 15.0954C9.99433 14.0579 8.13101 14.1914 7.01509 15.4003L6 16.5" stroke="white" stroke-width="1.5" stroke-linecap="round"/>
<path d="M18.9706 1.64505C18.9772 1.61278 19.0233 1.61278 19.0299 1.64505C19.3722 3.31953 20.6808 4.62812 22.3552 4.97038C22.3875 4.97697 22.3875 5.02307 22.3552 5.02966C20.6808 5.37191 19.3722 6.68051 19.0299 8.35499C19.0233 8.38725 18.9772 8.38725 18.9706 8.35499C18.6284 6.68051 17.3198 5.37191 15.6453 5.02966C15.613 5.02307 15.613 4.97697 15.6453 4.97038C17.3198 4.62812 18.6284 3.31953 18.9706 1.64505Z" stroke="#FD55D3" stroke-width="1.5"/>
<path d="M9 9V9.1" stroke="white" stroke-width="1.5" stroke-linecap="round"/>
</svg>
