<svg width="25" height="24" viewBox="0 0 25 24" fill="none" xmlns="http://www.w3.org/2000/svg">
<path d="M22.0371 13L16.3304 15.8534C14.7562 16.6405 13.9691 17.034 13.1435 17.1889C12.4123 17.3261 11.6619 17.3261 10.9307 17.1889C10.1051 17.034 9.31804 16.6405 7.74386 15.8534L2.03711 13M22.0371 18L16.3304 20.8534C14.7562 21.6405 13.9691 22.034 13.1435 22.1889C12.4123 22.3261 11.6619 22.3261 10.9307 22.1889C10.1051 22.034 9.31804 21.6405 7.74386 20.8534L2.03711 18M5.76144 9.86217L9.17494 11.5689C10.2244 12.0936 10.7491 12.356 11.2995 12.4593C11.787 12.5507 12.2872 12.5507 12.7747 12.4593C13.3251 12.356 13.8498 12.0936 14.8993 11.5689L18.3128 9.86217C20.1552 8.94095 21.0764 8.48035 21.372 7.85705C21.6293 7.31464 21.6293 6.68536 21.372 6.14295C21.0764 5.51965 20.1552 5.05905 18.3128 4.13783L14.8993 2.43108C13.8498 1.90635 13.3251 1.64399 12.7747 1.54073C12.2872 1.44927 11.787 1.44927 11.2995 1.54073C10.7491 1.64399 10.2244 1.90635 9.17494 2.43108L5.76144 4.13783C3.91902 5.05905 2.9978 5.51965 2.70219 6.14295C2.44493 6.68536 2.44493 7.31464 2.70219 7.85705C2.9978 8.48035 3.91901 8.94095 5.76144 9.86217Z" stroke="black" stroke-width="1.5" stroke-linecap="round" stroke-linejoin="round"/>
</svg>
