<svg width="24" height="25" viewBox="0 0 24 25" fill="none" xmlns="http://www.w3.org/2000/svg">
<g id="Icons / Line / Character">
<g id="Group 1597878841">
<path id="Vector" d="M13.3333 13.2119H10.6667C9.19391 13.2119 8 14.4058 8 15.8786C8 16.615 8.59695 17.2119 9.33333 17.2119H14.6667C15.403 17.2119 16 16.615 16 15.8786C16 14.4058 14.8061 13.2119 13.3333 13.2119Z" stroke="white" stroke-width="1.5" stroke-linecap="round" stroke-linejoin="round"/>
<path id="Vector_2" d="M12.4 2.21191H11.6C8.23969 2.21191 6.55953 2.21191 5.27606 2.86587C4.14708 3.44112 3.2292 4.359 2.65396 5.48797C2 6.77144 2 8.4516 2 11.8119V12.6119C2 15.9722 2 17.6524 2.65396 18.9359C3.2292 20.0648 4.14708 20.9827 5.27606 21.558C6.55953 22.2119 8.23969 22.2119 11.6 22.2119H12.4C15.7603 22.2119 17.4405 22.2119 18.7239 21.558C19.8529 20.9827 20.7708 20.0648 21.346 18.9359C22 17.6524 22 15.9722 22 12.6119V11.8119C22 8.4516 22 6.77144 21.346 5.48797C20.7708 4.359 19.8529 3.44112 18.7239 2.86587C17.4405 2.21191 15.7603 2.21191 12.4 2.21191Z" stroke="white" stroke-width="1.5" stroke-linecap="round" stroke-linejoin="round"/>
<path id="Vector_3" d="M14 8.21191C14 9.31648 13.1046 10.2119 12 10.2119C10.8954 10.2119 10 9.31648 10 8.21191C10 7.10734 10.8954 6.21191 12 6.21191C13.1046 6.21191 14 7.10734 14 8.21191Z" stroke="white" stroke-width="1.5" stroke-linecap="round" stroke-linejoin="round"/>
</g>
</g>
</svg>
