<svg width="24" height="24" viewBox="0 0 24 24" fill="none" xmlns="http://www.w3.org/2000/svg">
<mask id="path-1-inside-1_675_15121" fill="white">
<path fill-rule="evenodd" clip-rule="evenodd" d="M12.02 2C6.21 2 2 6.74 2 12C2 13.68 2.49 15.41 3.35 16.99C3.51 17.25 3.53 17.58 3.42 17.89L2.75 20.13C2.6 20.67 3.06 21.07 3.57 20.91L5.59 20.31C6.14 20.13 6.57 20.36 7.081 20.67C8.541 21.53 10.36 21.97 12 21.97C16.96 21.97 22 18.14 22 11.97C22 6.65 17.7 2 12.02 2Z"/>
</mask>
<path d="M3.35 16.99L2.03252 17.7071L2.0516 17.7422L2.07251 17.7761L3.35 16.99ZM3.42 17.89L2.00636 17.3884L1.99373 17.424L1.98291 17.4602L3.42 17.89ZM2.75 20.13L1.31291 19.7002L1.30868 19.7143L1.30472 19.7285L2.75 20.13ZM3.57 20.91L3.1429 19.4721L3.13192 19.4754L3.12099 19.4788L3.57 20.91ZM5.59 20.31L6.0171 21.7479L6.03692 21.742L6.05656 21.7356L5.59 20.31ZM7.081 20.67L6.30299 21.9525L6.31131 21.9575L6.3197 21.9624L7.081 20.67ZM12.02 0.5C5.33223 0.5 0.5 5.9618 0.5 12H3.5C3.5 7.5182 7.08777 3.5 12.02 3.5V0.5ZM0.5 12C0.5 13.9664 1.07117 15.9409 2.03252 17.7071L4.66748 16.2729C3.90883 14.8791 3.5 13.3936 3.5 12H0.5ZM2.07251 17.7761C1.95838 17.5907 1.98933 17.4364 2.00636 17.3884L4.83364 18.3916C5.07067 17.7236 5.06162 16.9093 4.62749 16.2039L2.07251 17.7761ZM1.98291 17.4602L1.31291 19.7002L4.18709 20.5598L4.85709 18.3198L1.98291 17.4602ZM1.30472 19.7285C1.08765 20.51 1.29921 21.3354 1.8958 21.8854C2.47556 22.4198 3.28535 22.5714 4.01901 22.3412L3.12099 19.4788C3.34465 19.4086 3.66944 19.4402 3.9292 19.6796C4.20579 19.9346 4.26235 20.29 4.19528 20.5315L1.30472 19.7285ZM3.9971 22.3479L6.0171 21.7479L5.1629 18.8721L3.1429 19.4721L3.9971 22.3479ZM6.05656 21.7356C6.04495 21.7394 6.01314 21.747 5.97008 21.7467C5.929 21.7463 5.90563 21.7389 5.90973 21.7401C5.91801 21.7427 5.95134 21.7542 6.02172 21.7905C6.09408 21.8279 6.18003 21.8779 6.30299 21.9525L7.85901 19.3875C7.38598 19.1006 6.39459 18.4684 5.12344 18.8844L6.05656 21.7356ZM6.3197 21.9624C8.03382 22.9721 10.1208 23.47 12 23.47V20.47C10.5992 20.47 9.04818 20.0879 7.8423 19.3776L6.3197 21.9624ZM12 23.47C17.6675 23.47 23.5 19.0844 23.5 11.97H20.5C20.5 17.1956 16.2525 20.47 12 20.47V23.47ZM23.5 11.97C23.5 5.85504 18.5615 0.5 12.02 0.5V3.5C16.8385 3.5 20.5 7.44496 20.5 11.97H23.5Z" fill="white" mask="url(#path-1-inside-1_675_15121)"/>
</svg>
