<svg width="24" height="24" viewBox="0 0 24 24" fill="none" xmlns="http://www.w3.org/2000/svg">
<path d="M14.3019 19.0375L14.3007 19.039L12.8007 21.029L12.8 21.03C12.5506 21.3626 12.2559 21.49 12 21.49C11.7441 21.49 11.4494 21.3626 11.2 21.03L11.1993 21.029L9.69928 19.039L9.69931 19.039L9.69564 19.0343C9.55281 18.8494 9.35354 18.7065 9.16111 18.6103C8.96956 18.5145 8.73469 18.44 8.5 18.44H7C4.51418 18.44 2.5 16.4319 2.5 13.96V12.96V6.98C2.5 4.5081 4.51418 2.5 7 2.5H17C19.4858 2.5 21.5 4.5081 21.5 6.98V13.96C21.5 16.4319 19.4858 18.44 17 18.44H15.5C15.0314 18.44 14.585 18.6649 14.3019 19.0375Z" stroke="white"/>
<path d="M7 13.413H13C13.41 13.413 13.75 13.073 13.75 12.663C13.75 12.253 13.41 11.913 13 11.913H7C6.59 11.913 6.25 12.253 6.25 12.663C6.25 13.073 6.59 13.413 7 13.413Z" fill="white"/>
<path d="M7 8.41296H17C17.41 8.41296 17.75 8.07296 17.75 7.66296C17.75 7.25296 17.41 6.91296 17 6.91296H7C6.59 6.91296 6.25 7.25296 6.25 7.66296C6.25 8.07296 6.59 8.41296 7 8.41296Z" fill="white"/>
</svg>
