<svg width="24" height="24" viewBox="0 0 24 24" fill="none" xmlns="http://www.w3.org/2000/svg">
<path d="M19.9218 8.14744L14.25 2.47564C14.1059 2.33134 13.9104 2.25018 13.7064 2.25H11.1731C10.425 2.25 9.70762 2.54716 9.17867 3.07611C8.64972 3.60506 8.35256 4.32247 8.35256 5.07051V6.35256H7.07051C6.32247 6.35256 5.60506 6.64972 5.07611 7.17867C4.54716 7.70762 4.25 8.42503 4.25 9.17308V19.4295C4.25 20.1775 4.54716 20.8949 5.07611 21.4239C5.60506 21.9528 6.32247 22.25 7.07051 22.25H14.25C14.998 22.25 15.7155 21.9528 16.2444 21.4239C16.7734 20.8949 17.0705 20.1775 17.0705 19.4295V18.1474H17.3269C18.075 18.1474 18.7924 17.8503 19.3213 17.3213C19.8503 16.7924 20.1474 16.075 20.1474 15.3269V8.66026C20.1394 8.46703 20.0588 8.28393 19.9218 8.14744ZM14.5064 4.87564L17.5218 7.89103H14.5064V4.87564ZM15.5321 19.4295C15.5321 19.7695 15.397 20.0956 15.1565 20.336C14.9161 20.5765 14.59 20.7115 14.25 20.7115H7.07051C6.73049 20.7115 6.4044 20.5765 6.16397 20.336C5.92353 20.0956 5.78846 19.7695 5.78846 19.4295V9.17308C5.78846 8.83306 5.92353 8.50696 6.16397 8.26653C6.4044 8.0261 6.73049 7.89103 7.07051 7.89103H8.35256V15.3269C8.35256 16.075 8.64972 16.7924 9.17867 17.3213C9.70762 17.8503 10.425 18.1474 11.1731 18.1474H15.5321V19.4295ZM17.3269 16.609H11.1731C10.8331 16.609 10.507 16.4739 10.2665 16.2335C10.0261 15.993 9.89103 15.6669 9.89103 15.3269V5.07051C9.89103 4.73049 10.0261 4.4044 10.2665 4.16397C10.507 3.92353 10.8331 3.78846 11.1731 3.78846H12.9679V8.66026C12.9706 8.86344 13.0525 9.05756 13.1962 9.20125C13.3399 9.34493 13.534 9.42683 13.7372 9.42949H18.609V15.3269C18.609 15.6669 18.4739 15.993 18.2335 16.2335C17.993 16.4739 17.6669 16.609 17.3269 16.609Z" fill="white"/>
</svg>
