<svg width="24" height="24" viewBox="0 0 24 24" fill="none" xmlns="http://www.w3.org/2000/svg">
<path d="M9.15 9.15L9.15 21.5M2.5 9.15H21.5M10.5 21.5H13.5C16.3003 21.5 17.7004 21.5 18.77 20.955C19.7108 20.4757 20.4757 19.7108 20.955 18.77C21.5 17.7004 21.5 16.3003 21.5 13.5V10.5C21.5 7.69974 21.5 6.29961 20.955 5.23005C20.4757 4.28924 19.7108 3.52433 18.77 3.04497C17.7004 2.5 16.3003 2.5 13.5 2.5H10.5C7.69974 2.5 6.29961 2.5 5.23005 3.04497C4.28924 3.52433 3.52433 4.28924 3.04497 5.23005C2.5 6.29961 2.5 7.69974 2.5 10.5V13.5C2.5 16.3003 2.5 17.7004 3.04497 18.77C3.52433 19.7108 4.28924 20.4757 5.23005 20.955C6.29961 21.5 7.69974 21.5 10.5 21.5Z" stroke="white" stroke-width="1.5" stroke-linecap="round" stroke-linejoin="round"/>
</svg>
