<svg width="22" height="22" viewBox="0 0 22 22" fill="none" xmlns="http://www.w3.org/2000/svg">
<path fill-rule="evenodd" clip-rule="evenodd" d="M11.2269 20.1666C9.9848 20.1666 8.77388 20.1529 7.5758 20.1281C6.04313 20.0979 4.98255 19.1042 4.8093 17.5349C4.52055 14.9316 4.02647 8.79539 4.02188 8.73397C3.99072 8.35539 4.27305 8.02356 4.65163 7.99331C5.02472 7.98322 5.36205 8.24539 5.3923 8.62306C5.39688 8.68539 5.89005 14.8005 6.17605 17.3836C6.27413 18.2756 6.75538 18.7357 7.60422 18.7531C9.89588 18.8017 12.2343 18.8045 14.7551 18.7586C15.6571 18.7412 16.1448 18.2902 16.2456 17.3772C16.5298 14.8161 17.0248 8.68539 17.0303 8.62306C17.0605 8.24539 17.3951 7.98139 17.77 7.99331C18.1486 8.02447 18.431 8.35539 18.4007 8.73397C18.3952 8.79631 17.8984 14.9481 17.6124 17.5285C17.4345 19.1299 16.3767 20.1043 14.7799 20.1336C13.558 20.1547 12.3791 20.1666 11.2269 20.1666Z" fill="white"/>
<path fill-rule="evenodd" clip-rule="evenodd" d="M18.9823 6.40674H3.4375C3.058 6.40674 2.75 6.09874 2.75 5.71924C2.75 5.33974 3.058 5.03174 3.4375 5.03174H18.9823C19.3618 5.03174 19.6698 5.33974 19.6698 5.71924C19.6698 6.09874 19.3618 6.40674 18.9823 6.40674Z" fill="white"/>
<path fill-rule="evenodd" clip-rule="evenodd" d="M15.9861 6.40675C14.9429 6.40675 14.0372 5.66333 13.8319 4.64033L13.6091 3.52566C13.5624 3.35608 13.369 3.2085 13.149 3.2085H9.26872C9.04872 3.2085 8.85531 3.35608 8.79939 3.56783L8.58581 4.64033C8.38139 5.66333 7.47481 6.40675 6.43164 6.40675C6.05214 6.40675 5.74414 6.09875 5.74414 5.71925C5.74414 5.33975 6.05214 5.03175 6.43164 5.03175C6.82214 5.03175 7.16131 4.75308 7.23831 4.36991L7.46106 3.25525C7.68747 2.40091 8.42722 1.8335 9.26872 1.8335H13.149C13.9905 1.8335 14.7302 2.40091 14.9475 3.214L15.1803 4.36991C15.2564 4.75308 15.5956 5.03175 15.9861 5.03175C16.3656 5.03175 16.6736 5.33975 16.6736 5.71925C16.6736 6.09875 16.3656 6.40675 15.9861 6.40675Z" fill="white"/>
</svg>
