<svg width="24" height="24" viewBox="0 0 24 24" fill="none" xmlns="http://www.w3.org/2000/svg">
<path fill-rule="evenodd" clip-rule="evenodd" d="M5 3.5C5 3.22386 5.22386 3 5.5 3H16H16.1808H16.5V14.3855C16.5 14.6858 16.4098 14.9792 16.2412 15.2277L12.1759 21.2188L11.3706 20.4135C10.7203 19.7632 10.4795 18.8083 10.7438 17.9274L11.5789 15.1437L11.772 14.5H11.1H9.00221L9.00078 14.5H9L7 14.5L4.5 14.5C3.39543 14.5 2.5 13.6046 2.5 12.5C2.5 11.7498 2.91279 11.0954 3.526 10.7527L4.11995 10.4207L3.6257 9.95304C3.23975 9.58785 3 9.07233 3 8.5C3 7.533 3.68678 6.72528 4.59947 6.54002L5 6.45871V6.05001V3.5ZM17.5 3V14L20.8916 14C21.0017 14 21.1422 13.9407 21.2731 13.7636C21.4038 13.5866 21.4998 13.3182 21.4998 13V4C21.4998 3.68177 21.4038 3.41345 21.2731 3.23644C21.1422 3.05931 21.0017 3 20.8916 3H17.5ZM17.4233 15C17.3522 15.2802 17.2328 15.5475 17.0687 15.7892L13.0034 21.7803C12.6509 22.2997 11.9126 22.3697 11.4688 21.9259L10.6635 21.1206C9.75303 20.2101 9.41599 18.8733 9.78598 17.64L10.428 15.5H9.00221H9.00143L9 15.5L7 15.5L4.5 15.5C2.84315 15.5 1.5 14.1569 1.5 12.5C1.5 11.5895 1.90572 10.7743 2.54498 10.2245C2.20187 9.7368 2 9.14175 2 8.5C2 7.19343 2.83485 6.08276 4 5.67086V3.5C4 2.67157 4.67157 2 5.5 2H16H16.1808H17H17.5H20.8916C21.3936 2 21.8072 2.27648 22.0774 2.64224C22.3477 3.00813 22.4998 3.48981 22.4998 4V13C22.4998 13.5102 22.3477 13.9919 22.0774 14.3578C21.8072 14.7235 21.3936 15 20.8916 15L17.4233 15Z" fill="white"/>
</svg>
