<svg width="29" height="28" viewBox="0 0 29 28" fill="none" xmlns="http://www.w3.org/2000/svg">
<g id="Bold / Arrows Action / Download Minimalistic">
<g id="Vector">
<path d="M14.845 19.2571C14.6792 19.4384 14.4449 19.5417 14.1992 19.5417C13.9536 19.5417 13.7192 19.4384 13.5534 19.2571L8.88678 14.1529C8.5607 13.7963 8.58548 13.2428 8.94213 12.9167C9.29878 12.5906 9.85225 12.6154 10.1783 12.9721L13.3242 16.4129V3.5C13.3242 3.01675 13.716 2.625 14.1992 2.625C14.6825 2.625 15.0742 3.01675 15.0742 3.5V16.4129L18.2201 12.9721C18.5462 12.6154 19.0997 12.5906 19.4563 12.9167C19.813 13.2428 19.8377 13.7963 19.5117 14.1529L14.845 19.2571Z" fill="white"/>
<path d="M4.57422 17.5C4.57422 17.0168 4.18247 16.625 3.69922 16.625C3.21597 16.625 2.82422 17.0168 2.82422 17.5V17.564C2.8242 19.1595 2.82418 20.4456 2.96016 21.457C3.10135 22.5072 3.40339 23.3914 4.10563 24.0936C4.80786 24.7958 5.69205 25.0979 6.74218 25.2391C7.75364 25.375 9.03968 25.375 10.6352 25.375H17.7632C19.3588 25.375 20.6448 25.375 21.6563 25.2391C22.7064 25.0979 23.5906 24.7958 24.2928 24.0936C24.995 23.3914 25.2971 22.5072 25.4383 21.457C25.5743 20.4456 25.5742 19.1595 25.5742 17.564V17.5C25.5742 17.0168 25.1825 16.625 24.6992 16.625C24.216 16.625 23.8242 17.0168 23.8242 17.5C23.8242 19.1747 23.8224 20.3426 23.7039 21.2239C23.5888 22.0799 23.3783 22.5333 23.0554 22.8562C22.7325 23.179 22.2792 23.3896 21.4231 23.5047C20.5418 23.6231 19.3739 23.625 17.6992 23.625H10.6992C9.02457 23.625 7.8566 23.6231 6.97536 23.5047C6.11929 23.3896 5.66596 23.179 5.34307 22.8562C5.02017 22.5333 4.80965 22.0799 4.69456 21.2239C4.57608 20.3426 4.57422 19.1747 4.57422 17.5Z" fill="white"/>
</g>
</g>
</svg>
