<svg width="24" height="24" viewBox="0 0 24 24" fill="none" xmlns="http://www.w3.org/2000/svg">
<path d="M12.8657 20.5796H20.3032" stroke="white" stroke-width="1.5" stroke-linecap="round"/>
<path d="M13.2446 6.51296L5.61462 14.1428C5.10532 14.6521 4.85067 14.9068 4.65099 15.1996C4.47375 15.4595 4.329 15.7411 4.21974 16.0388C4.09665 16.3742 4.03459 16.7359 3.91048 17.4593L3.36572 20.6344L6.5408 20.0896C7.26421 19.9655 7.62591 19.9034 7.96128 19.7803C8.25895 19.6711 8.54063 19.5263 8.80052 19.3491C9.09331 19.1494 9.34796 18.8948 9.85725 18.3855L17.4872 10.7556M13.2446 6.51296L15.2445 4.51303C15.7898 3.9678 16.0624 3.69519 16.361 3.55396C16.9291 3.28522 17.606 3.30515 18.191 3.60785C18.4984 3.76693 18.7875 4.05609 19.3658 4.6344C19.9441 5.2127 20.2332 5.50184 20.3923 5.80926C20.695 6.39421 20.7149 7.07111 20.4462 7.63923C20.3049 7.93781 20.0323 8.21041 19.4871 8.75563L17.4872 10.7556M13.2446 6.51296L17.4872 10.7556" stroke="white" stroke-width="1.5" stroke-linecap="round" stroke-linejoin="round"/>
</svg>
