<svg width="24" height="24" viewBox="0 0 24 24" fill="none" xmlns="http://www.w3.org/2000/svg">
<path d="M13.0001 6.99987L17.0001 10.9999M3 21L3.61997 17.9002C3.76122 17.1939 3.83185 16.8407 3.96101 16.5114C4.07566 16.2192 4.22432 15.9414 4.40392 15.6839C4.60627 15.3937 4.86092 15.1391 5.37023 14.6298L15.0001 4.99998C15.5454 4.45476 15.818 4.18215 16.1121 4.03641C16.6716 3.75911 17.3286 3.75912 17.8882 4.03643C18.1823 4.18217 18.4549 4.45479 19.0001 5.00003V5.00003C19.5453 5.54525 19.8179 5.81786 19.9636 6.11194C20.2409 6.67151 20.2409 7.32848 19.9636 7.88804C19.8179 8.18212 19.5453 8.45472 19.0001 8.99994L9.37021 18.6298C8.86091 19.1391 8.60626 19.3937 8.31613 19.5961C8.05861 19.7757 7.78084 19.9243 7.48856 20.039C7.15927 20.1681 6.80613 20.2388 6.09987 20.38L3 21Z" stroke="white" stroke-width="1.5" stroke-linecap="round" stroke-linejoin="round"/>
<path d="M12.375 20.875H19.8125" stroke="white" stroke-width="1.5" stroke-linecap="round"/>
</svg>
