<svg width="24" height="24" viewBox="0 0 24 24" fill="none" xmlns="http://www.w3.org/2000/svg">
<path d="M12.8652 20.5796H20.3027" stroke="white" stroke-width="1.5" stroke-linecap="round"/>
<path d="M13.2441 6.51296L5.61414 14.1428C5.10483 14.6521 4.85018 14.9068 4.6505 15.1996C4.47326 15.4595 4.32851 15.7411 4.21926 16.0388C4.09616 16.3742 4.0341 16.7359 3.90999 17.4593L3.36523 20.6344L6.54032 20.0896C7.26372 19.9655 7.62542 19.9034 7.96079 19.7803C8.25846 19.6711 8.54015 19.5263 8.80003 19.3491C9.09282 19.1494 9.34747 18.8948 9.85677 18.3855L17.4867 10.7556M13.2441 6.51296L15.244 4.51303C15.7893 3.9678 16.0619 3.69519 16.3605 3.55396C16.9286 3.28522 17.6055 3.30515 18.1905 3.60785C18.4979 3.76693 18.787 4.05609 19.3653 4.6344C19.9436 5.2127 20.2328 5.50184 20.3918 5.80926C20.6945 6.39421 20.7144 7.07111 20.4457 7.63923C20.3044 7.93781 20.0318 8.21041 19.4866 8.75563L17.4867 10.7556M13.2441 6.51296L17.4867 10.7556" stroke="white" stroke-width="1.5" stroke-linecap="round" stroke-linejoin="round"/>
</svg>
