<svg width="24" height="24" viewBox="0 0 24 24" fill="none" xmlns="http://www.w3.org/2000/svg">
<path d="M9.42424 9.42424L9.23493 8.69853C8.97222 8.76706 8.76706 8.97222 8.69853 9.23493L9.42424 9.42424ZM14.5758 14.5758L14.7651 15.3015C15.0278 15.2329 15.2329 15.0278 15.3015 14.7651L14.5758 14.5758ZM15.3936 7.86703L15.2042 7.14132L15.3936 7.86703ZM16.133 8.60645L16.8587 8.79577L16.133 8.60645ZM7.86703 15.3936L8.59274 15.5829L7.86703 15.3936ZM8.60645 16.133L8.41713 15.4073L8.60645 16.133ZM21.25 12C21.25 17.1086 17.1086 21.25 12 21.25V22.75C17.9371 22.75 22.75 17.9371 22.75 12H21.25ZM12 21.25C6.89137 21.25 2.75 17.1086 2.75 12H1.25C1.25 17.9371 6.06294 22.75 12 22.75V21.25ZM2.75 12C2.75 6.89137 6.89137 2.75 12 2.75V1.25C6.06294 1.25 1.25 6.06294 1.25 12H2.75ZM12 2.75C17.1086 2.75 21.25 6.89137 21.25 12H22.75C22.75 6.06294 17.9371 1.25 12 1.25V2.75ZM8.59274 15.5829L10.15 9.61356L8.69853 9.23493L7.14132 15.2042L8.59274 15.5829ZM9.61356 10.15L15.5829 8.59274L15.2042 7.14132L9.23493 8.69853L9.61356 10.15ZM15.4073 8.41713L13.85 14.3864L15.3015 14.7651L16.8587 8.79577L15.4073 8.41713ZM14.3864 13.85L8.41713 15.4073L8.79577 16.8587L14.7651 15.3015L14.3864 13.85ZM15.5829 8.59274C15.4765 8.6205 15.3795 8.52353 15.4073 8.41713L16.8587 8.79577C17.1202 7.79338 16.2066 6.87983 15.2042 7.14132L15.5829 8.59274ZM7.14132 15.2042C6.87983 16.2066 7.79338 17.1202 8.79577 16.8587L8.41713 15.4073C8.52353 15.3795 8.6205 15.4765 8.59274 15.5829L7.14132 15.2042Z" fill="white"/>
</svg>
