<svg width="24" height="24" viewBox="0 0 24 24" fill="none" xmlns="http://www.w3.org/2000/svg">
<path d="M9.15 13.9H12M12 13.9H14.85M12 13.9V11.05M12 13.9V16.75M7.3 2.5H8.50088C9.17248 2.5 9.50828 2.5 9.81397 2.56436C10.4981 2.70839 11.1104 3.08684 11.5452 3.63432C11.7395 3.87895 11.8897 4.1793 12.19 4.78V4.78C12.3902 5.18047 12.4903 5.3807 12.6199 5.54378C12.9097 5.90877 13.3179 6.16107 13.774 6.25709C13.9778 6.3 14.2017 6.3 14.6494 6.3H15.1C17.3402 6.3 18.4603 6.3 19.316 6.73597C20.0686 7.11947 20.6805 7.73139 21.064 8.48404C21.5 9.33968 21.5 10.4598 21.5 12.7V15.1C21.5 17.3402 21.5 18.4603 21.064 19.316C20.6805 20.0686 20.0686 20.6805 19.316 21.064C18.4603 21.5 17.3402 21.5 15.1 21.5H8.9C6.65979 21.5 5.53968 21.5 4.68404 21.064C3.93139 20.6805 3.31947 20.0686 2.93597 19.316C2.5 18.4603 2.5 17.3402 2.5 15.1V7.3C2.5 5.61984 2.5 4.77976 2.82698 4.13803C3.1146 3.57354 3.57354 3.1146 4.13803 2.82698C4.77976 2.5 5.61984 2.5 7.3 2.5Z" stroke="white" stroke-width="1.5" stroke-linecap="round" stroke-linejoin="round"/>
</svg>
