<svg width="22" height="22" viewBox="0 0 22 22" fill="none" xmlns="http://www.w3.org/2000/svg">
<path d="M8.39635 10.6516C8.36885 10.6516 8.35052 10.6516 8.32302 10.6516C8.27719 10.6424 8.21302 10.6424 8.15802 10.6516C5.49969 10.5691 3.49219 8.47908 3.49219 5.90325C3.49219 3.28159 5.62802 1.14575 8.24969 1.14575C10.8714 1.14575 13.0072 3.28159 13.0072 5.90325C12.998 8.47908 10.9814 10.5691 8.42385 10.6516C8.41469 10.6516 8.40552 10.6516 8.39635 10.6516ZM8.24969 2.52075C6.38885 2.52075 4.86719 4.04242 4.86719 5.90325C4.86719 7.73659 6.29719 9.21242 8.12135 9.27658C8.17635 9.26742 8.29552 9.26742 8.41469 9.27658C10.2114 9.19409 11.623 7.71825 11.6322 5.90325C11.6322 4.04242 10.1105 2.52075 8.24969 2.52075Z" fill="white"/>
<path d="M15.1612 10.7707C15.1337 10.7707 15.1062 10.7707 15.0787 10.7615C14.7028 10.7982 14.3178 10.5323 14.2812 10.1565C14.2445 9.78067 14.4737 9.4415 14.8495 9.39567C14.9595 9.3865 15.0787 9.3865 15.1795 9.3865C16.5178 9.31317 17.5628 8.21317 17.5628 6.86567C17.5628 5.47234 16.4353 4.34484 15.042 4.34484C14.6662 4.354 14.3545 4.04234 14.3545 3.6665C14.3545 3.29067 14.6662 2.979 15.042 2.979C17.187 2.979 18.9378 4.72984 18.9378 6.87484C18.9378 8.98317 17.2878 10.6882 15.1887 10.7707C15.1795 10.7707 15.1703 10.7707 15.1612 10.7707Z" fill="white"/>
<path d="M8.40596 20.6707C6.6093 20.6707 4.80346 20.2123 3.43763 19.2957C2.16346 18.4523 1.4668 17.2973 1.4668 16.0415C1.4668 14.7857 2.16346 13.6215 3.43763 12.769C6.18763 10.9448 10.6426 10.9448 13.3743 12.769C14.6393 13.6123 15.3451 14.7673 15.3451 16.0232C15.3451 17.279 14.6485 18.4432 13.3743 19.2957C11.9993 20.2123 10.2026 20.6707 8.40596 20.6707ZM4.19846 13.924C3.31846 14.5107 2.8418 15.2623 2.8418 16.0507C2.8418 16.8298 3.32763 17.5815 4.19846 18.159C6.48096 19.6898 10.331 19.6898 12.6135 18.159C13.4935 17.5723 13.9701 16.8207 13.9701 16.0323C13.9701 15.2532 13.4843 14.5015 12.6135 13.924C10.331 12.4023 6.48096 12.4023 4.19846 13.924Z" fill="white"/>
<path d="M16.8113 19.0209C16.4905 19.0209 16.2063 18.8009 16.1422 18.4709C16.0688 18.095 16.3072 17.7375 16.6738 17.655C17.2513 17.5359 17.783 17.3067 18.1955 16.9859C18.718 16.5917 19.0022 16.0967 19.0022 15.5742C19.0022 15.0517 18.718 14.5567 18.2047 14.1717C17.8013 13.86 17.2972 13.64 16.7013 13.5025C16.3347 13.42 16.0963 13.0534 16.1788 12.6775C16.2613 12.3109 16.628 12.0725 17.0038 12.155C17.7922 12.3292 18.4797 12.6409 19.0388 13.0717C19.8913 13.7134 20.3772 14.6209 20.3772 15.5742C20.3772 16.5275 19.8822 17.435 19.0297 18.0859C18.4613 18.5259 17.7463 18.8467 16.958 19.0025C16.903 19.0209 16.8572 19.0209 16.8113 19.0209Z" fill="white"/>
</svg>
