<svg width="24" height="24" viewBox="0 0 24 24" fill="none" xmlns="http://www.w3.org/2000/svg">
<path d="M9.15 2.5L9.15 21.5M14.85 2.5L14.85 21.5M2.5 14.85H21.5M2.5 9.15H21.5M4.1 21.5H19.9C20.4601 21.5 20.7401 21.5 20.954 21.391C21.1422 21.2951 21.2951 21.1422 21.391 20.954C21.5 20.7401 21.5 20.4601 21.5 19.9V4.1C21.5 3.53995 21.5 3.25992 21.391 3.04601C21.2951 2.85785 21.1422 2.70487 20.954 2.60899C20.7401 2.5 20.4601 2.5 19.9 2.5H4.1C3.53995 2.5 3.25992 2.5 3.04601 2.60899C2.85785 2.70487 2.70487 2.85785 2.60899 3.04601C2.5 3.25992 2.5 3.53995 2.5 4.1V19.9C2.5 20.4601 2.5 20.7401 2.60899 20.954C2.70487 21.1422 2.85785 21.2951 3.04601 21.391C3.25992 21.5 3.53995 21.5 4.1 21.5Z" stroke="white" stroke-width="1.5" stroke-linecap="round" stroke-linejoin="round"/>
</svg>
