<svg width="24" height="24" viewBox="0 0 24 24" fill="none" xmlns="http://www.w3.org/2000/svg">
<path fill-rule="evenodd" clip-rule="evenodd" d="M19 20.7188C19 20.9949 18.7761 21.2188 18.5 21.2188H8H7.81918H7.5V9.83326C7.5 9.53293 7.59015 9.23952 7.75879 8.99101L11.8241 2.99998L12.6294 3.80525C13.2797 4.45558 13.5205 5.41047 13.2562 6.29139L12.4211 9.07508L12.228 9.71875H12.9H14.9978L14.9992 9.71875H15L17 9.71875L19.5 9.71875C20.6046 9.71875 21.5 10.6142 21.5 11.7187C21.5 12.4689 21.0872 13.1233 20.474 13.4661L19.88 13.798L20.3743 14.2657C20.7602 14.6309 21 15.1464 21 15.7188C21 16.6858 20.3132 17.4935 19.4005 17.6787L19 17.76V18.1687V20.7188ZM6.5 21.2188V10.2188L3.10836 10.2187C2.99828 10.2187 2.85779 10.2781 2.72692 10.4552C2.59616 10.6322 2.50019 10.9005 2.50019 11.2187V20.2188C2.50019 20.537 2.59616 20.8053 2.72692 20.9823C2.85779 21.1594 2.99828 21.2188 3.10836 21.2188H6.5ZM6.5767 9.21875C6.64775 8.93856 6.76725 8.67129 6.93131 8.42951L10.9966 2.43848C11.3491 1.91907 12.0874 1.84902 12.5312 2.29288L13.3365 3.09814C14.247 4.00861 14.584 5.34545 14.214 6.57874L13.572 8.71875H14.9978H14.9986L15 8.71875L17 8.71875L19.5 8.71875C21.1569 8.71875 22.5 10.0619 22.5 11.7187C22.5 12.6292 22.0943 13.4445 21.455 13.9942C21.7981 14.482 22 15.077 22 15.7188C22 17.0253 21.1652 18.136 20 18.5479V20.7188C20 21.5472 19.3284 22.2188 18.5 22.2188H8H7.81918H7H6.5H3.10836C2.60641 22.2188 2.19282 21.9423 1.92261 21.5765C1.6523 21.2106 1.50019 20.7289 1.50019 20.2188V11.2187C1.50019 10.7086 1.6523 10.2269 1.92261 9.86098C2.19282 9.49523 2.60641 9.21875 3.10836 9.21875L6.5767 9.21875Z" fill="white"/>
</svg>
