<svg width="24" height="24" viewBox="0 0 24 24" fill="none" xmlns="http://www.w3.org/2000/svg">
<g id="Line/List">
<path id="Vector" d="M11 20L22 20M11 12L22 12M11 4H22M3.6 22H4.4C4.96005 22 5.24008 22 5.45399 21.891C5.64215 21.7951 5.79513 21.6422 5.89101 21.454C6 21.2401 6 20.9601 6 20.4V19.6C6 19.0399 6 18.7599 5.89101 18.546C5.79513 18.3578 5.64215 18.2049 5.45399 18.109C5.24008 18 4.96005 18 4.4 18H3.6C3.03995 18 2.75992 18 2.54601 18.109C2.35785 18.2049 2.20487 18.3578 2.10899 18.546C2 18.7599 2 19.0399 2 19.6V20.4C2 20.9601 2 21.2401 2.10899 21.454C2.20487 21.6422 2.35785 21.7951 2.54601 21.891C2.75992 22 3.03995 22 3.6 22ZM3.6 14H4.4C4.96005 14 5.24008 14 5.45399 13.891C5.64215 13.7951 5.79513 13.6422 5.89101 13.454C6 13.2401 6 12.9601 6 12.4V11.6C6 11.0399 6 10.7599 5.89101 10.546C5.79513 10.3578 5.64215 10.2049 5.45399 10.109C5.24008 10 4.96005 10 4.4 10H3.6C3.03995 10 2.75992 10 2.54601 10.109C2.35785 10.2049 2.20487 10.3578 2.10899 10.546C2 10.7599 2 11.0399 2 11.6V12.4C2 12.9601 2 13.2401 2.10899 13.454C2.20487 13.6422 2.35785 13.7951 2.54601 13.891C2.75992 14 3.03995 14 3.6 14ZM3.6 6H4.4C4.96005 6 5.24008 6 5.45399 5.89101C5.64215 5.79513 5.79513 5.64215 5.89101 5.45399C6 5.24008 6 4.96005 6 4.4V3.6C6 3.03995 6 2.75992 5.89101 2.54601C5.79513 2.35785 5.64215 2.20487 5.45399 2.10899C5.24008 2 4.96005 2 4.4 2H3.6C3.03995 2 2.75992 2 2.54601 2.10899C2.35785 2.20487 2.20487 2.35785 2.10899 2.54601C2 2.75992 2 3.03995 2 3.6V4.4C2 4.96005 2 5.24008 2.10899 5.45399C2.20487 5.64215 2.35785 5.79513 2.54601 5.89101C2.75992 6 3.03995 6 3.6 6Z" stroke="white" stroke-width="1.5" stroke-linecap="round" stroke-linejoin="round"/>
</g>
</svg>
