<svg width="25" height="24" viewBox="0 0 25 24" fill="none" xmlns="http://www.w3.org/2000/svg">
<g id="Linear / Essentional, UI / Pin">
<path id="Vector" d="M16.0909 4.9502L16.6215 4.42014V4.42014L16.0909 4.9502ZM19.1732 8.03562L18.6426 8.56568L19.1732 8.03562ZM8.83994 19.429L8.30934 19.9591L8.83994 19.429ZM4.72325 15.3081L5.25385 14.7781L4.72325 15.3081ZM17.6685 14.9943L17.4047 14.2922L17.6685 14.9943ZM15.7514 15.7146L16.0152 16.4167H16.0152L15.7514 15.7146ZM8.43376 8.38177L7.72954 8.12375L8.43376 8.38177ZM9.12822 6.48636L9.83244 6.74438V6.74438L9.12822 6.48636ZM5.9466 10.6735L6.14594 11.3965L5.9466 10.6735ZM7.40323 10.1351L6.96502 9.52646L6.96502 9.52646L7.40323 10.1351ZM7.77738 9.79038L8.34821 10.2768H8.34821L7.77738 9.79038ZM14.3526 16.3805L14.8435 16.9475L14.8435 16.9475L14.3526 16.3805ZM13.4821 18.2012L12.759 18.0022V18.0022L13.4821 18.2012ZM14.0185 16.7466L13.4091 16.3094L13.4091 16.3094L14.0185 16.7466ZM2.82002 12.7552L2.07004 12.76L2.07004 12.76L2.82002 12.7552ZM3.03202 11.9521L2.3821 11.5778H2.3821L3.03202 11.9521ZM11.4068 21.3431L11.4079 20.5931H11.4079L11.4068 21.3431ZM12.1948 21.1347L11.8231 20.4833L11.8231 20.4833L12.1948 21.1347ZM11.7988 2.03606L11.9604 2.76845L11.7988 2.03606ZM1.57096 21.4699C1.27822 21.763 1.27846 22.2379 1.5715 22.5306C1.86454 22.8233 2.33942 22.8231 2.63216 22.5301L1.57096 21.4699ZM7.28539 17.8721C7.57813 17.5791 7.57789 17.1042 7.28485 16.8114C6.99181 16.5187 6.51693 16.5189 6.22419 16.812L7.28539 17.8721ZM15.5603 5.48026L18.6426 8.56568L19.7038 7.50556L16.6215 4.42014L15.5603 5.48026ZM9.37054 18.8989L5.25385 14.7781L4.19265 15.8382L8.30934 19.9591L9.37054 18.8989ZM17.4047 14.2922L15.4876 15.0125L16.0152 16.4167L17.9323 15.6964L17.4047 14.2922ZM9.13798 8.63979L9.83244 6.74438L8.424 6.22834L7.72954 8.12375L9.13798 8.63979ZM6.14594 11.3965C6.85739 11.2003 7.39875 11.0625 7.84144 10.7438L6.96502 9.52646C6.79209 9.65097 6.56757 9.72428 5.74727 9.95044L6.14594 11.3965ZM7.72954 8.12375C7.43659 8.92332 7.34494 9.14153 7.20655 9.30391L8.34821 10.2768C8.70197 9.86175 8.88386 9.33337 9.13798 8.63979L7.72954 8.12375ZM7.84143 10.7438C8.02852 10.6091 8.19868 10.4523 8.34821 10.2768L7.20655 9.30391C7.13526 9.38757 7.05416 9.46229 6.96502 9.52646L7.84143 10.7438ZM15.4876 15.0125C14.7985 15.2714 14.2732 15.4571 13.8616 15.8135L14.8435 16.9475C15.0044 16.8082 15.2208 16.7152 16.0152 16.4167L15.4876 15.0125ZM14.2053 18.4001C14.4305 17.5813 14.5036 17.3569 14.6278 17.1838L13.4091 16.3094C13.0917 16.7517 12.9545 17.2919 12.759 18.0022L14.2053 18.4001ZM13.8616 15.8135C13.6919 15.9605 13.54 16.1269 13.4091 16.3094L14.6278 17.1838C14.6902 17.0968 14.7627 17.0175 14.8435 16.9475L13.8616 15.8135ZM5.25385 14.7781C4.60771 14.1313 4.16955 13.691 3.88522 13.3338C3.59991 12.9753 3.57045 12.8201 3.57001 12.7505L2.07004 12.76C2.07372 13.3422 2.36283 13.8297 2.71159 14.2679C3.06132 14.7073 3.57272 15.2176 4.19265 15.8382L5.25385 14.7781ZM5.74727 9.95044C4.90204 10.1835 4.20552 10.3743 3.68453 10.5835C3.16497 10.792 2.67272 11.0732 2.3821 11.5778L3.68194 12.3264C3.71656 12.2663 3.81849 12.146 4.24336 11.9755C4.66679 11.8055 5.26494 11.6394 6.14594 11.3965L5.74727 9.95044ZM3.57001 12.7505C3.56907 12.6016 3.60772 12.4553 3.68194 12.3264L2.3821 11.5778C2.1751 11.9372 2.06742 12.3452 2.07004 12.76L3.57001 12.7505ZM8.30934 19.9591C8.9332 20.5836 9.44621 21.0987 9.88803 21.4506C10.3286 21.8015 10.8195 22.0922 11.4057 22.0931L11.4079 20.5931C11.3385 20.593 11.183 20.5644 10.8225 20.2773C10.4634 19.9912 10.0208 19.5499 9.37054 18.8989L8.30934 19.9591ZM12.759 18.0022C12.5148 18.8897 12.3478 19.4924 12.1767 19.9188C12.0049 20.3467 11.8837 20.4487 11.8231 20.4833L12.5666 21.7861C13.0756 21.4956 13.3588 21.0004 13.5687 20.4775C13.7792 19.9532 13.971 19.2516 14.2053 18.4001L12.759 18.0022ZM11.4057 22.0931C11.8128 22.0937 12.213 21.9879 12.5666 21.7861L11.8231 20.4833C11.6966 20.5555 11.5535 20.5933 11.4079 20.5931L11.4057 22.0931ZM18.6426 8.56568C19.7061 9.63022 20.4418 10.3695 20.8933 10.9788C21.3368 11.5774 21.3878 11.8959 21.3337 12.1464L22.7998 12.4634C22.9896 11.5854 22.6397 10.8162 22.0985 10.0857C21.5651 9.36592 20.732 8.53486 19.7038 7.50556L18.6426 8.56568ZM17.9323 15.6964C19.2937 15.1849 20.3955 14.773 21.1786 14.3384C21.9734 13.8973 22.6099 13.3416 22.7998 12.4634L21.3337 12.1464C21.2795 12.3968 21.1017 12.6655 20.4507 13.0268C19.788 13.3946 18.8128 13.7632 17.4047 14.2922L17.9323 15.6964ZM16.6215 4.42014C15.5856 3.3832 14.7496 2.54353 14.0261 2.00638C13.2924 1.46165 12.519 1.10912 11.6372 1.30367L11.9604 2.76845C12.2101 2.71335 12.5293 2.7633 13.132 3.21075C13.7449 3.66579 14.4892 4.40801 15.5603 5.48026L16.6215 4.42014ZM9.83244 6.74438C10.354 5.32075 10.7177 4.33403 11.0827 3.66315C11.4418 3.00338 11.7105 2.82357 11.9604 2.76845L11.6372 1.30367C10.7556 1.49819 10.2021 2.14332 9.76518 2.94618C9.33434 3.73793 8.92844 4.85154 8.424 6.22834L9.83244 6.74438ZM2.63216 22.5301L7.28539 17.8721L6.22419 16.812L1.57096 21.4699L2.63216 22.5301Z" fill="white"/>
</g>
</svg>
