<svg width="24" height="24" viewBox="0 0 24 24" fill="none" xmlns="http://www.w3.org/2000/svg">
<path fill-rule="evenodd" clip-rule="evenodd" d="M11.9992 2C10.2107 2 8.7608 3.4499 8.7608 5.23843V12C8.7608 13.7885 10.2107 15.2384 11.9992 15.2384C13.7878 15.2384 15.2377 13.7885 15.2377 12V5.23843C15.2377 3.4499 13.7878 2 11.9992 2ZM9.89959 5.23843C9.89959 4.07883 10.8396 3.13879 11.9992 3.13879C13.1588 3.13879 14.0989 4.07883 14.0989 5.23843V12C14.0989 13.1596 13.1588 14.0996 11.9992 14.0996C10.8396 14.0996 9.89959 13.1596 9.89959 12V5.23843Z" fill="white"/>
<path d="M7.72877 20.8612C7.4143 20.8612 7.15937 21.1161 7.15937 21.4306C7.15937 21.7451 7.4143 22 7.72877 22H16.2697C16.5842 22 16.8391 21.7451 16.8391 21.4306C16.8391 21.1161 16.5842 20.8612 16.2697 20.8612H12.5686V18.5535C15.8956 18.4047 18.5473 15.6603 18.5473 12.2966V10.1851C18.5473 9.87059 18.2923 9.61567 17.9779 9.61567C17.6634 9.61567 17.4085 9.87059 17.4085 10.1851V12.2966C17.4085 15.1268 15.1141 17.4211 12.2839 17.4211H11.7145C8.88431 17.4211 6.58996 15.1268 6.58996 12.2966V10.1851C6.58996 9.87059 6.33504 9.61567 6.02057 9.61567C5.7061 9.61567 5.45117 9.87059 5.45117 10.1851V12.2966C5.45117 15.6603 8.10282 18.4047 11.4298 18.5535V20.8612H7.72877Z" fill="white"/>
</svg>
