<svg width="25" height="24" viewBox="0 0 25 24" fill="none" xmlns="http://www.w3.org/2000/svg">
<g id="Icons / Line / Setting">
<circle id="Vector" cx="12.5" cy="12" r="3" stroke="black" stroke-width="1.5"/>
<path id="Vector_2" d="M14.2658 2.15224C13.8983 2 13.4324 2 12.5005 2C11.5686 2 11.1027 2 10.7351 2.15224C10.2451 2.35523 9.85571 2.74458 9.65272 3.23463C9.56005 3.45834 9.52379 3.7185 9.5096 4.09799C9.48875 4.65568 9.20274 5.17189 8.71943 5.45093C8.23612 5.72996 7.64608 5.71954 7.15268 5.45876C6.81693 5.2813 6.57349 5.18262 6.33342 5.15102C5.80753 5.08178 5.27567 5.22429 4.85485 5.5472C4.53923 5.78938 4.30626 6.1929 3.84032 6.99993C3.37438 7.80697 3.14141 8.21048 3.08948 8.60491C3.02025 9.1308 3.16276 9.66266 3.48566 10.0835C3.63305 10.2756 3.84019 10.437 4.16167 10.639C4.63429 10.936 4.93838 11.4419 4.93835 12C4.93832 12.5581 4.63424 13.0639 4.16167 13.3608C3.84013 13.5629 3.63297 13.7244 3.48557 13.9165C3.16266 14.3373 3.02015 14.8691 3.08938 15.395C3.14131 15.7894 3.37428 16.193 3.84022 17C4.30616 17.807 4.53913 18.2106 4.85475 18.4527C5.27557 18.7756 5.80743 18.9181 6.33333 18.8489C6.57338 18.8173 6.81681 18.7186 7.15253 18.5412C7.64596 18.2804 8.23605 18.27 8.71939 18.549C9.20273 18.8281 9.48874 19.3443 9.5096 19.9021C9.5238 20.2815 9.56006 20.5417 9.65272 20.7654C9.85571 21.2554 10.2451 21.6448 10.7351 21.8478C11.1027 22 11.5686 22 12.5005 22C13.4324 22 13.8983 22 14.2658 21.8478C14.7559 21.6448 15.1452 21.2554 15.3482 20.7654C15.4409 20.5417 15.4772 20.2815 15.4914 19.902C15.5122 19.3443 15.7982 18.8281 16.2815 18.549C16.7648 18.2699 17.3549 18.2804 17.8484 18.5412C18.1841 18.7186 18.4275 18.8172 18.6675 18.8488C19.1934 18.9181 19.7253 18.7756 20.1461 18.4527C20.4617 18.2105 20.6947 17.807 21.1606 16.9999C21.6266 16.1929 21.8595 15.7894 21.9115 15.395C21.9807 14.8691 21.8382 14.3372 21.5153 13.9164C21.3679 13.7243 21.1607 13.5628 20.8392 13.3608C20.3666 13.0639 20.0626 12.558 20.0626 11.9999C20.0626 11.4418 20.3667 10.9361 20.8392 10.6392C21.1608 10.4371 21.368 10.2757 21.5154 10.0835C21.8383 9.66273 21.9808 9.13087 21.9116 8.60497C21.8596 8.21055 21.6267 7.80703 21.1607 7C20.6948 6.19297 20.4618 5.78945 20.1462 5.54727C19.7254 5.22436 19.1935 5.08185 18.6676 5.15109C18.4276 5.18269 18.1841 5.28136 17.8484 5.4588C17.355 5.71959 16.7649 5.73002 16.2816 5.45096C15.7982 5.17191 15.5122 4.65566 15.4914 4.09794C15.4772 3.71848 15.4409 3.45833 15.3482 3.23463C15.1452 2.74458 14.7559 2.35523 14.2658 2.15224Z" stroke="black" stroke-width="1.5"/>
</g>
</svg>
