<svg width="24" height="24" viewBox="0 0 24 24" fill="none" xmlns="http://www.w3.org/2000/svg">
<path d="M10.8332 13.1668L12.3114 17.0103C13.3275 19.6522 13.8356 20.9732 14.5178 21.3055C15.1078 21.5929 15.8036 21.5601 16.364 21.2185C17.012 20.8236 17.3936 19.4607 18.1569 16.7349L20.9151 6.88448C21.3983 5.15873 21.6399 4.29586 21.4156 3.70374C21.2201 3.18749 20.8126 2.77992 20.2963 2.5844C19.7042 2.36014 18.8413 2.60175 17.1156 3.08496L7.26508 5.8431C4.53929 6.60632 3.1764 6.98793 2.78148 7.63589C2.43991 8.1963 2.40713 8.89204 2.69449 9.48209C3.02673 10.1643 4.34771 10.6724 6.98966 11.6885L10.8332 13.1668ZM10.8332 13.1668L13.2415 10.7586" stroke="white" stroke-width="1.5" stroke-linecap="round" stroke-linejoin="round"/>
</svg>
