<svg width="24" height="24" viewBox="0 0 24 24" fill="none" xmlns="http://www.w3.org/2000/svg">
<path d="M6 9V9C6 8.06812 6 7.60218 6.15224 7.23463C6.35523 6.74458 6.74458 6.35523 7.23463 6.15224C7.60218 6 8.06812 6 9 6H14.8C15.9201 6 16.4802 6 16.908 6.21799C17.2843 6.40973 17.5903 6.71569 17.782 7.09202C18 7.51984 18 8.0799 18 9.2V15C18 15.9319 18 16.3978 17.8478 16.7654C17.6448 17.2554 17.2554 17.6448 16.7654 17.8478C16.3978 18 15.9319 18 15 18V18M10 5V5C10 4.06812 10 3.60218 10.1522 3.23463C10.3552 2.74458 10.7446 2.35523 11.2346 2.15224C11.6022 2 12.0681 2 13 2H18.8C19.9201 2 20.4802 2 20.908 2.21799C21.2843 2.40973 21.5903 2.71569 21.782 3.09202C22 3.51984 22 4.0799 22 5.2V11C22 11.9319 22 12.3978 21.8478 12.7654C21.6448 13.2554 21.2554 13.6448 20.7654 13.8478C20.3978 14 19.9319 14 19 14V14M5.2 22H10.8C11.9201 22 12.4802 22 12.908 21.782C13.2843 21.5903 13.5903 21.2843 13.782 20.908C14 20.4802 14 19.9201 14 18.8V13.2C14 12.0799 14 11.5198 13.782 11.092C13.5903 10.7157 13.2843 10.4097 12.908 10.218C12.4802 10 11.9201 10 10.8 10H5.2C4.0799 10 3.51984 10 3.09202 10.218C2.71569 10.4097 2.40973 10.7157 2.21799 11.092C2 11.5198 2 12.0799 2 13.2V18.8C2 19.9201 2 20.4802 2.21799 20.908C2.40973 21.2843 2.71569 21.5903 3.09202 21.782C3.51984 22 4.07989 22 5.2 22Z" stroke="white" stroke-width="1.5" stroke-linecap="round" stroke-linejoin="round"/>
</svg>
