<svg width="24" height="24" viewBox="0 0 24 24" fill="none" xmlns="http://www.w3.org/2000/svg">
<path d="M7 8H15M7 12H11M18.7165 21.0299C18.1917 20.715 17.9293 20.5576 17.6542 20.4347C17.1972 20.2306 16.7122 20.0962 16.2154 20.0362C15.9163 20 15.6103 20 14.9983 20H10C7.19974 20 5.79961 20 4.73005 19.455C3.78924 18.9757 3.02433 18.2108 2.54497 17.27C2 16.2004 2 14.8003 2 12V10C2 7.19974 2 5.79961 2.54497 4.73005C3.02433 3.78924 3.78924 3.02433 4.73005 2.54497C5.79961 2 7.19974 2 10 2H14C16.8003 2 18.2004 2 19.27 2.54497C20.2108 3.02433 20.9757 3.78924 21.455 4.73005C22 5.79961 22 7.19974 22 10V19.1708C22 20.1969 22 20.71 21.8373 21.0302C21.5642 21.5676 20.996 21.8893 20.3947 21.847C20.0363 21.8218 19.5964 21.5578 18.7165 21.0299Z" stroke="white" stroke-width="1.5" stroke-linecap="round" stroke-linejoin="round"/>
</svg>
