<svg width="22" height="22" viewBox="0 0 22 22" fill="none" xmlns="http://www.w3.org/2000/svg">
<path fill-rule="evenodd" clip-rule="evenodd" d="M11.2298 3.20825C6.8069 3.20825 3.20898 6.80617 3.20898 11.2291C3.20898 15.652 6.8069 19.2499 11.2298 19.2499C15.6527 19.2499 19.2507 15.652 19.2507 11.2291C19.2507 6.80617 15.6527 3.20825 11.2298 3.20825ZM11.2298 20.6249C6.04882 20.6249 1.83398 16.4101 1.83398 11.2291C1.83398 6.04809 6.04882 1.83325 11.2298 1.83325C16.4108 1.83325 20.6257 6.04809 20.6257 11.2291C20.6257 16.4101 16.4108 20.6249 11.2298 20.6249Z" fill="white"/>
<path fill-rule="evenodd" clip-rule="evenodd" d="M10.2068 9.24589C10.0446 10.1635 10.0418 12.3552 10.2041 13.2261C11.0089 12.9419 12.7524 11.7961 13.2217 11.2286C12.7542 10.6777 11.0327 9.55572 10.2068 9.24589ZM9.92632 14.668C9.67882 14.668 9.44415 14.5974 9.25257 14.4067C9.10499 14.261 8.71082 13.8714 8.70899 11.3056C8.70807 8.58131 9.11782 8.17614 9.25257 8.04139C9.73199 7.56656 10.513 7.89197 10.8457 8.03131C11.3224 8.23022 14.6673 9.94347 14.6673 11.225C14.6673 12.4258 11.657 14.1051 10.8879 14.426C10.5882 14.5506 10.2462 14.668 9.92632 14.668Z" fill="white"/>
</svg>
