<svg width="24" height="24" viewBox="0 0 24 24" fill="none" xmlns="http://www.w3.org/2000/svg">
<path d="M14 9.5L14 8.30832C14 6.15005 14 5.07091 13.7332 4.60759C13.2061 3.69209 12.0579 3.34443 11.1114 3.81377C10.6325 4.0513 10.0339 4.9492 8.83667 6.74499V6.74499C8.60011 7.09984 8.48183 7.27726 8.33865 7.41939C8.06197 7.69405 7.71106 7.88185 7.32906 7.95971C7.13138 8 6.91814 8 6.49167 8L5.2 8C4.0799 8 3.51984 8 3.09202 8.21799C2.7157 8.40973 2.40974 8.71569 2.21799 9.09202C2 9.51984 2 10.0799 2 11.2L2 12.8C2 13.9201 2 14.4802 2.21799 14.908C2.40974 15.2843 2.7157 15.5903 3.09202 15.782C3.51985 16 4.0799 16 5.2 16L6.49168 16C6.91814 16 7.13138 16 7.32906 16.0403C7.71106 16.1181 8.06198 16.306 8.33865 16.5806C8.48183 16.7227 8.60011 16.9002 8.83667 17.255V17.255C10.0339 19.0508 10.6325 19.9487 11.1114 20.1862C12.0579 20.6556 13.2061 20.3079 13.7332 19.3924C14 18.9291 14 17.8499 14 15.6917L14 14.5M17 10C17.5978 10.3992 18 11.1454 18 12C18 12.8546 17.5978 13.6008 17 14M18 6C19.7934 7.19765 21 9.43615 21 12C21 14.5638 19.7934 16.8023 18 18" stroke="#1A1A1A" stroke-width="1.5" stroke-linecap="round" stroke-linejoin="round"/>
</svg>
