<svg width="25" height="24" viewBox="0 0 25 24" fill="none" xmlns="http://www.w3.org/2000/svg">
<g id="Icons / Line / Wallet">
<path id="Vector" d="M2.82422 4V17.2C2.82422 18.8802 2.82422 19.7202 3.1512 20.362C3.43882 20.9265 3.89776 21.3854 4.46225 21.673C5.10398 22 5.94406 22 7.62422 22H18.0242C19.7044 22 20.5445 22 21.1862 21.673C21.7507 21.3854 22.2096 20.9265 22.4972 20.362C22.8242 19.7202 22.8242 18.8802 22.8242 17.2V10.8C22.8242 9.11984 22.8242 8.27976 22.4972 7.63803C22.2096 7.07354 21.7507 6.6146 21.1862 6.32698C20.5445 6 19.7044 6 18.0242 6H12.8242M22.8242 11H22.3242C20.6674 11 19.3242 12.3431 19.3242 14V14C19.3242 15.6569 20.6674 17 22.3242 17H22.8242M17.8242 6L16.7442 4.56C16.0402 3.62134 15.6882 3.15201 15.2421 2.8135C14.847 2.5137 14.3996 2.28999 13.9227 2.15378C13.3842 2 12.7975 2 11.6242 2H4.82422C3.71965 2 2.82422 2.89543 2.82422 4V4C2.82422 5.10457 3.71965 6 4.82422 6H17.8242Z" stroke="black" stroke-width="1.5" stroke-linecap="round" stroke-linejoin="round"/>
</g>
</svg>
