<svg width="31" height="30" viewBox="0 0 31 30" fill="none" xmlns="http://www.w3.org/2000/svg">
<path d="M0.520752 15C0.520752 6.71573 7.23648 0 15.5208 0C23.805 0 30.5208 6.71573 30.5208 15C30.5208 23.2843 23.805 30 15.5208 30C7.23648 30 0.520752 23.2843 0.520752 15Z" fill="#040415"/>
<path d="M20.4975 17.7526L21.7848 13.8906C22.9094 10.5168 23.4717 8.82992 22.5813 7.93947C21.6908 7.04901 20.0039 7.61131 16.6302 8.73591L12.7682 10.0232C10.0452 10.9309 8.68369 11.3847 8.2968 12.0502C7.92874 12.6833 7.92874 13.4653 8.2968 14.0984C8.68369 14.7639 10.0452 15.2177 12.7682 16.1254C13.1056 16.2379 13.4853 16.1575 13.738 15.9072L17.8672 11.8162C18.0995 11.5861 18.4744 11.5878 18.7045 11.8201C18.9347 12.0524 18.9329 12.4273 18.7006 12.6575L14.6381 16.6824C14.3596 16.9583 14.2714 17.3807 14.3954 17.7526C15.303 20.4756 15.7569 21.8371 16.4224 22.224C17.0555 22.592 17.8374 22.592 18.4705 22.224C19.136 21.8371 19.5899 20.4756 20.4975 17.7526Z" fill="white"/>
</svg>
