<svg width="21" height="21" viewBox="0 0 21 21" fill="none" xmlns="http://www.w3.org/2000/svg">
<path fill-rule="evenodd" clip-rule="evenodd" d="M7.30532 18.8337H14.5275C17.3527 18.8337 19.2502 16.8527 19.2502 13.9039V7.09759C19.2502 4.14875 17.3527 2.16699 14.5283 2.16699H7.30532C4.48091 2.16699 2.5835 4.14875 2.5835 7.09759V13.9039C2.5835 16.8527 4.48091 18.8337 7.30532 18.8337ZM8.21822 9.8007C9.35988 9.8007 10.2891 8.87154 10.2891 7.72987C10.2891 6.5882 9.35988 5.6582 8.21822 5.6582C7.07572 5.6582 6.14738 6.5882 6.14738 7.72987C6.14738 8.87154 7.07572 9.8007 8.21822 9.8007ZM17.5102 12.873C17.4185 12.6438 17.2794 12.4288 17.0852 12.2405C16.576 11.748 16.1002 11.288 15.5344 10.948C14.6469 10.408 13.9602 11.1663 13.7752 11.4088C13.6261 11.6046 13.4944 11.8174 13.3607 12.0334L13.3607 12.0334C13.3346 12.0757 13.3083 12.118 13.2819 12.1605L13.2739 12.1732C12.8808 12.8069 12.4291 13.535 11.651 13.9605C10.5127 14.5738 9.64853 14.0088 9.02687 13.5971C8.79353 13.4438 8.56686 13.298 8.34103 13.2013C7.78437 12.9671 7.28353 13.2338 6.5402 14.1538C6.1502 14.6346 5.76353 15.1113 5.37186 15.5863C5.1377 15.8713 5.19353 16.3088 5.50937 16.4988C6.01353 16.8021 6.62853 16.9638 7.32353 16.9638H14.3077C14.7019 16.9638 15.0969 16.9121 15.4735 16.7913C16.3219 16.5213 16.9952 15.9038 17.3469 15.0863C17.6435 14.3996 17.7877 13.5663 17.5102 12.873Z" fill="white"/>
</svg>
