<svg width="31" height="31" viewBox="0 0 31 31" fill="none" xmlns="http://www.w3.org/2000/svg">
<path d="M19.8088 3.93555C18.4523 4.10232 17.2048 4.8071 16.3152 5.90926C15.8811 6.41953 15.5546 7.02258 15.3573 7.67803C15.1601 8.33349 15.0968 9.02621 15.1716 9.70981C15.8536 9.69537 16.5239 9.51915 17.1338 9.19402C17.7436 8.86888 18.2775 8.40303 18.6966 7.83043C19.1182 7.29384 19.4339 6.67246 19.625 6.00331C19.8161 5.33417 19.8786 4.63094 19.8088 3.93555Z" fill="black"/>
<path d="M24.6538 11.9883C24.1333 11.2657 23.4703 10.6732 22.7114 10.2526C21.9525 9.832 21.1162 9.59343 20.2613 9.55371C18.1997 9.55371 17.3265 10.5842 15.8945 10.5842C14.4176 10.5842 13.2954 9.5573 11.5121 9.5573C10.541 9.60915 9.5964 9.91198 8.76005 10.4396C7.9237 10.9672 7.2208 11.7037 6.71215 12.5853C5.04895 15.2754 5.33401 20.3345 8.02857 24.6449C8.9926 26.1864 10.281 27.9201 11.9644 27.9356C13.4637 27.9511 13.8857 26.9326 15.9159 26.9219C17.946 26.9111 18.3321 27.9487 19.827 27.932C21.5104 27.9189 22.8705 25.9977 23.8346 24.4562C24.4164 23.5394 24.9136 22.5649 25.3193 21.5464C24.4247 21.2008 23.6431 20.5874 23.0685 19.7802C22.4938 18.973 22.1507 18.0063 22.0804 16.9964C22.0101 15.9866 22.2156 14.9766 22.6721 14.0881C23.1287 13.1996 23.8169 12.4704 24.6538 11.9883Z" fill="black"/>
</svg>
