<svg width="45" height="44" viewBox="0 0 45 44" fill="none" xmlns="http://www.w3.org/2000/svg">
<path d="M26.1006 4.92148V11.6215C26.1006 12.7416 26.1006 13.3017 26.3186 13.7295C26.5103 14.1058 26.8163 14.4118 27.1926 14.6036C27.6204 14.8215 28.1805 14.8215 29.3006 14.8215H36.0006M36.9006 16.3352V32.0215C36.9006 34.8218 36.9006 36.2219 36.3556 37.2914C35.8763 38.2323 35.1113 38.9972 34.1705 39.4765C33.101 40.0215 31.7008 40.0215 28.9006 40.0215H16.1006C13.3003 40.0215 11.9002 40.0215 10.8306 39.4765C9.88982 38.9972 9.12492 38.2323 8.64555 37.2914C8.10059 36.2219 8.10059 34.8218 8.10059 32.0215V12.0215C8.10059 9.22122 8.10059 7.82109 8.64555 6.75153C9.12492 5.81072 9.88982 5.04582 10.8306 4.56645C11.9002 4.02148 13.3003 4.02148 16.1006 4.02148H24.5869C25.8098 4.02148 26.4213 4.02148 26.9967 4.15963C27.5069 4.28212 27.9946 4.48414 28.442 4.75828C28.9466 5.06749 29.379 5.49987 30.2437 6.36463L34.5574 10.6783C35.4222 11.5431 35.8546 11.9755 36.1638 12.4801C36.4379 12.9274 36.64 13.4151 36.7624 13.9253C36.9006 14.5008 36.9006 15.1122 36.9006 16.3352Z" stroke="white" stroke-width="1.5" stroke-linecap="round" stroke-linejoin="round"/>
<path d="M20.8992 28.9553V23.622M20.8992 28.9553C20.8992 29.839 20.1829 30.5553 19.2992 30.5553C18.4156 30.5553 17.6992 29.839 17.6992 28.9553C17.6992 28.0717 18.4156 27.3553 19.2992 27.3553C20.1829 27.3553 20.8992 28.0717 20.8992 28.9553ZM27.2992 27.3553V22.022M27.2992 27.3553C27.2992 28.239 26.5829 28.9553 25.6992 28.9553C24.8156 28.9553 24.0992 28.239 24.0992 27.3553C24.0992 26.4717 24.8156 25.7553 25.6992 25.7553C26.5829 25.7553 27.2992 26.4717 27.2992 27.3553ZM20.8992 23.622V23.622C20.8992 23.0105 20.8992 22.7048 20.9728 22.4411C21.1172 21.9234 21.464 21.4856 21.9348 21.2265C22.1746 21.0945 22.4722 21.0244 23.0675 20.8844L25.2226 20.3773C26.2832 20.1277 27.2992 20.9324 27.2992 22.022V22.022M20.8992 23.622L27.2992 22.022" stroke="white" stroke-width="1.5" stroke-linecap="round" stroke-linejoin="round"/>
</svg>
