<svg width="22" height="22" viewBox="0 0 22 22" fill="none" xmlns="http://www.w3.org/2000/svg">
<ellipse cx="11.3132" cy="10.8083" rx="10.6667" ry="10.6667" fill="#D9D9D9"/>
<path fill-rule="evenodd" clip-rule="evenodd" d="M11.3416 11.8394L8.12525 15.0558C7.83508 15.3459 7.36257 15.3439 7.06986 15.0512C6.77715 14.7585 6.7751 14.2859 7.06526 13.9958L10.2816 10.7794L7.0495 7.54726C6.8045 7.2462 6.8251 6.81064 7.09721 6.53853C7.36932 6.26642 7.80488 6.24582 8.10594 6.49082L11.3324 9.71726L14.5431 6.50654C14.842 6.26415 15.2778 6.28854 15.5523 6.56303C15.8268 6.83752 15.8512 7.27328 15.6088 7.57222L12.3981 10.7829L15.6302 14.0151C15.8752 14.3161 15.8546 14.7517 15.5825 15.0238C15.3104 15.2959 14.8748 15.3165 14.5738 15.0715L11.3416 11.8394Z" fill="#80868B"/>
</svg>
