<svg width="17" height="16" viewBox="0 0 17 16" fill="none" xmlns="http://www.w3.org/2000/svg">
<path d="M1.66797 7.99967C1.66797 4.31778 4.65274 1.33301 8.33464 1.33301V1.33301C12.0165 1.33301 15.0013 4.31778 15.0013 7.99967V7.99967C15.0013 11.6816 12.0165 14.6663 8.33464 14.6663V14.6663C4.65274 14.6663 1.66797 11.6816 1.66797 7.99967V7.99967Z" fill="#FF9100" stroke="#FF9100" stroke-width="1.5" stroke-linecap="round" stroke-linejoin="round"/>
<path d="M10.3346 6.39941C10.1871 6.1975 10.0124 6.01782 9.81612 5.86615C9.38281 5.53138 8.84421 5.33301 8.26056 5.33301C6.82871 5.33301 5.66797 6.52692 5.66797 7.99967C5.66797 9.47243 6.82871 10.6663 8.26056 10.6663C8.84421 10.6663 9.38281 10.468 9.81612 10.1332C10.0124 9.98153 10.1871 9.80185 10.3346 9.59994" stroke="black" stroke-width="1.5" stroke-linecap="round" stroke-linejoin="round"/>
</svg>
