<svg width="25" height="25" viewBox="0 0 25 25" fill="none" xmlns="http://www.w3.org/2000/svg">
<circle cx="12.3652" cy="12.8657" r="9.5" fill="black" fill-opacity="0.6" stroke="white"/>
<path d="M12.7979 16.1553H16.5166" stroke="white" stroke-linecap="round"/>
<path d="M12.9873 9.12196L9.1723 12.9369C8.91765 13.1915 8.79032 13.3189 8.69048 13.4653C8.60186 13.5952 8.52949 13.736 8.47486 13.8849C8.41332 14.0526 8.38229 14.2334 8.32023 14.5951L8.04785 16.1827L9.63539 15.9103C9.9971 15.8482 10.1779 15.8172 10.3456 15.7557C10.4945 15.701 10.6353 15.6287 10.7652 15.54C10.9116 15.4402 11.039 15.3129 11.2936 15.0582L15.1086 11.2433M12.9873 9.12196L13.9873 8.12199C14.2599 7.84938 14.3962 7.71307 14.5455 7.64246C14.8295 7.50809 15.168 7.51806 15.4605 7.6694C15.6142 7.74894 15.7588 7.89352 16.0479 8.18268C16.337 8.47183 16.4816 8.6164 16.5611 8.77011C16.7125 9.06258 16.7224 9.40103 16.5881 9.6851C16.5175 9.83438 16.3812 9.97069 16.1085 10.2433L15.1086 11.2433M12.9873 9.12196L15.1086 11.2433" stroke="white" stroke-linecap="round" stroke-linejoin="round"/>
</svg>
