<svg width="19" height="19" viewBox="0 0 19 19" fill="none" xmlns="http://www.w3.org/2000/svg">
<path d="M10.0146 16.3008H15.5928" stroke="#2C3131" stroke-linecap="round"/>
<path d="M10.2988 5.75056L4.57633 11.473C4.19435 11.8549 4.00336 12.0459 3.8536 12.2655C3.72067 12.4604 3.61211 12.6717 3.53016 12.895C3.43784 13.1465 3.3913 13.4178 3.29821 13.9603L2.88965 16.3416L5.27096 15.9331C5.81351 15.84 6.08479 15.7934 6.33631 15.7011C6.55957 15.6192 6.77083 15.5106 6.96574 15.3777C7.18534 15.2279 7.37633 15.0369 7.7583 14.655L13.4807 8.93251M10.2988 5.75056L11.7988 4.25062C12.2077 3.8417 12.4121 3.63724 12.6361 3.53131C13.0622 3.32976 13.5699 3.34471 14.0086 3.57173C14.2391 3.69104 14.456 3.90791 14.8897 4.34164C15.3234 4.77537 15.5403 4.99223 15.6596 5.22279C15.8866 5.6615 15.9015 6.16918 15.7 6.59527C15.5941 6.8192 15.3896 7.02365 14.9807 7.43257L13.4807 8.93251M10.2988 5.75056L13.4807 8.93251" stroke="#2C3131" stroke-linecap="round" stroke-linejoin="round"/>
</svg>
