<svg width="36" height="34" viewBox="0 0 36 34" fill="none" xmlns="http://www.w3.org/2000/svg">
<g filter="url(#filter0_d_46106_27638)">
<circle cx="18.141" cy="16.642" r="13.3578" fill="#FEFEFE"/>
</g>
<path d="M15.7251 22.0798L13.0092 22.3993C12.9063 22.4114 12.8035 22.3757 12.7302 22.3024L12.4508 22.023C12.3795 21.9517 12.3436 21.8523 12.353 21.7519L12.5922 19.2009L18.0649 13.7282C18.4577 13.3354 19.0933 13.3309 19.4916 13.7182L21.0827 15.265C21.489 15.6601 21.4936 16.3112 21.0929 16.712L15.7251 22.0798Z" fill="#0C0C0C"/>
<path d="M22.7876 11.3948L23.4509 12.0766C24.0968 12.7404 24.0895 13.8 23.4346 14.455L23.013 14.8766C22.6823 15.2072 22.1462 15.2072 21.8155 14.8766L19.9536 13.0146C19.6273 12.6884 19.6223 12.1609 19.9424 11.8286L20.354 11.4011C21.0177 10.7119 22.1203 10.709 22.7876 11.3948Z" fill="#0C0C0C"/>
<defs>
<filter id="filter0_d_46106_27638" x="0.783203" y="0.28418" width="34.7156" height="34.7153" filterUnits="userSpaceOnUse" color-interpolation-filters="sRGB">
<feFlood flood-opacity="0" result="BackgroundImageFix"/>
<feColorMatrix in="SourceAlpha" type="matrix" values="0 0 0 0 0 0 0 0 0 0 0 0 0 0 0 0 0 0 127 0" result="hardAlpha"/>
<feOffset dy="1"/>
<feGaussianBlur stdDeviation="2"/>
<feComposite in2="hardAlpha" operator="out"/>
<feColorMatrix type="matrix" values="0 0 0 0 0 0 0 0 0 0 0 0 0 0 0 0 0 0 0.16 0"/>
<feBlend mode="normal" in2="BackgroundImageFix" result="effect1_dropShadow_46106_27638"/>
<feBlend mode="normal" in="SourceGraphic" in2="effect1_dropShadow_46106_27638" result="shape"/>
</filter>
</defs>
</svg>
