<svg width="25" height="25" viewBox="0 0 25 25" fill="none" xmlns="http://www.w3.org/2000/svg">
<g id="Bold/Emoticon">
<g id="Vector">
<path d="M21.3849 14.0676L13.8508 21.6017C13.7845 21.6681 13.7151 21.7311 13.6429 21.7904C13.5906 21.8334 13.5369 21.8744 13.4818 21.9133C13.0887 22.1908 12.6283 22.3594 12.1426 22.3594C12.1426 21.8078 12.1426 21.3107 12.1456 20.8594C12.1579 19.0256 12.2202 17.9483 12.5354 17.0474C13.239 15.0367 14.8199 13.4558 16.8306 12.7522C17.7315 12.437 18.8088 12.3747 20.6426 12.3624C21.0939 12.3594 21.591 12.3594 22.1426 12.3594C22.1426 12.8451 21.974 13.3055 21.6965 13.6986C21.6576 13.7537 21.6166 13.8074 21.5736 13.8597C21.5143 13.9319 21.4513 14.0013 21.3849 14.0676Z" fill="#121414"/>
<path fill-rule="evenodd" clip-rule="evenodd" d="M12.1426 2.35938C6.61973 2.35938 2.14258 6.83653 2.14258 12.3594C2.14258 17.0651 5.39298 21.0117 9.77112 22.0765C10.2255 22.187 10.6426 21.827 10.6426 21.3594C10.642 19.6574 10.6415 19.04 10.7942 17.9488C10.0273 17.763 9.31737 17.4225 8.69597 16.9619C8.3632 16.7152 8.2934 16.2455 8.54005 15.9128C8.78671 15.58 9.25642 15.5102 9.58919 15.7568C10.0528 16.1005 10.5775 16.3521 11.1417 16.4896C11.792 14.6763 13.0317 13.1557 14.6356 12.1526C14.3405 11.8917 14.1426 11.4102 14.1426 10.8594C14.1426 10.0309 14.5903 9.35938 15.1426 9.35938C15.6949 9.35938 16.1426 10.0309 16.1426 10.8594C16.1426 11.0636 16.1154 11.2582 16.0661 11.4356C16.1551 11.4011 16.2448 11.368 16.3352 11.3364C17.7023 10.858 18.6531 10.8586 21.1426 10.8594C21.6102 10.8594 21.9702 10.4423 21.8597 9.98792C20.7949 5.60978 16.8484 2.35938 12.1426 2.35938ZM9.14258 12.3594C9.69486 12.3594 10.1426 11.6878 10.1426 10.8594C10.1426 10.0309 9.69486 9.35938 9.14258 9.35938C8.59029 9.35938 8.14258 10.0309 8.14258 10.8594C8.14258 11.6878 8.59029 12.3594 9.14258 12.3594Z" fill="#121414"/>
</g>
</g>
</svg>
