<svg width="31" height="31" viewBox="0 0 31 31" fill="none" xmlns="http://www.w3.org/2000/svg">
<g clip-path="url(#clip0_46063_34098)">
<path d="M27.5733 16.0089C27.5733 9.34096 22.1679 3.93554 15.5 3.93554C8.83205 3.93554 3.42664 9.34096 3.42664 16.0089C3.42664 22.035 7.84168 27.0298 13.6135 27.9355V19.4988H10.548V16.0089H13.6135V13.349C13.6135 10.3231 15.416 8.65169 18.1738 8.65169C19.4947 8.65169 20.8764 8.8875 20.8764 8.8875V11.8587H19.354C17.8542 11.8587 17.3864 12.7893 17.3864 13.7441V16.0089H20.7349L20.1996 19.4988H17.3864V27.9355C23.1583 27.0298 27.5733 22.035 27.5733 16.0089Z" fill="#1877F2"/>
</g>
<defs>
<clipPath id="clip0_46063_34098">
<rect width="24" height="24" fill="white" transform="translate(3.5 3.93555)"/>
</clipPath>
</defs>
</svg>
