<svg width="31" height="31" viewBox="0 0 31 31" fill="none" xmlns="http://www.w3.org/2000/svg">
<g clip-path="url(#clip0_46063_34065)">
<path fill-rule="evenodd" clip-rule="evenodd" d="M8.60297 16.4353C8.60297 15.6884 8.73366 14.9721 8.96719 14.3005L4.88182 11.3408C4.08558 12.8745 3.63708 14.6027 3.63708 16.4353C3.63708 18.2665 4.08521 19.9935 4.88012 21.5262L8.96321 18.5608C8.73195 17.8922 8.60297 17.1787 8.60297 16.4353Z" fill="#FBBC05"/>
<path fill-rule="evenodd" clip-rule="evenodd" d="M15.776 9.64012C17.4864 9.64012 19.0314 10.2151 20.2452 11.156L23.7764 7.81055C21.6246 6.03326 18.8658 4.93555 15.776 4.93555C10.9788 4.93555 6.85596 7.53814 4.88184 11.341L8.96701 14.3007C9.90833 11.5899 12.5916 9.64012 15.776 9.64012Z" fill="#EA4335"/>
<path fill-rule="evenodd" clip-rule="evenodd" d="M15.776 23.2309C12.5918 23.2309 9.90852 21.2811 8.9672 18.5703L4.88184 21.5294C6.85596 25.3329 10.9788 27.9354 15.776 27.9354C18.7367 27.9354 21.5635 26.938 23.6849 25.0693L19.8072 22.2252C18.713 22.879 17.3351 23.2309 15.776 23.2309Z" fill="#34A853"/>
<path fill-rule="evenodd" clip-rule="evenodd" d="M27.3629 16.4356C27.3629 15.756 27.2525 15.0241 27.087 14.3447H15.776V18.7879H22.2868C21.9612 20.3028 21.0752 21.4674 19.8072 22.2253L23.685 25.0694C25.9135 23.1072 27.3629 20.184 27.3629 16.4356Z" fill="#4285F4"/>
</g>
<defs>
<clipPath id="clip0_46063_34065">
<rect width="24.2432" height="23" fill="white" transform="translate(3.37842 4.93555)"/>
</clipPath>
</defs>
</svg>
