<svg width="25" height="24" viewBox="0 0 25 24" fill="none" xmlns="http://www.w3.org/2000/svg">
<path fill-rule="evenodd" clip-rule="evenodd" d="M12.7016 2C6.89164 2 2.68164 6.74 2.68164 12C2.68164 13.68 3.17164 15.41 4.03164 16.99C4.19164 17.25 4.21164 17.58 4.10164 17.89L3.43164 20.13C3.28164 20.67 3.74164 21.07 4.25164 20.91L6.27164 20.31C6.82164 20.13 7.25164 20.36 7.76264 20.67C9.22264 21.53 11.0416 21.97 12.6816 21.97C17.6416 21.97 22.6816 18.14 22.6816 11.97C22.6816 6.65 18.3816 2 12.7016 2Z" fill="#DADCE0"/>
<path fill-rule="evenodd" clip-rule="evenodd" d="M13.1813 12.4722V15.5047C13.1813 15.7782 12.9576 16 12.6816 16C12.4057 16 12.182 15.7782 12.182 15.5047V12.4722H9.13467C8.87726 12.4458 8.68164 12.2308 8.68164 11.9742C8.68164 11.7177 8.87726 11.5026 9.13467 11.4762H12.1766V8.4491C12.2032 8.19392 12.4202 8 12.679 8C12.9377 8 13.1547 8.19392 13.1813 8.4491V11.4762H16.2286C16.486 11.5026 16.6816 11.7177 16.6816 11.9742C16.6816 12.2308 16.486 12.4458 16.2286 12.4722H13.1813Z" fill="white"/>
</svg>
