<svg width="31" height="30" viewBox="0 0 31 30" fill="none" xmlns="http://www.w3.org/2000/svg">
<path d="M0.0322266 15C0.0322266 6.71573 6.74796 0 15.0322 0C23.3165 0 30.0322 6.71573 30.0322 15C30.0322 23.2843 23.3165 30 15.0322 30C6.74796 30 0.0322266 23.2843 0.0322266 15Z" fill="#E8EAED"/>
<path fill-rule="evenodd" clip-rule="evenodd" d="M15.03 15.389C16.9886 15.389 18.558 13.819 18.558 11.861C18.558 9.90301 16.9886 8.33301 15.03 8.33301C13.072 8.33301 11.502 9.90301 11.502 11.861C11.502 13.819 13.072 15.389 15.03 15.389Z" fill="#9AA0A6"/>
<path fill-rule="evenodd" clip-rule="evenodd" d="M15.0306 17.1162C12.1552 17.1162 9.69922 17.5695 9.69922 19.3829C9.69922 21.1969 12.1399 21.6662 15.0306 21.6662C17.9059 21.6662 20.3619 21.2135 20.3619 19.3995C20.3619 17.5855 17.9219 17.1162 15.0306 17.1162Z" fill="#9AA0A6"/>
</svg>
