<svg width="31" height="30" viewBox="0 0 31 30" fill="none" xmlns="http://www.w3.org/2000/svg">
<path d="M0.0322266 15C0.0322266 6.71573 6.74796 0 15.0322 0C23.3165 0 30.0322 6.71573 30.0322 15C30.0322 23.2843 23.3165 30 15.0322 30C6.74796 30 0.0322266 23.2843 0.0322266 15Z" fill="#2C3131"/>
<path fill-rule="evenodd" clip-rule="evenodd" d="M15.0319 22.1663C13.9481 22.1663 13.4062 22.1663 12.9525 22.0965C10.3643 21.6981 8.33343 19.6673 7.93507 17.0791C7.86523 16.6254 7.86523 16.0835 7.86523 14.9997C7.86523 13.9159 7.86523 13.374 7.93507 12.9203C8.33343 10.3321 10.3643 8.3012 12.9525 7.90284C13.4062 7.83301 13.9481 7.83301 15.0319 7.83301C16.1157 7.83301 16.6576 7.83301 17.1113 7.90284C19.6995 8.3012 21.7304 10.3321 22.1287 12.9203C22.1986 13.374 22.1986 13.9159 22.1986 14.9997C22.1986 16.0835 22.1986 16.6254 22.1287 17.0791C21.7304 19.6673 19.6995 21.6981 17.1113 22.0965C16.6576 22.1663 16.1157 22.1663 15.0319 22.1663ZM17.0319 12.333C17.0319 13.4376 16.1365 14.333 15.0319 14.333C13.9273 14.333 13.0319 13.4376 13.0319 12.333C13.0319 11.2284 13.9273 10.333 15.0319 10.333C16.1365 10.333 17.0319 11.2284 17.0319 12.333ZM16.143 15.6663C17.3703 15.6663 18.3652 16.6613 18.3652 17.8886C18.3652 18.5022 17.8678 18.9997 17.2541 18.9997H12.8097C12.196 18.9997 11.6986 18.5022 11.6986 17.8886C11.6986 16.6613 12.6935 15.6663 13.9208 15.6663H16.143Z" fill="white"/>
</svg>
