<svg width="12" height="12" viewBox="0 0 12 12" fill="none" xmlns="http://www.w3.org/2000/svg">
<g id="Verified-Label">
<path id="Subtract" fill-rule="evenodd" clip-rule="evenodd" d="M6.41835 0.960525C6.22231 0.760554 5.90028 0.760554 5.70425 0.960525L5.01424 1.66439C4.89265 1.78842 4.7154 1.84046 4.54606 1.80186L3.58505 1.58278C3.31203 1.52053 3.04112 1.69464 2.98431 1.96885L2.78438 2.93402C2.74915 3.1041 2.62818 3.24371 2.46484 3.30278L1.53795 3.63804C1.27461 3.73329 1.14084 4.02622 1.2413 4.28761L1.59492 5.20765C1.65723 5.36978 1.63094 5.55263 1.52548 5.69064L0.926978 6.47379C0.756941 6.69629 0.80277 7.01504 1.0286 7.18062L1.8235 7.76343C1.96357 7.86613 2.04031 8.03417 2.0262 8.20728L1.94611 9.18969C1.92336 9.46879 2.13425 9.71217 2.41375 9.72937L3.39755 9.78991C3.57091 9.80058 3.72632 9.90045 3.80804 10.0537L4.27179 10.9235C4.40355 11.1706 4.71253 11.2613 4.95697 11.1246L5.81732 10.6437C5.96893 10.5589 6.15366 10.5589 6.30527 10.6437L7.16563 11.1246C7.41006 11.2613 7.71904 11.1706 7.8508 10.9235L8.31455 10.0537C8.39628 9.90045 8.55168 9.80058 8.72504 9.78991L9.70884 9.72937C9.98835 9.71217 10.1992 9.46879 10.1765 9.18969L10.0964 8.20728C10.0823 8.03417 10.159 7.86613 10.2991 7.76343L11.094 7.18062C11.3198 7.01504 11.3657 6.69629 11.1956 6.47379L10.5971 5.69064C10.4917 5.55263 10.4654 5.36978 10.5277 5.20765L10.8813 4.28761C10.9818 4.02622 10.848 3.73329 10.5846 3.63804L9.65775 3.30278C9.49442 3.24371 9.37344 3.1041 9.33821 2.93402L9.13828 1.96885C9.08148 1.69464 8.81057 1.52053 8.53754 1.58278L7.57654 1.80186C7.40719 1.84046 7.22994 1.78842 7.10835 1.66439L6.41835 0.960525ZM8.10171 5.30865C8.27421 5.09302 8.23925 4.77837 8.02362 4.60586C7.80799 4.43336 7.49334 4.46832 7.32084 4.68395L5.46981 6.99773L4.76483 6.29275C4.56956 6.09748 4.25298 6.09748 4.05772 6.29275C3.86246 6.48801 3.86246 6.80459 4.05772 6.99985L5.15772 8.09985C5.25828 8.20042 5.39692 8.2534 5.53892 8.24553C5.68093 8.23767 5.81286 8.1697 5.90171 8.05865L8.10171 5.30865Z" fill="black"/>
</g>
</svg>
