<svg width="172" height="172" viewBox="0 0 172 172" fill="none" xmlns="http://www.w3.org/2000/svg">
<g id="wpf:audio-wave" clip-path="url(#clip0_49613_41096)">
<path id="Vector" d="M124.482 13.8575C123.039 14.1667 121.753 14.9761 120.85 16.1424C119.948 17.3088 119.487 18.7569 119.549 20.2305V145.192C119.402 146.086 119.452 147.001 119.695 147.874C119.937 148.747 120.366 149.557 120.953 150.247C121.539 150.938 122.269 151.493 123.091 151.873C123.914 152.253 124.809 152.45 125.715 152.45C126.621 152.45 127.516 152.253 128.338 151.873C129.16 151.493 129.89 150.938 130.477 150.247C131.063 149.557 131.492 148.747 131.735 147.874C131.977 147.001 132.027 146.086 131.881 145.192V20.2305C131.901 19.3521 131.737 18.4792 131.397 17.6688C131.058 16.8583 130.552 16.1286 129.911 15.5272C129.271 14.9257 128.51 14.4662 127.68 14.1785C126.85 13.8908 125.969 13.7814 125.093 13.8575C124.889 13.848 124.685 13.848 124.482 13.8575ZM45.5585 20.4344C44.1163 20.7436 42.8301 21.553 41.9273 22.7193C41.0246 23.8857 40.5635 25.3338 40.6258 26.8074V138.615C40.4793 139.509 40.529 140.424 40.7714 141.297C41.0139 142.17 41.4432 142.98 42.0298 143.67C42.6163 144.361 43.346 144.916 44.1683 145.296C44.9905 145.676 45.8857 145.873 46.7916 145.873C47.6976 145.873 48.5928 145.676 49.415 145.296C50.2373 144.916 50.967 144.361 51.5535 143.67C52.1401 142.98 52.5694 142.17 52.8119 141.297C53.0543 140.424 53.104 139.509 52.9575 138.615V26.8074C52.9784 25.929 52.8138 25.0561 52.4744 24.2457C52.135 23.4353 51.6286 22.7055 50.988 22.1041C50.3475 21.5027 49.5873 21.0431 48.7572 20.7554C47.927 20.4677 47.0455 20.3583 46.1701 20.4344C45.9664 20.4249 45.7623 20.4249 45.5585 20.4344ZM104.751 40.1652C103.309 40.4743 102.022 41.2837 101.12 42.4501C100.217 43.6165 99.7558 45.0646 99.8181 46.5382V118.884C99.6684 119.78 99.7157 120.697 99.9564 121.572C100.197 122.447 100.626 123.259 101.212 123.952C101.799 124.645 102.529 125.201 103.353 125.583C104.176 125.965 105.073 126.163 105.981 126.163C106.888 126.163 107.785 125.965 108.609 125.583C109.432 125.201 110.162 124.645 110.749 123.952C111.336 123.259 111.764 122.447 112.005 121.572C112.246 120.697 112.293 119.78 112.143 118.884V46.5382C112.164 45.661 112 44.7893 111.661 43.9799C111.322 43.1704 110.817 42.4413 110.178 41.8401C109.539 41.2389 108.781 40.779 107.952 40.4904C107.123 40.2019 106.243 40.091 105.369 40.1652C105.161 40.1553 104.959 40.1553 104.751 40.1652ZM25.8277 46.7421C24.3856 47.0513 23.0993 47.8607 22.1965 49.027C21.2938 50.1934 20.8327 51.6415 20.895 53.1151V112.307C20.7454 113.203 20.7926 114.12 21.0334 114.995C21.2741 115.87 21.7027 116.682 22.2892 117.375C22.8758 118.068 23.6062 118.624 24.4297 119.006C25.2531 119.388 26.1499 119.586 27.0576 119.586C27.9653 119.586 28.862 119.388 29.6855 119.006C30.509 118.624 31.2394 118.068 31.826 117.375C32.4125 116.682 32.8411 115.87 33.0818 114.995C33.3226 114.12 33.3698 113.203 33.2202 112.307V53.1151C33.2409 52.2379 33.0766 51.3662 32.738 50.5568C32.3994 49.7473 31.8941 49.0183 31.2551 48.4171C30.616 47.8158 29.8575 47.356 29.0289 47.0674C28.2003 46.7788 27.3202 46.6679 26.4459 46.7421C26.2378 46.7322 26.0359 46.7322 25.8277 46.7421ZM65.2892 53.319C63.8471 53.6282 62.5608 54.4376 61.6581 55.604C60.7553 56.7703 60.2943 58.2184 60.3566 59.692V105.73C60.2069 106.626 60.2541 107.543 60.4949 108.418C60.7357 109.293 61.1642 110.105 61.7508 110.798C62.3373 111.491 63.0677 112.047 63.8912 112.429C64.7147 112.811 65.6115 113.009 66.5191 113.009C67.4268 113.009 68.3236 112.811 69.1471 112.429C69.9705 112.047 70.701 111.491 71.2875 110.798C71.874 110.105 72.3026 109.293 72.5434 108.418C72.7841 107.543 72.8314 106.626 72.6817 105.73V59.692C72.7024 58.8149 72.5381 57.9432 72.1995 57.1337C71.8609 56.3243 71.3557 55.5952 70.7166 54.994C70.0776 54.3928 69.319 53.9329 68.4904 53.6443C67.6618 53.3557 66.7818 53.2449 65.9075 53.319C65.6993 53.3091 65.4974 53.3091 65.2892 53.319ZM144.212 53.319C142.77 53.6282 141.484 54.4376 140.581 55.604C139.678 56.7703 139.217 58.2184 139.28 59.692V105.73C139.133 106.625 139.183 107.54 139.425 108.413C139.668 109.286 140.097 110.095 140.684 110.786C141.27 111.476 142 112.031 142.822 112.411C143.644 112.792 144.54 112.989 145.445 112.989C146.351 112.989 147.247 112.792 148.069 112.411C148.891 112.031 149.621 111.476 150.207 110.786C150.794 110.095 151.223 109.286 151.466 108.413C151.708 107.54 151.758 106.625 151.611 105.73V59.692C151.632 58.8137 151.468 57.9408 151.128 57.1303C150.789 56.3199 150.282 55.5901 149.642 54.9887C149.001 54.3873 148.241 53.9277 147.411 53.64C146.581 53.3523 145.699 53.2429 144.824 53.319C144.62 53.3095 144.416 53.3095 144.212 53.319ZM6.09694 66.4728C4.65479 66.782 3.36853 67.5914 2.46577 68.7578C1.56301 69.9242 1.10197 71.3723 1.16424 72.8459V92.5767C1.01776 93.4707 1.06746 94.3859 1.30989 95.2589C1.55233 96.1318 1.98171 96.9416 2.56826 97.632C3.15481 98.3225 3.8845 98.8772 4.70675 99.2576C5.529 99.6379 6.42413 99.835 7.33011 99.835C8.23608 99.835 9.13122 99.6379 9.95347 99.2576C10.7757 98.8772 11.5054 98.3225 12.092 97.632C12.6785 96.9416 13.1079 96.1318 13.3503 95.2589C13.5928 94.3859 13.6425 93.4707 13.496 92.5767V72.8459C13.5168 71.9675 13.3522 71.0946 13.0129 70.2842C12.6735 69.4737 12.167 68.744 11.5265 68.1426C10.886 67.5411 10.1258 67.0816 9.29562 66.7938C8.46544 66.5061 7.58391 66.3968 6.70859 66.4728C6.50263 66.4632 6.29632 66.4632 6.09036 66.4728H6.09694ZM85.02 66.4728C83.5779 66.782 82.2916 67.5914 81.3888 68.7578C80.4861 69.9242 80.025 71.3723 80.0873 72.8459V92.5767C79.9377 93.4719 79.9849 94.389 80.2257 95.2642C80.4664 96.1393 80.895 96.9515 81.4815 97.6442C82.0681 98.3369 82.7985 98.8935 83.622 99.2753C84.4454 99.6571 85.3422 99.8548 86.2499 99.8548C87.1576 99.8548 88.0544 99.6571 88.8778 99.2753C89.7013 98.8935 90.4317 98.3369 91.0183 97.6442C91.6048 96.9515 92.0334 96.1393 92.2741 95.2642C92.5149 94.389 92.5621 93.4719 92.4125 92.5767V72.8459C92.4332 71.9687 92.2689 71.097 91.9303 70.2876C91.5917 69.4781 91.0864 68.749 90.4474 68.1478C89.8083 67.5466 89.0498 67.0867 88.2212 66.7981C87.3926 66.5096 86.5125 66.3987 85.6382 66.4728C85.4301 66.463 85.2282 66.463 85.02 66.4728ZM163.943 66.4728C162.501 66.782 161.215 67.5914 160.312 68.7578C159.409 69.9242 158.948 71.3723 159.01 72.8459V92.5767C158.864 93.4707 158.914 94.3859 159.156 95.2589C159.398 96.1318 159.828 96.9416 160.414 97.632C161.001 98.3225 161.731 98.8772 162.553 99.2576C163.375 99.6379 164.27 99.835 165.176 99.835C166.082 99.835 166.977 99.6379 167.8 99.2576C168.622 98.8772 169.352 98.3225 169.938 97.632C170.525 96.9416 170.954 96.1318 171.196 95.2589C171.439 94.3859 171.489 93.4707 171.342 92.5767V72.8459C171.363 71.9675 171.198 71.0946 170.859 70.2842C170.52 69.4737 170.013 68.744 169.373 68.1426C168.732 67.5411 167.972 67.0816 167.142 66.7938C166.312 66.5061 165.43 66.3968 164.555 66.4728C164.351 66.4634 164.147 66.4634 163.943 66.4728Z" fill="white"/>
</g>
<defs>
<clipPath id="clip0_49613_41096">
<rect width="171" height="171" fill="white" transform="translate(0.75 0.5)"/>
</clipPath>
</defs>
</svg>
