<svg width="25" height="24" viewBox="0 0 25 24" fill="none" xmlns="http://www.w3.org/2000/svg">
<mask id="mask0_201_6694" style="mask-type:luminance" maskUnits="userSpaceOnUse" x="4" y="1" width="17" height="22">
<path d="M20.7213 12.1003L20.6877 11.9533C20.6784 11.9125 20.6692 11.8717 20.6588 11.831C20.3357 10.512 19.8529 9.31211 19.2821 8.2303C18.3662 6.49276 17.2211 5.06215 16.1351 3.946C14.4909 2.25567 12.9822 1.2844 12.6048 1.05366C12.5457 1.01824 12.5017 1 12.5017 1C12.5017 1 12.4566 1.01717 12.3998 1.05259C12.0293 1.27904 10.5346 2.24065 8.89967 3.91273C7.82751 5.00956 6.69514 6.41334 5.77928 8.11762C5.18299 9.2284 4.67817 10.4669 4.34355 11.831C4.33545 11.8664 4.32734 11.9007 4.31924 11.9361L4.2845 12.0885C3.97999 13.4472 3.93136 14.6847 4.0842 15.7965C4.26135 17.0758 4.70596 18.1887 5.33467 19.1343C6.18916 20.4168 7.38174 21.3869 8.70979 22.0352C9.91047 22.6222 11.2212 22.9463 12.4878 23C13.7673 22.9463 15.0941 22.6158 16.3076 22.0169C17.6206 21.3687 18.8027 20.4071 19.6514 19.1407C20.294 18.1823 20.7467 17.0501 20.9204 15.7472C21.0675 14.6514 21.0165 13.4354 20.719 12.1025L20.7213 12.1003Z" fill="white"/>
</mask>
<g mask="url(#mask0_201_6694)">
<path d="M20.7213 12.1003L20.8266 12.037L20.8023 12.022L20.6877 11.9533C20.6784 11.9125 20.6692 11.8717 20.6588 11.831C20.3357 10.512 19.8529 9.31211 19.2821 8.2303C18.3662 6.49276 17.2211 5.06215 16.1351 3.946C14.4909 2.25567 12.9822 1.2844 12.6048 1.05366C12.5457 1.01824 12.5017 1 12.5017 1C12.5017 1 12.4566 1.01717 12.3998 1.05259C12.0293 1.27904 10.5346 2.24065 8.89967 3.91273C7.82751 5.00956 6.69514 6.41334 5.77928 8.11762C5.18299 9.2284 4.67817 10.4669 4.34355 11.831C4.33545 11.8664 4.32734 11.9007 4.31924 11.9361L4.21272 11.9995L4.17451 12.022L4.2845 12.0885C3.97999 13.4472 3.93136 14.6847 4.0842 15.7965C4.26135 17.0758 4.70596 18.1887 5.33467 19.1343C6.18916 20.4168 7.38174 21.3869 8.70979 22.0352C9.91047 22.6222 11.2212 22.9463 12.4878 23C13.7673 22.9463 15.0941 22.6158 16.3076 22.0169C17.6206 21.3687 18.8027 20.4071 19.6514 19.1407C20.294 18.1823 20.7467 17.0501 20.9204 15.7472C21.0675 14.6514 21.0165 13.4354 20.719 12.1025L20.7213 12.1003Z" fill="#C02323"/>
<g style="mix-blend-mode:overlay">
<path d="M5.77938 8.11768C5.18309 9.22846 4.67827 10.467 4.34365 11.831C4.33555 11.8664 4.32744 11.9008 4.31934 11.9362L6.136 10.8555L5.77938 8.11768Z" fill="#5D1206"/>
<path d="M7.84952 9.83595L12.5017 3.33329V3.32471L8.89969 3.91283C7.82753 5.00967 6.69515 6.41344 5.7793 8.11772L6.13591 10.8555L7.84837 9.83595H7.84952Z" fill="#BA3E31"/>
<path d="M12.5077 3.32567L16.1341 3.94492C14.4911 2.25567 12.9825 1.2844 12.605 1.05366C12.546 1.01824 12.502 1 12.502 1V3.3246H12.5066L12.5077 3.32567Z" fill="#5D1206"/>
<path d="M12.5017 1C12.5017 1 12.4566 1.01717 12.3998 1.05259C12.0293 1.27904 10.5345 2.24065 8.89966 3.91273L12.5017 3.3246V1Z" fill="#5D1206"/>
<path d="M17.1819 9.85937L18.8955 10.8832L19.2822 8.23022C18.3663 6.49267 17.2212 5.06206 16.1352 3.94591L12.5088 3.32666L17.1819 9.85937Z" fill="#BA3E31"/>
<path d="M12.502 3.32471V3.33407L12.5076 3.32588L12.502 3.32471Z" fill="#92E800"/>
<path d="M20.6879 11.9535C20.6786 11.9127 20.6693 11.8719 20.6589 11.8311C20.3359 10.5121 19.853 9.31228 19.2822 8.23047L18.8955 10.8835L20.6867 11.9535H20.6879Z" fill="#5D1206"/>
<path d="M20.923 15.7457C21.07 14.65 21.0191 13.434 20.7215 12.1011L19.2881 12.9693L20.923 15.7457Z" fill="#5D1206"/>
<path d="M12.4893 20.9698L7.8301 14.2504L5.72514 12.9668L4.08447 15.7969C4.26162 17.0762 4.70624 18.1891 5.33495 19.1346L12.4881 20.9698H12.4893Z" fill="#BA3E31"/>
<path d="M5.33594 19.1328C6.19043 20.4153 7.38301 21.3855 8.71106 22.0337L12.4891 20.968L5.33594 19.1328Z" fill="#D3504A"/>
<path d="M8.71094 22.0354C9.91162 22.6225 11.2223 22.9466 12.489 23.0003V20.9697L8.71094 22.0354Z" fill="#4A0B04"/>
<path d="M12.4893 22.9992C13.7687 22.9455 15.0956 22.615 16.309 22.0161L12.4893 20.9697V23.0003V22.9992Z" fill="#5D1206"/>
<path d="M12.4893 20.97L16.309 22.0164C17.622 21.3681 18.8041 20.4065 19.6528 19.1401L12.4893 20.97Z" fill="#CE5D5D"/>
<path d="M4.2845 12.0889C3.97999 13.4476 3.93136 14.685 4.0842 15.7969L5.72486 12.9678L4.2845 12.0899V12.0889Z" fill="#5D1206"/>
<path d="M19.2879 12.9697L17.1784 14.2479L12.4902 20.9695L19.6538 19.1397C20.2964 18.1813 20.7491 17.049 20.9228 15.7462L19.2879 12.9697Z" fill="#BA3E31"/>
<path d="M12.5018 3.33301L7.84961 9.83567L12.5076 7.06568L12.5018 3.33301Z" fill="#7C1306"/>
<path d="M12.5076 3.32471V3.32588H12.5092L12.5076 3.32471Z" fill="#92E800"/>
<path d="M12.4893 20.9696L17.1774 14.248L12.4893 17.0889V20.9696Z" fill="#D3504A"/>
<path d="M17.182 9.85947L12.5089 3.32568H12.5077L12.502 3.3332L12.5077 7.06587L17.182 9.85947Z" fill="#D3504A"/>
<path d="M12.4891 17.0882L7.83105 14.2495L12.4891 20.969V17.0882Z" fill="#7C1306"/>
<path d="M20.7215 12.1008L20.8268 12.0375L20.8025 12.0225H20.7041C20.7099 12.0482 20.7168 12.075 20.7226 12.1008H20.7215Z" fill="#92E800"/>
<path d="M4.21277 11.999L4.17456 12.0216L4.28456 12.0881C4.2915 12.0581 4.29845 12.0291 4.3054 11.999H4.21277Z" fill="#92E800"/>
<path d="M20.8024 12.0223L20.6877 11.9536C20.6935 11.9762 20.6982 11.9998 20.704 12.0223H20.8024Z" fill="#92E800"/>
<path d="M4.31941 11.9365L4.21289 11.9998H4.30552C4.31015 11.9784 4.31478 11.9569 4.32057 11.9365H4.31941Z" fill="#92E800"/>
<path d="M6.28658 11.999H4.30551C4.29856 12.0291 4.29162 12.0591 4.28467 12.0881L5.72503 12.966L6.28542 11.999H6.28658Z" fill="#5D1206"/>
<path d="M18.8955 10.8832L17.1819 9.85938L18.7299 12.0219L18.8955 10.8832Z" fill="#BA3E31"/>
<path d="M6.28649 11.999L6.13713 10.855L4.32047 11.9357C4.31584 11.9572 4.31121 11.9776 4.30542 11.999H6.28649Z" fill="#5D1206"/>
<path d="M18.73 12.0225L19.2881 12.9701L20.7215 12.1019C20.7157 12.0761 20.7087 12.0493 20.703 12.0235H18.73V12.0225Z" fill="#5D1206"/>
<path d="M18.73 12.0225H20.703C20.6983 11.9999 20.6925 11.9774 20.6867 11.9538L18.8956 10.8838L18.73 12.0225Z" fill="#5D1206"/>
<path d="M17.1772 14.2483L19.288 12.9701L18.7299 12.0225L17.1772 14.2483Z" fill="#BA3E31"/>
<path d="M7.84974 9.83545L6.13729 10.855L6.28665 11.9991L5.7251 12.966L7.83122 14.2496L6.28665 12.0216L7.84974 9.83545Z" fill="#BA3E31"/>
<path d="M17.1819 9.85952L12.5077 7.06592L7.84971 9.83591L6.28662 12.0221L7.83119 14.2501L12.4892 17.0887V16.2538V17.0887L17.1773 14.2479L18.73 12.0221L17.1819 9.85952Z" fill="white"/>
</g>
<g style="mix-blend-mode:overlay">
<path d="M12.4891 17.0887C13.3297 15.524 13.4907 14.2597 13.9631 12.3376C13.9758 12.2882 13.9862 12.2388 13.9978 12.1895L11.439 13.7113L12.4903 17.0876L12.4891 17.0887Z" fill="#BA3E31"/>
<path d="M6.66511 20.66C6.78206 20.7791 6.86774 20.9154 6.921 21.0592C7.05994 21.1751 7.19772 21.291 7.33898 21.408C7.45824 21.5067 7.57865 21.6055 7.7037 21.6988C7.7338 21.7214 7.7558 21.7375 7.77086 21.7482C7.82064 21.7826 7.87159 21.8169 7.92138 21.8512C8.00706 21.907 8.09389 21.9618 8.18073 22.0154C8.3463 22.097 8.51303 22.1786 8.67976 22.258C9.82835 20.9358 10.97 19.3732 11.9391 17.568L11.4366 13.7119L9.02364 15.1468L5.7041 19.7864C6.03872 20.0632 6.36176 20.3519 6.66396 20.6589L6.66511 20.66Z" fill="#7C1306"/>
<path d="M11.0396 1.66113C10.4399 2.05071 9.91884 2.45746 9.38507 3.03057C8.68342 3.78289 8.01187 4.60928 7.26853 5.41634C7.14348 5.55157 7.02307 5.69109 6.90381 5.83382L9.05161 8.93115L12.018 10.7385L14.3291 6.75358C14.0801 4.95163 13.4537 3.38366 12.5668 2.05286L11.0408 1.66113H11.0396Z" fill="#BA3E31"/>
<path d="M11.6393 1.28951C11.4297 1.41508 11.2306 1.53743 11.0396 1.66085L12.5656 2.05257C12.3549 1.7349 12.1279 1.43225 11.8883 1.14355C11.8049 1.19185 11.7215 1.24014 11.6393 1.28951Z" fill="#BA3E31"/>
<path d="M14.0465 11.9746C14.4761 10.061 14.5699 8.42863 14.3534 6.86279L12.0168 10.7371L14.0465 11.9746Z" fill="#BA3E31"/>
<path d="M5.03967 18.9311C5.14735 19.1275 5.25734 19.3196 5.36502 19.5138C5.47965 19.604 5.59428 19.6952 5.70659 19.7875L9.02613 15.1479L4.53369 17.8203C4.65642 18.1186 4.77105 18.4213 4.88105 18.725C4.94357 18.7851 4.99799 18.8527 5.04083 18.9311H5.03967Z" fill="#7C1306"/>
<path d="M6.00977 7.07736L9.05143 8.93082L6.90362 5.8335C6.58637 6.21342 6.28881 6.62446 6.00977 7.07736Z" fill="#7C1306"/>
<path d="M11.2271 12.1003H14.0175C14.0267 12.0584 14.0371 12.0166 14.0464 11.9747L12.0167 10.7373L11.2271 12.1003Z" fill="#D3504A"/>
<path d="M11.2272 12.0996L11.4368 13.7116L13.9956 12.1898C14.0026 12.1597 14.0095 12.1297 14.0165 12.0996H11.2261H11.2272Z" fill="#E18886"/>
<path d="M9.0249 15.1478L11.4379 13.7119L11.2271 12.0999L12.0168 10.738L9.05153 8.93066L11.2271 12.0688L9.0249 15.1478Z" fill="#BA3E31"/>
<path d="M3.97314 13.8809C3.97314 14.0343 3.97314 14.1878 3.97314 14.3402C4.00904 14.2297 4.04493 14.1191 4.08082 14.0086L3.97314 13.8809Z" fill="#2EF007"/>
<path d="M4.61459 12.1665H4.07388C4.04725 12.3049 4.01946 12.4434 3.98935 12.5818C3.98125 13.0144 3.97546 13.4479 3.97314 13.8804L4.08082 14.0082C4.2765 13.4082 4.47449 12.8008 4.66901 12.2041L4.62964 12.1772L4.61343 12.1665H4.61459Z" fill="#5D1206"/>
<path d="M4.64542 12.1665H4.61475L4.63065 12.1782L4.64542 12.1665Z" fill="#7AEF3F"/>
<path d="M4.69231 12.1343L4.646 12.1665H4.68189C4.68536 12.1557 4.68884 12.145 4.69231 12.1343Z" fill="#7AEF3F"/>
<path d="M4.64585 12.1666L4.62964 12.1773L4.66901 12.2042C4.67364 12.1913 4.67711 12.1784 4.68174 12.1655H4.64585V12.1666Z" fill="#7AEF3F"/>
<path d="M4.66895 12.2042L8.95876 15.1866L9.0236 15.148L11.1575 12.1655H4.68168C4.67705 12.1784 4.67358 12.1913 4.66895 12.2042Z" fill="#7C1306"/>
<path d="M4.669 12.2041C4.47448 12.8008 4.27649 13.4083 4.08081 14.0082L6.36871 16.7277L8.95881 15.1866L4.669 12.2041Z" fill="#5D1206"/>
<path d="M4.53245 17.821L6.36995 16.7274L4.08204 14.0078C4.04615 14.1184 4.01026 14.2289 3.97437 14.3394C3.97668 15.1411 3.99289 15.9439 4.02878 16.7445C4.21635 17.0944 4.38077 17.4539 4.53245 17.8199V17.821Z" fill="#4A0B04"/>
<path d="M6.2322 7.21338L5.81885 7.40119C5.78643 7.45915 5.75285 7.51603 5.72043 7.57505C5.70075 7.61154 5.67759 7.64589 5.65212 7.67808C5.63707 7.82512 5.59423 7.97322 5.52591 8.11596C4.93078 9.35768 4.42828 10.7378 4.08092 12.1298C4.07861 12.1416 4.07629 12.1534 4.07397 12.1663H4.64595L4.69226 12.1341C5.31866 10.2109 5.908 8.39392 6.27967 7.24236L6.2322 7.21338Z" fill="#7C1306"/>
<path d="M9.12083 9.03232L9.05021 8.93144L6.27832 7.24219C5.90781 8.39376 5.31731 10.2096 4.69092 12.1339L9.11968 9.03232H9.12083Z" fill="#7C1306"/>
<path d="M4.68164 12.166H11.1575L11.2269 12.0694L9.12082 9.03223L4.69206 12.1338C4.68859 12.1446 4.68511 12.1553 4.68164 12.166Z" fill="#4A0B04"/>
<path d="M5.81885 7.40116L6.2322 7.21335L6.00989 7.07812C5.94505 7.1833 5.88137 7.29062 5.81885 7.40116Z" fill="#96E45D"/>
</g>
<g style="mix-blend-mode:overlay">
<path d="M19.2995 19.8965C19.5855 19.582 19.7916 19.3556 20.0081 19.0508L18.6268 17.1211L16.2139 15.6787L15.6697 19.4157C16.1236 20.2764 16.618 21.0824 17.1332 21.8358C17.9182 21.253 18.6511 20.6102 19.2995 19.8965Z" fill="#7C1306"/>
<path d="M13.6921 14.1699C13.706 14.2279 13.7175 14.2848 13.7314 14.3427C14.1876 16.2005 14.8661 17.8908 15.6697 19.4148L16.2139 15.6778L13.6909 14.1699H13.6921Z" fill="#7C1306"/>
<path d="M13.3609 8.82861C13.1548 10.3719 13.2255 12.0848 13.6446 13.9629L15.6639 12.7394L13.3609 8.82861Z" fill="#E18886"/>
<path d="M16.2452 3.76863C16.0831 3.58618 15.9233 3.40158 15.7681 3.21484C15.5505 3.481 15.3432 3.75897 15.1487 4.04874L16.2452 3.76863Z" fill="#5D1206"/>
<path d="M18.6348 10.9391L19.942 9.0653C19.8552 8.85388 19.7672 8.64353 19.6757 8.43532C19.2172 7.48659 18.6811 6.57542 18.0281 5.7308C17.4422 5.06647 16.8274 4.42683 16.245 3.77002L15.1486 4.05013C14.2431 5.40025 13.6063 6.99505 13.3608 8.83027L15.6638 12.7411L18.636 10.9402L18.6348 10.9391Z" fill="#5D1206"/>
<path d="M20.2835 9.93962C20.1747 9.64663 20.0601 9.35471 19.942 9.06494L18.6348 10.9388L20.2835 9.93962Z" fill="#5D1206"/>
<path d="M20.1713 18.8119C20.2918 18.6273 20.4064 18.4384 20.5071 18.2442L18.6279 17.1216L20.0092 19.0512C20.0625 18.9772 20.1158 18.8988 20.1713 18.813V18.8119Z" fill="#5D1206"/>
<path d="M13.6433 13.9634L13.4951 14.0535L13.5299 14.0739H13.6688C13.6607 14.0374 13.6514 13.9999 13.6433 13.9634Z" fill="#92E800"/>
<path d="M13.53 14.0732L13.6909 14.1698C13.6828 14.1376 13.6759 14.1054 13.6678 14.0732H13.5288H13.53Z" fill="#92E800"/>
<path d="M16.2151 15.6777L18.628 17.1201L16.449 14.0732L16.2151 15.6777Z" fill="#7C1306"/>
<path d="M16.4488 14.0738L15.6638 12.7397L13.6445 13.9632C13.6526 13.9997 13.6619 14.0373 13.67 14.0738H16.45H16.4488Z" fill="#D3504A"/>
<path d="M16.4489 14.0732H13.6689C13.6759 14.1054 13.684 14.1376 13.6921 14.1698L16.215 15.6777L16.4489 14.0732Z" fill="#D3504A"/>
<path d="M18.6348 10.9385L15.6626 12.7393L16.4488 14.0734L18.6348 10.9385Z" fill="#5D1206"/>
<path d="M20.5068 18.2435C20.5068 18.2435 20.5103 18.2382 20.5114 18.235C20.508 18.2403 20.6631 17.9162 20.589 18.0879C20.633 17.987 20.677 17.8851 20.7164 17.7821C20.8982 17.3034 21.0452 16.8076 21.154 16.3096C21.1784 16.1958 21.2038 16.0821 21.2235 15.9683C21.2235 15.9662 21.2617 15.6914 21.2548 15.7612C21.2687 15.6367 21.2791 15.5122 21.2872 15.3877L18.6265 17.1188L20.5056 18.2425L20.5068 18.2435Z" fill="#5D1206"/>
<path d="M21.1311 12.7725L18.6116 10.9717L16.4487 14.0733L16.5182 14.1699H21.2712C21.2376 13.703 21.1832 13.2383 21.1311 12.7736V12.7725Z" fill="#4A0B04"/>
<path d="M21.2872 15.388C21.2907 15.3258 21.2953 15.2646 21.2977 15.2024C21.3081 14.8579 21.2953 14.5134 21.271 14.1699H16.5181L18.6277 17.1191L21.2884 15.388H21.2872Z" fill="#4A0B04"/>
<path d="M21.116 12.6332C20.8972 11.7231 20.6135 10.8227 20.2835 9.93945L18.6347 10.9386L18.6116 10.9719L21.131 12.7728C21.1264 12.7255 21.1206 12.6794 21.116 12.6322V12.6332Z" fill="#5D1206"/>
</g>
<path style="mix-blend-mode:color-dodge" d="M11.2524 22.7016C10.9131 22.7016 10.6399 22.4472 10.6399 22.1338C10.6399 21.8205 10.9131 21.564 11.2524 21.564C11.5916 21.564 11.8672 21.8183 11.8672 22.1338C11.8672 22.4494 11.5916 22.7016 11.2524 22.7016Z" fill="url(#paint0_radial_201_6694)"/>
<path style="mix-blend-mode:color-dodge" d="M7.42338 12.1455C6.88267 12.1455 6.44385 11.7387 6.44385 11.2375C6.44385 10.7363 6.88267 10.3296 7.42338 10.3296C7.9641 10.3296 8.40176 10.7363 8.40176 11.2375C8.40176 11.7387 7.96294 12.1455 7.42338 12.1455Z" fill="url(#paint1_radial_201_6694)"/>
<path style="mix-blend-mode:color-dodge" d="M15.3545 22.1762C14.8138 22.1762 14.375 21.7695 14.375 21.2683C14.375 20.7671 14.8138 20.3604 15.3545 20.3604C15.8953 20.3604 16.3329 20.766 16.3329 21.2683C16.3329 21.7706 15.8941 22.1762 15.3545 22.1762Z" fill="url(#paint2_radial_201_6694)"/>
<path style="mix-blend-mode:color-dodge" d="M12.8606 13.7739C12.3199 13.7739 11.8811 13.3671 11.8811 12.866C11.8811 12.3648 12.3199 11.958 12.8606 11.958C13.4014 11.958 13.839 12.3637 13.839 12.866C13.839 13.3682 13.4002 13.7739 12.8606 13.7739Z" fill="url(#paint3_radial_201_6694)"/>
<path style="mix-blend-mode:color-dodge" d="M13.0042 8.11564C12.665 8.11564 12.3894 7.86129 12.3894 7.54684C12.3894 7.23238 12.665 6.97803 13.0042 6.97803C13.3435 6.97803 13.6179 7.23238 13.6179 7.54684C13.6179 7.86129 13.3423 8.11564 13.0042 8.11564Z" fill="url(#paint4_radial_201_6694)"/>
<path style="mix-blend-mode:color-dodge" d="M10.0298 11.5059C8.9831 11.5059 8.13672 10.7214 8.13672 9.75335C8.13672 8.7853 8.9831 7.99756 10.0298 7.99756C11.0765 7.99756 11.9194 8.78423 11.9194 9.75335C11.9194 10.7225 11.073 11.5059 10.0298 11.5059Z" fill="url(#paint5_radial_201_6694)"/>
<path style="mix-blend-mode:color-dodge" d="M12.9045 8.95072C12.0395 8.95072 11.3379 8.30035 11.3379 7.49758C11.3379 6.69481 12.0395 6.04443 12.9045 6.04443C13.7694 6.04443 14.471 6.69481 14.471 7.49758C14.471 8.30035 13.7705 8.95072 12.9045 8.95072Z" fill="url(#paint6_radial_201_6694)"/>
<path style="mix-blend-mode:color-dodge" d="M8.37988 10.6582C8.71913 10.6582 8.99354 10.9126 8.99354 11.227C8.99354 11.5415 8.71913 11.7958 8.37988 11.7958" fill="url(#paint7_radial_201_6694)"/>
<path style="mix-blend-mode:color-dodge" d="M13.2185 12.0601C12.8804 12.0601 12.606 11.8057 12.606 11.4913C12.606 11.1768 12.8804 10.9214 13.2185 10.9214C13.5565 10.9214 13.8333 11.1757 13.8333 11.4913C13.8333 11.8068 13.5577 12.0601 13.2185 12.0601Z" fill="url(#paint8_radial_201_6694)"/>
<path d="M12.4995 17.1777L11.7261 17.4128L12.408 17.1219L11.8245 16.9738L12.4845 17.0887L12.0653 16.1313L12.5586 17.021L12.6605 16.6036L12.6199 17.0275L13.3065 16.7302L12.65 17.1166L13.3505 17.2894L12.6304 17.1756L13.0414 18.1254L12.5562 17.2432L12.43 17.9129L12.4995 17.1777Z" fill="url(#paint9_linear_201_6694)"/>
<path style="mix-blend-mode:screen" d="M12.4901 17.0597C14.0567 16.463 15.3396 16.0026 15.3523 16.0316C15.365 16.0605 14.1041 16.5693 12.5376 17.1649C10.9699 17.7627 9.68928 18.2231 9.67539 18.193C9.66265 18.1641 10.9224 17.6564 12.4901 17.0597Z" fill="url(#paint10_radial_201_6694)"/>
<path style="mix-blend-mode:screen" d="M12.5713 17.0895C13.215 18.5437 13.7118 19.7317 13.6805 19.7435C13.6492 19.7543 13.1016 18.5866 12.4567 17.1335C11.8129 15.6803 11.315 14.4923 11.3474 14.4815C11.3787 14.4697 11.9264 15.6385 12.5713 17.0895Z" fill="url(#paint11_radial_201_6694)"/>
<path style="mix-blend-mode:screen" d="M12.5271 17.0834C13.4244 17.4312 14.1457 17.7242 14.1365 17.7413C14.1284 17.7585 13.3966 17.4902 12.4993 17.1435C11.6031 16.7958 10.8818 16.5017 10.8887 16.4846C10.8968 16.4685 11.6297 16.7357 12.5259 17.0834H12.5271Z" fill="url(#paint12_radial_201_6694)"/>
<path style="mix-blend-mode:screen" d="M12.5467 17.126C12.1704 17.9577 11.8543 18.6253 11.8358 18.6178C11.8173 18.6103 12.1067 17.9309 12.4807 17.1002C12.8559 16.2685 13.1743 15.602 13.1916 15.6084C13.209 15.6149 12.9207 16.2942 12.5467 17.126Z" fill="url(#paint13_radial_201_6694)"/>
</g>
<defs>
<radialGradient id="paint0_radial_201_6694" cx="0" cy="0" r="1" gradientUnits="userSpaceOnUse" gradientTransform="translate(11.2536 22.1328) rotate(90) scale(0.568809 0.613658)">
<stop stop-color="#D6D5D5"/>
<stop offset="0.04" stop-color="#BCBABA"/>
<stop offset="0.12" stop-color="#868384"/>
<stop offset="0.2" stop-color="#5B5858"/>
<stop offset="0.27" stop-color="#3C3839"/>
<stop offset="0.32" stop-color="#292526"/>
<stop offset="0.36" stop-color="#231F20"/>
<stop offset="0.99"/>
</radialGradient>
<radialGradient id="paint1_radial_201_6694" cx="0" cy="0" r="1" gradientUnits="userSpaceOnUse" gradientTransform="translate(7.42223 11.2365) rotate(90) scale(0.907947 0.979537)">
<stop stop-color="#D6D5D5"/>
<stop offset="0.04" stop-color="#BCBABA"/>
<stop offset="0.12" stop-color="#868384"/>
<stop offset="0.2" stop-color="#5B5858"/>
<stop offset="0.27" stop-color="#3C3839"/>
<stop offset="0.32" stop-color="#292526"/>
<stop offset="0.36" stop-color="#231F20"/>
<stop offset="0.99"/>
</radialGradient>
<radialGradient id="paint2_radial_201_6694" cx="0" cy="0" r="1" gradientUnits="userSpaceOnUse" gradientTransform="translate(15.3545 21.2683) rotate(90) scale(0.907947 0.979537)">
<stop stop-color="#D6D5D5"/>
<stop offset="0.04" stop-color="#BCBABA"/>
<stop offset="0.12" stop-color="#868384"/>
<stop offset="0.2" stop-color="#5B5858"/>
<stop offset="0.27" stop-color="#3C3839"/>
<stop offset="0.32" stop-color="#292526"/>
<stop offset="0.36" stop-color="#231F20"/>
<stop offset="0.99"/>
</radialGradient>
<radialGradient id="paint3_radial_201_6694" cx="0" cy="0" r="1" gradientUnits="userSpaceOnUse" gradientTransform="translate(12.8595 12.866) rotate(90) scale(0.907947 0.979537)">
<stop stop-color="#D6D5D5"/>
<stop offset="0.04" stop-color="#BCBABA"/>
<stop offset="0.12" stop-color="#868384"/>
<stop offset="0.2" stop-color="#5B5858"/>
<stop offset="0.27" stop-color="#3C3839"/>
<stop offset="0.32" stop-color="#292526"/>
<stop offset="0.36" stop-color="#231F20"/>
<stop offset="0.99"/>
</radialGradient>
<radialGradient id="paint4_radial_201_6694" cx="0" cy="0" r="1" gradientUnits="userSpaceOnUse" gradientTransform="translate(13.0031 7.54684) rotate(90) scale(0.568808 0.613658)">
<stop stop-color="#D6D5D5"/>
<stop offset="0.04" stop-color="#BCBABA"/>
<stop offset="0.12" stop-color="#868384"/>
<stop offset="0.2" stop-color="#5B5858"/>
<stop offset="0.27" stop-color="#3C3839"/>
<stop offset="0.32" stop-color="#292526"/>
<stop offset="0.36" stop-color="#231F20"/>
<stop offset="0.99"/>
</radialGradient>
<radialGradient id="paint5_radial_201_6694" cx="0" cy="0" r="1" gradientUnits="userSpaceOnUse" gradientTransform="translate(10.0275 9.75228) rotate(90) scale(1.75365 1.89192)">
<stop stop-color="#D6D5D5"/>
<stop offset="0.05" stop-color="#BCBABA"/>
<stop offset="0.15" stop-color="#868384"/>
<stop offset="0.25" stop-color="#5B5858"/>
<stop offset="0.34" stop-color="#3C3839"/>
<stop offset="0.42" stop-color="#292526"/>
<stop offset="0.47" stop-color="#231F20"/>
<stop offset="0.99"/>
</radialGradient>
<radialGradient id="paint6_radial_201_6694" cx="0" cy="0" r="1" gradientUnits="userSpaceOnUse" gradientTransform="translate(12.9045 7.49758) rotate(90) scale(1.45207 1.56656)">
<stop stop-color="#D6D5D5"/>
<stop offset="0.04" stop-color="#BCBABA"/>
<stop offset="0.12" stop-color="#868384"/>
<stop offset="0.2" stop-color="#5B5858"/>
<stop offset="0.27" stop-color="#3C3839"/>
<stop offset="0.32" stop-color="#292526"/>
<stop offset="0.36" stop-color="#231F20"/>
<stop offset="0.99"/>
</radialGradient>
<radialGradient id="paint7_radial_201_6694" cx="0" cy="0" r="1" gradientUnits="userSpaceOnUse" gradientTransform="translate(8.68671 11.227) rotate(90) scale(0.44968 0.485137)">
<stop stop-color="#D6D5D5"/>
<stop offset="0.04" stop-color="#BCBABA"/>
<stop offset="0.12" stop-color="#868384"/>
<stop offset="0.2" stop-color="#5B5858"/>
<stop offset="0.27" stop-color="#3C3839"/>
<stop offset="0.32" stop-color="#292526"/>
<stop offset="0.36" stop-color="#231F20"/>
<stop offset="0.99"/>
</radialGradient>
<radialGradient id="paint8_radial_201_6694" cx="0" cy="0" r="1" gradientUnits="userSpaceOnUse" gradientTransform="translate(13.2196 11.4913) rotate(90) scale(0.568808 0.613658)">
<stop stop-color="#D6D5D5"/>
<stop offset="0.04" stop-color="#BCBABA"/>
<stop offset="0.12" stop-color="#868384"/>
<stop offset="0.2" stop-color="#5B5858"/>
<stop offset="0.27" stop-color="#3C3839"/>
<stop offset="0.32" stop-color="#292526"/>
<stop offset="0.36" stop-color="#231F20"/>
<stop offset="0.99"/>
</radialGradient>
<linearGradient id="paint9_linear_201_6694" x1="11.717" y1="17.5085" x2="13.284" y2="16.8009" gradientUnits="userSpaceOnUse">
<stop stop-color="white"/>
<stop offset="0.69" stop-color="#F9F7F3"/>
<stop offset="1" stop-color="#F6F3EC"/>
</linearGradient>
<radialGradient id="paint10_radial_201_6694" cx="0" cy="0" r="1" gradientUnits="userSpaceOnUse" gradientTransform="translate(15.9259 26.1019) rotate(-113.931) scale(0.0567806 3.0318)">
<stop stop-color="#FFF414"/>
<stop offset="0.05" stop-color="#E3DA15"/>
<stop offset="0.18" stop-color="#A9A218"/>
<stop offset="0.3" stop-color="#77731B"/>
<stop offset="0.42" stop-color="#514F1D"/>
<stop offset="0.53" stop-color="#36351E"/>
<stop offset="0.62" stop-color="#25251F"/>
<stop offset="0.69" stop-color="#202020"/>
<stop offset="0.99"/>
</radialGradient>
<radialGradient id="paint11_radial_201_6694" cx="0" cy="0" r="1" gradientUnits="userSpaceOnUse" gradientTransform="translate(-11.1575 26.3441) rotate(-20.8713) scale(0.060233 2.88761)">
<stop stop-color="#FFF414"/>
<stop offset="0.05" stop-color="#E3DA15"/>
<stop offset="0.18" stop-color="#A9A218"/>
<stop offset="0.3" stop-color="#77731B"/>
<stop offset="0.42" stop-color="#514F1D"/>
<stop offset="0.53" stop-color="#36351E"/>
<stop offset="0.62" stop-color="#25251F"/>
<stop offset="0.69" stop-color="#202020"/>
<stop offset="0.99"/>
</radialGradient>
<radialGradient id="paint12_radial_201_6694" cx="0" cy="0" r="1" gradientUnits="userSpaceOnUse" gradientTransform="translate(2.13646 39.4551) rotate(-65.6265) scale(0.0324921 1.73348)">
<stop stop-color="#FFF414"/>
<stop offset="0.05" stop-color="#E3DA15"/>
<stop offset="0.18" stop-color="#A9A218"/>
<stop offset="0.3" stop-color="#77731B"/>
<stop offset="0.42" stop-color="#514F1D"/>
<stop offset="0.53" stop-color="#36351E"/>
<stop offset="0.62" stop-color="#25251F"/>
<stop offset="0.69" stop-color="#202020"/>
<stop offset="0.99"/>
</radialGradient>
<radialGradient id="paint13_radial_201_6694" cx="0" cy="0" r="1" gradientUnits="userSpaceOnUse" gradientTransform="translate(6.02811 15.2245) rotate(21.2689) scale(0.0346417 1.66199)">
<stop stop-color="#FFF414"/>
<stop offset="0.05" stop-color="#E3DA15"/>
<stop offset="0.18" stop-color="#A9A218"/>
<stop offset="0.3" stop-color="#77731B"/>
<stop offset="0.42" stop-color="#514F1D"/>
<stop offset="0.53" stop-color="#36351E"/>
<stop offset="0.62" stop-color="#25251F"/>
<stop offset="0.69" stop-color="#202020"/>
<stop offset="0.99"/>
</radialGradient>
</defs>
</svg>
