<svg width="24" height="24" viewBox="0 0 24 24" fill="none" xmlns="http://www.w3.org/2000/svg">
<path d="M2.62207 5.2C2.62207 4.0799 2.62207 3.51984 2.84006 3.09202C3.0318 2.71569 3.33777 2.40973 3.71409 2.21799C4.14191 2 4.70196 2 5.82207 2H14.688C15.8081 2 16.3682 2 16.796 2.21799C17.1723 2.40973 17.4783 2.71569 17.67 3.09202C17.888 3.51984 17.888 4.0799 17.888 5.2V7.8883H12.438C10.7579 7.8883 9.91779 7.8883 9.27606 8.21528C8.71157 8.5029 8.25263 8.96184 7.96501 9.52633C7.63803 10.1681 7.63803 11.0081 7.63803 12.6883V13.7766C7.21334 13.7766 6.80012 13.9143 6.46037 14.1691L5.18207 15.1279C4.35811 15.7458 3.94613 16.0548 3.60128 16.0477C3.30119 16.0414 3.01976 15.9007 2.83472 15.6644C2.62207 15.3928 2.62207 14.8778 2.62207 13.8479V5.2Z" fill="white"/>
<path d="M13.5285 19.1353C11.8483 19.1353 11.0082 19.1353 10.3665 18.8083C9.802 18.5207 9.34305 18.0617 9.05543 17.4972C8.72845 16.8555 8.72845 16.0154 8.72845 14.3353V12.1787C8.72845 11.0586 8.72845 10.4986 8.94644 10.0707C9.13819 9.69442 9.44415 9.38846 9.82047 9.19671C10.2483 8.97872 10.8083 8.97872 11.9285 8.97872H18.1774C19.2975 8.97872 19.8575 8.97872 20.2854 9.19671C20.6617 9.38846 20.9677 9.69442 21.1594 10.0707C21.3774 10.4986 21.3774 11.0586 21.3774 12.1787V19.6058C21.3774 20.0737 21.3774 20.3077 21.3384 20.4433C21.1635 21.0509 20.4756 21.3457 19.915 21.0533C19.7899 20.9881 19.6204 20.8267 19.2816 20.504C19.0075 20.243 18.8705 20.1125 18.7269 19.9988C18.1183 19.5171 17.3827 19.2229 16.6098 19.152C16.4275 19.1353 16.2382 19.1353 15.8598 19.1353H13.5285Z" fill="white"/>
</svg>
