<svg width="24" height="24" viewBox="0 0 24 24" fill="none" xmlns="http://www.w3.org/2000/svg">
<path d="M9.11062 14.0577H7.82643C7.23881 14.0577 6.945 14.0577 6.66261 14.1117C6.39843 14.1622 6.14214 14.2476 5.90049 14.3657C5.64217 14.4919 5.40712 14.6682 4.93702 15.0208C4.12169 15.6323 3.71402 15.938 3.37314 15.9358C3.05962 15.9336 2.76481 15.7862 2.57501 15.5367C2.36865 15.2654 2.36865 14.7558 2.36865 13.7366V5.73614C2.36865 4.60339 2.36865 4.03701 2.5891 3.60435C2.78301 3.22378 3.09243 2.91436 3.47301 2.72045C3.90566 2.5 4.47204 2.5 5.6048 2.5H14.5427C15.6755 2.5 16.2419 2.5 16.6745 2.72045C17.0551 2.91436 17.3645 3.22378 17.5584 3.60435C17.7789 4.03701 17.7789 4.60339 17.7789 5.73615V7.79726M20.0756 21.2442C19.2195 20.4288 18.0826 19.9741 16.9004 19.9741H12.3468C11.214 19.9741 10.6476 19.9741 10.215 19.7536C9.8344 19.5597 9.52498 19.2503 9.33107 18.8697C9.11062 18.4371 9.11062 17.8707 9.11062 16.7379V13.4413C9.11062 12.3085 9.11062 11.7421 9.33107 11.3095C9.52498 10.9289 9.8344 10.6195 10.215 10.4256C10.6476 10.2051 11.214 10.2051 12.3468 10.2051H18.3953C19.528 10.2051 20.0944 10.2051 20.5271 10.4256C20.9076 10.6195 21.2171 10.9289 21.411 11.3095C21.6314 11.7421 21.6314 12.3085 21.6314 13.4413V20.5774C21.6314 21.3869 20.6618 21.8025 20.0756 21.2442Z" stroke="white" stroke-width="1.5" stroke-linecap="round" stroke-linejoin="round"/>
</svg>
