<svg width="24" height="24" viewBox="0 0 24 24" fill="none" xmlns="http://www.w3.org/2000/svg">
<path d="M11.1 19.2L21 19.2M11.1 12L21 12M11.1 4.8H21M4.6 21H5C5.56005 21 5.84008 21 6.05399 20.891C6.24215 20.7951 6.39513 20.6422 6.49101 20.454C6.6 20.2401 6.6 19.9601 6.6 19.4V19C6.6 18.4399 6.6 18.1599 6.49101 17.946C6.39513 17.7578 6.24215 17.6049 6.05399 17.509C5.84008 17.4 5.56005 17.4 5 17.4H4.6C4.03995 17.4 3.75992 17.4 3.54601 17.509C3.35785 17.6049 3.20487 17.7578 3.10899 17.946C3 18.1599 3 18.4399 3 19V19.4C3 19.9601 3 20.2401 3.10899 20.454C3.20487 20.6422 3.35785 20.7951 3.54601 20.891C3.75992 21 4.03995 21 4.6 21ZM4.6 13.8H5C5.56005 13.8 5.84008 13.8 6.05399 13.691C6.24215 13.5951 6.39513 13.4422 6.49101 13.254C6.6 13.0401 6.6 12.7601 6.6 12.2V11.8C6.6 11.2399 6.6 10.9599 6.49101 10.746C6.39513 10.5578 6.24215 10.4049 6.05399 10.309C5.84008 10.2 5.56005 10.2 5 10.2H4.6C4.03995 10.2 3.75992 10.2 3.54601 10.309C3.35785 10.4049 3.20487 10.5578 3.10899 10.746C3 10.9599 3 11.2399 3 11.8V12.2C3 12.7601 3 13.0401 3.10899 13.254C3.20487 13.4422 3.35785 13.5951 3.54601 13.691C3.75992 13.8 4.03995 13.8 4.6 13.8ZM4.6 6.6H5C5.56005 6.6 5.84008 6.6 6.05399 6.49101C6.24215 6.39513 6.39513 6.24215 6.49101 6.05399C6.6 5.84008 6.6 5.56005 6.6 5V4.6C6.6 4.03995 6.6 3.75992 6.49101 3.54601C6.39513 3.35785 6.24215 3.20487 6.05399 3.10899C5.84008 3 5.56005 3 5 3H4.6C4.03995 3 3.75992 3 3.54601 3.10899C3.35785 3.20487 3.20487 3.35785 3.10899 3.54601C3 3.75992 3 4.03995 3 4.6V5C3 5.56005 3 5.84008 3.10899 6.05399C3.20487 6.24215 3.35785 6.39513 3.54601 6.49101C3.75992 6.6 4.03995 6.6 4.6 6.6Z" stroke="white" stroke-width="1.5" stroke-linecap="round" stroke-linejoin="round"/>
</svg>
